<mxfile host="app.diagrams.net" modified="2024-03-14T11:31:02.903Z" agent="Mozilla/5.0 (Windows NT 10.0; Win64; x64) AppleWebKit/537.36 (KHTML, like Gecko) Chrome/122.0.0.0 Safari/537.36" etag="5ctXyDIp9AF7uuBEJNQV" version="24.0.5" type="github">
  <diagram id="prtHgNgQTEPvFCAcTncT" name="Page-1">
    <mxGraphModel dx="4168" dy="878" grid="1" gridSize="10" guides="1" tooltips="1" connect="1" arrows="1" fold="1" page="1" pageScale="1" pageWidth="827" pageHeight="1169" math="0" shadow="0">
      <root>
        <mxCell id="0" />
        <mxCell id="1" parent="0" />
        <mxCell id="yv1jg0gktLCmBM4Epeqx-4" value="Компания" style="swimlane;fontStyle=0;childLayout=stackLayout;horizontal=1;startSize=30;horizontalStack=0;resizeParent=1;resizeParentMax=0;resizeLast=0;collapsible=1;marginBottom=0;whiteSpace=wrap;html=1;" parent="1" vertex="1">
          <mxGeometry x="20" y="240" width="210" height="620" as="geometry">
            <mxRectangle x="150" y="270" width="100" height="30" as="alternateBounds" />
          </mxGeometry>
        </mxCell>
        <mxCell id="yv1jg0gktLCmBM4Epeqx-5" value="&lt;p class=&quot;MsoNormal&quot;&gt;Название string&lt;/p&gt;" style="text;strokeColor=none;fillColor=none;align=left;verticalAlign=middle;spacingLeft=4;spacingRight=4;overflow=hidden;points=[[0,0.5],[1,0.5]];portConstraint=eastwest;rotatable=0;whiteSpace=wrap;html=1;" parent="yv1jg0gktLCmBM4Epeqx-4" vertex="1">
          <mxGeometry y="30" width="210" height="30" as="geometry" />
        </mxCell>
        <mxCell id="yv1jg0gktLCmBM4Epeqx-6" value="&lt;p class=&quot;MsoNormal&quot;&gt;Подразделение string&lt;/p&gt;" style="text;strokeColor=none;fillColor=none;align=left;verticalAlign=middle;spacingLeft=4;spacingRight=4;overflow=hidden;points=[[0,0.5],[1,0.5]];portConstraint=eastwest;rotatable=0;whiteSpace=wrap;html=1;" parent="yv1jg0gktLCmBM4Epeqx-4" vertex="1">
          <mxGeometry y="60" width="210" height="30" as="geometry" />
        </mxCell>
        <mxCell id="yv1jg0gktLCmBM4Epeqx-7" value="&lt;p class=&quot;MsoNormal&quot;&gt;Группа: string&lt;/p&gt;" style="text;strokeColor=none;fillColor=none;align=left;verticalAlign=middle;spacingLeft=4;spacingRight=4;overflow=hidden;points=[[0,0.5],[1,0.5]];portConstraint=eastwest;rotatable=0;whiteSpace=wrap;html=1;" parent="yv1jg0gktLCmBM4Epeqx-4" vertex="1">
          <mxGeometry y="90" width="210" height="30" as="geometry" />
        </mxCell>
        <mxCell id="yv1jg0gktLCmBM4Epeqx-10" value="&lt;p class=&quot;MsoNormal&quot;&gt;Логотип (путь): string&lt;/p&gt;" style="text;strokeColor=none;fillColor=none;align=left;verticalAlign=middle;spacingLeft=4;spacingRight=4;overflow=hidden;points=[[0,0.5],[1,0.5]];portConstraint=eastwest;rotatable=0;whiteSpace=wrap;html=1;" parent="yv1jg0gktLCmBM4Epeqx-4" vertex="1">
          <mxGeometry y="120" width="210" height="30" as="geometry" />
        </mxCell>
        <mxCell id="yv1jg0gktLCmBM4Epeqx-11" value="Пароли??????" style="text;strokeColor=#b85450;fillColor=#f8cecc;align=left;verticalAlign=middle;spacingLeft=4;spacingRight=4;overflow=hidden;points=[[0,0.5],[1,0.5]];portConstraint=eastwest;rotatable=0;whiteSpace=wrap;html=1;" parent="yv1jg0gktLCmBM4Epeqx-4" vertex="1">
          <mxGeometry y="150" width="210" height="30" as="geometry" />
        </mxCell>
        <mxCell id="yv1jg0gktLCmBM4Epeqx-12" value="КонтактноеЛицо" style="text;strokeColor=none;fillColor=none;align=left;verticalAlign=middle;spacingLeft=4;spacingRight=4;overflow=hidden;points=[[0,0.5],[1,0.5]];portConstraint=eastwest;rotatable=0;whiteSpace=wrap;html=1;" parent="yv1jg0gktLCmBM4Epeqx-4" vertex="1">
          <mxGeometry y="180" width="210" height="30" as="geometry" />
        </mxCell>
        <mxCell id="yv1jg0gktLCmBM4Epeqx-14" value="Заблокирована : bool" style="text;strokeColor=none;fillColor=none;align=left;verticalAlign=middle;spacingLeft=4;spacingRight=4;overflow=hidden;points=[[0,0.5],[1,0.5]];portConstraint=eastwest;rotatable=0;whiteSpace=wrap;html=1;" parent="yv1jg0gktLCmBM4Epeqx-4" vertex="1">
          <mxGeometry y="210" width="210" height="30" as="geometry" />
        </mxCell>
        <mxCell id="yv1jg0gktLCmBM4Epeqx-15" value="ПредупреждениеСтолкновений" style="text;strokeColor=none;fillColor=none;align=left;verticalAlign=middle;spacingLeft=4;spacingRight=4;overflow=hidden;points=[[0,0.5],[1,0.5]];portConstraint=eastwest;rotatable=0;whiteSpace=wrap;html=1;" parent="yv1jg0gktLCmBM4Epeqx-4" vertex="1">
          <mxGeometry y="240" width="210" height="30" as="geometry" />
        </mxCell>
        <mxCell id="yv1jg0gktLCmBM4Epeqx-52" value="ПараметрыВычислений" style="text;strokeColor=none;fillColor=none;align=left;verticalAlign=middle;spacingLeft=4;spacingRight=4;overflow=hidden;points=[[0,0.5],[1,0.5]];portConstraint=eastwest;rotatable=0;whiteSpace=wrap;html=1;" parent="yv1jg0gktLCmBM4Epeqx-4" vertex="1">
          <mxGeometry y="270" width="210" height="30" as="geometry" />
        </mxCell>
        <mxCell id="Es_sbu_oqxTV1BIQotpF-30" value="Месторождения : List&amp;lt;Месторождение&amp;gt;" style="text;strokeColor=#b85450;fillColor=#f8cecc;align=left;verticalAlign=middle;spacingLeft=4;spacingRight=4;overflow=hidden;points=[[0,0.5],[1,0.5]];portConstraint=eastwest;rotatable=0;whiteSpace=wrap;html=1;" vertex="1" parent="yv1jg0gktLCmBM4Epeqx-4">
          <mxGeometry y="300" width="210" height="40" as="geometry" />
        </mxCell>
        <mxCell id="Es_sbu_oqxTV1BIQotpF-98" value="КомпанииПартнеры" style="text;strokeColor=#b85450;fillColor=#f8cecc;align=left;verticalAlign=middle;spacingLeft=4;spacingRight=4;overflow=hidden;points=[[0,0.5],[1,0.5]];portConstraint=eastwest;rotatable=0;whiteSpace=wrap;html=1;" vertex="1" parent="yv1jg0gktLCmBM4Epeqx-4">
          <mxGeometry y="340" width="210" height="40" as="geometry" />
        </mxCell>
        <mxCell id="Es_sbu_oqxTV1BIQotpF-114" value="ТипыСтволовСкважин" style="text;strokeColor=#b85450;fillColor=#f8cecc;align=left;verticalAlign=middle;spacingLeft=4;spacingRight=4;overflow=hidden;points=[[0,0.5],[1,0.5]];portConstraint=eastwest;rotatable=0;whiteSpace=wrap;html=1;" vertex="1" parent="yv1jg0gktLCmBM4Epeqx-4">
          <mxGeometry y="380" width="210" height="40" as="geometry" />
        </mxCell>
        <mxCell id="Es_sbu_oqxTV1BIQotpF-115" value="АудитИнформации" style="text;strokeColor=#b85450;fillColor=#f8cecc;align=left;verticalAlign=middle;spacingLeft=4;spacingRight=4;overflow=hidden;points=[[0,0.5],[1,0.5]];portConstraint=eastwest;rotatable=0;whiteSpace=wrap;html=1;" vertex="1" parent="yv1jg0gktLCmBM4Epeqx-4">
          <mxGeometry y="420" width="210" height="40" as="geometry" />
        </mxCell>
        <mxCell id="Es_sbu_oqxTV1BIQotpF-116" value="УведомленияОбАнтистолкновениях" style="text;strokeColor=#b85450;fillColor=#f8cecc;align=left;verticalAlign=middle;spacingLeft=4;spacingRight=4;overflow=hidden;points=[[0,0.5],[1,0.5]];portConstraint=eastwest;rotatable=0;whiteSpace=wrap;html=1;" vertex="1" parent="yv1jg0gktLCmBM4Epeqx-4">
          <mxGeometry y="460" width="210" height="40" as="geometry" />
        </mxCell>
        <mxCell id="yv1jg0gktLCmBM4Epeqx-65" value="=====Actions=========" style="text;strokeColor=none;fillColor=none;align=left;verticalAlign=middle;spacingLeft=4;spacingRight=4;overflow=hidden;points=[[0,0.5],[1,0.5]];portConstraint=eastwest;rotatable=0;whiteSpace=wrap;html=1;" parent="yv1jg0gktLCmBM4Epeqx-4" vertex="1">
          <mxGeometry y="500" width="210" height="30" as="geometry" />
        </mxCell>
        <mxCell id="yv1jg0gktLCmBM4Epeqx-66" value="Заблокировать (void)&amp;nbsp;" style="text;strokeColor=none;fillColor=none;align=left;verticalAlign=middle;spacingLeft=4;spacingRight=4;overflow=hidden;points=[[0,0.5],[1,0.5]];portConstraint=eastwest;rotatable=0;whiteSpace=wrap;html=1;" parent="yv1jg0gktLCmBM4Epeqx-4" vertex="1">
          <mxGeometry y="530" width="210" height="30" as="geometry" />
        </mxCell>
        <mxCell id="yv1jg0gktLCmBM4Epeqx-92" value="СоздатьМесторождение (Месторождение)" style="text;strokeColor=none;fillColor=none;align=left;verticalAlign=middle;spacingLeft=4;spacingRight=4;overflow=hidden;points=[[0,0.5],[1,0.5]];portConstraint=eastwest;rotatable=0;whiteSpace=wrap;html=1;" parent="yv1jg0gktLCmBM4Epeqx-4" vertex="1">
          <mxGeometry y="560" width="210" height="60" as="geometry" />
        </mxCell>
        <mxCell id="yv1jg0gktLCmBM4Epeqx-16" value="Контактное лицо" style="swimlane;fontStyle=0;childLayout=stackLayout;horizontal=1;startSize=30;horizontalStack=0;resizeParent=1;resizeParentMax=0;resizeLast=0;collapsible=1;marginBottom=0;whiteSpace=wrap;html=1;" parent="1" vertex="1">
          <mxGeometry x="320" y="130" width="140" height="120" as="geometry" />
        </mxCell>
        <mxCell id="yv1jg0gktLCmBM4Epeqx-17" value="&lt;p class=&quot;MsoNormal&quot;&gt;Представитель: string&lt;/p&gt;" style="text;strokeColor=none;fillColor=none;align=left;verticalAlign=middle;spacingLeft=4;spacingRight=4;overflow=hidden;points=[[0,0.5],[1,0.5]];portConstraint=eastwest;rotatable=0;whiteSpace=wrap;html=1;" parent="yv1jg0gktLCmBM4Epeqx-16" vertex="1">
          <mxGeometry y="30" width="140" height="30" as="geometry" />
        </mxCell>
        <mxCell id="yv1jg0gktLCmBM4Epeqx-18" value="&lt;p class=&quot;MsoNormal&quot;&gt;Адрес: string&lt;/p&gt;" style="text;strokeColor=none;fillColor=none;align=left;verticalAlign=middle;spacingLeft=4;spacingRight=4;overflow=hidden;points=[[0,0.5],[1,0.5]];portConstraint=eastwest;rotatable=0;whiteSpace=wrap;html=1;" parent="yv1jg0gktLCmBM4Epeqx-16" vertex="1">
          <mxGeometry y="60" width="140" height="30" as="geometry" />
        </mxCell>
        <mxCell id="yv1jg0gktLCmBM4Epeqx-19" value="&lt;p class=&quot;MsoNormal&quot;&gt;Телефон: string&lt;/p&gt;" style="text;strokeColor=none;fillColor=none;align=left;verticalAlign=middle;spacingLeft=4;spacingRight=4;overflow=hidden;points=[[0,0.5],[1,0.5]];portConstraint=eastwest;rotatable=0;whiteSpace=wrap;html=1;" parent="yv1jg0gktLCmBM4Epeqx-16" vertex="1">
          <mxGeometry y="90" width="140" height="30" as="geometry" />
        </mxCell>
        <mxCell id="yv1jg0gktLCmBM4Epeqx-20" value="" style="edgeStyle=segmentEdgeStyle;endArrow=classic;html=1;curved=0;rounded=0;endSize=8;startSize=8;entryX=-0.009;entryY=0.163;entryDx=0;entryDy=0;entryPerimeter=0;exitX=1;exitY=0.5;exitDx=0;exitDy=0;" parent="1" source="yv1jg0gktLCmBM4Epeqx-12" target="yv1jg0gktLCmBM4Epeqx-16" edge="1">
          <mxGeometry width="50" height="50" relative="1" as="geometry">
            <mxPoint x="280" y="440" as="sourcePoint" />
            <mxPoint x="330" y="390" as="targetPoint" />
            <Array as="points">
              <mxPoint x="240" y="435" />
              <mxPoint x="240" y="150" />
            </Array>
          </mxGeometry>
        </mxCell>
        <mxCell id="yv1jg0gktLCmBM4Epeqx-21" value="&lt;p class=&quot;MsoNormal&quot;&gt;&lt;b&gt;Предупреждение Столкновений&lt;/b&gt;&lt;/p&gt;" style="swimlane;fontStyle=0;childLayout=stackLayout;horizontal=1;startSize=30;horizontalStack=0;resizeParent=1;resizeParentMax=0;resizeLast=0;collapsible=1;marginBottom=0;whiteSpace=wrap;html=1;" parent="1" vertex="1">
          <mxGeometry x="290" y="410" width="230" height="90" as="geometry" />
        </mxCell>
        <mxCell id="yv1jg0gktLCmBM4Epeqx-22" value="МодельОшибокЗамеров" style="text;strokeColor=none;fillColor=none;align=left;verticalAlign=middle;spacingLeft=4;spacingRight=4;overflow=hidden;points=[[0,0.5],[1,0.5]];portConstraint=eastwest;rotatable=0;whiteSpace=wrap;html=1;" parent="yv1jg0gktLCmBM4Epeqx-21" vertex="1">
          <mxGeometry y="30" width="230" height="30" as="geometry" />
        </mxCell>
        <mxCell id="yv1jg0gktLCmBM4Epeqx-23" value="ПараметрыПредупреждениеСтолкновений" style="text;strokeColor=none;fillColor=none;align=left;verticalAlign=middle;spacingLeft=4;spacingRight=4;overflow=hidden;points=[[0,0.5],[1,0.5]];portConstraint=eastwest;rotatable=0;whiteSpace=wrap;html=1;" parent="yv1jg0gktLCmBM4Epeqx-21" vertex="1">
          <mxGeometry y="60" width="230" height="30" as="geometry" />
        </mxCell>
        <mxCell id="yv1jg0gktLCmBM4Epeqx-25" value="" style="edgeStyle=segmentEdgeStyle;endArrow=classic;html=1;curved=0;rounded=0;endSize=8;startSize=8;entryX=-0.009;entryY=0.178;entryDx=0;entryDy=0;entryPerimeter=0;exitX=1;exitY=0.5;exitDx=0;exitDy=0;" parent="1" source="yv1jg0gktLCmBM4Epeqx-15" target="yv1jg0gktLCmBM4Epeqx-21" edge="1">
          <mxGeometry width="50" height="50" relative="1" as="geometry">
            <mxPoint x="290" y="570" as="sourcePoint" />
            <mxPoint x="340" y="520" as="targetPoint" />
            <Array as="points">
              <mxPoint x="260" y="495" />
              <mxPoint x="260" y="426" />
            </Array>
          </mxGeometry>
        </mxCell>
        <mxCell id="yv1jg0gktLCmBM4Epeqx-26" value="МодельОшибокЗамеров" style="swimlane;fontStyle=0;childLayout=stackLayout;horizontal=1;startSize=30;horizontalStack=0;resizeParent=1;resizeParentMax=0;resizeLast=0;collapsible=1;marginBottom=0;whiteSpace=wrap;html=1;" parent="1" vertex="1">
          <mxGeometry x="650" y="280" width="370" height="110" as="geometry" />
        </mxCell>
        <mxCell id="yv1jg0gktLCmBM4Epeqx-27" value="&lt;font style=&quot;font-size: 12px;&quot;&gt;СистемаОшибок: &lt;span style=&quot;line-height: 150%; font-family: &amp;quot;Times New Roman&amp;quot;, serif;&quot; lang=&quot;EN-US&quot;&gt;string&lt;/span&gt;&lt;span style=&quot;line-height: 150%;&quot;&gt; (выбор из набора)&lt;/span&gt;&lt;/font&gt;" style="text;strokeColor=none;fillColor=none;align=left;verticalAlign=middle;spacingLeft=4;spacingRight=4;overflow=hidden;points=[[0,0.5],[1,0.5]];portConstraint=eastwest;rotatable=0;whiteSpace=wrap;html=1;" parent="yv1jg0gktLCmBM4Epeqx-26" vertex="1">
          <mxGeometry y="30" width="370" height="30" as="geometry" />
        </mxCell>
        <mxCell id="yv1jg0gktLCmBM4Epeqx-28" value="Входные ошибки для (сигма): &lt;span style=&quot;line-height: 150%; font-family: &amp;quot;Times New Roman&amp;quot;, serif;&quot; lang=&quot;EN-US&quot;&gt;&lt;font style=&quot;font-size: 12px;&quot;&gt;double&lt;/font&gt;&lt;/span&gt;&lt;span style=&quot;font-size:13.0pt;line-height:150%;&lt;br/&gt;font-family:&amp;quot;Times New Roman&amp;quot;,serif;mso-fareast-font-family:Calibri;mso-fareast-theme-font:&lt;br/&gt;minor-latin;mso-bidi-theme-font:minor-bidi;mso-ansi-language:RU;mso-fareast-language:&lt;br/&gt;EN-US;mso-bidi-language:AR-SA&quot; lang=&quot;EN-US&quot;&gt;&lt;/span&gt;" style="text;strokeColor=none;fillColor=none;align=left;verticalAlign=middle;spacingLeft=4;spacingRight=4;overflow=hidden;points=[[0,0.5],[1,0.5]];portConstraint=eastwest;rotatable=0;whiteSpace=wrap;html=1;" parent="yv1jg0gktLCmBM4Epeqx-26" vertex="1">
          <mxGeometry y="60" width="370" height="50" as="geometry" />
        </mxCell>
        <mxCell id="yv1jg0gktLCmBM4Epeqx-30" value="&lt;p class=&quot;MsoNormal&quot;&gt;&lt;b&gt;ПараметрыПредупреждениеСтолкновений&lt;/b&gt;&lt;/p&gt;" style="swimlane;fontStyle=0;childLayout=stackLayout;horizontal=1;startSize=30;horizontalStack=0;resizeParent=1;resizeParentMax=0;resizeLast=0;collapsible=1;marginBottom=0;whiteSpace=wrap;html=1;" parent="1" vertex="1">
          <mxGeometry x="640" y="485" width="390" height="250" as="geometry" />
        </mxCell>
        <mxCell id="yv1jg0gktLCmBM4Epeqx-31" value="МетодСканирования: &lt;span style=&quot;font-size:13.0pt;line-height:150%;font-family:&amp;quot;Times New Roman&amp;quot;,serif;&lt;br/&gt;mso-fareast-font-family:Calibri;mso-fareast-theme-font:minor-latin;mso-bidi-theme-font:&lt;br/&gt;minor-bidi;mso-ansi-language:EN-US;mso-fareast-language:EN-US;mso-bidi-language:&lt;br/&gt;AR-SA&quot; lang=&quot;EN-US&quot;&gt;string&amp;nbsp;&lt;/span&gt;&lt;span style=&quot;font-size:13.0pt;line-height:150%;&lt;br/&gt;font-family:&amp;quot;Times New Roman&amp;quot;,serif;mso-fareast-font-family:Calibri;mso-fareast-theme-font:&lt;br/&gt;minor-latin;mso-bidi-theme-font:minor-bidi;mso-ansi-language:RU;mso-fareast-language:&lt;br/&gt;EN-US;mso-bidi-language:AR-SA&quot; lang=&quot;EN-US&quot;&gt;&lt;/span&gt;(выбор)" style="text;strokeColor=none;fillColor=none;align=left;verticalAlign=middle;spacingLeft=4;spacingRight=4;overflow=hidden;points=[[0,0.5],[1,0.5]];portConstraint=eastwest;rotatable=0;whiteSpace=wrap;html=1;" parent="yv1jg0gktLCmBM4Epeqx-30" vertex="1">
          <mxGeometry y="30" width="390" height="30" as="geometry" />
        </mxCell>
        <mxCell id="yv1jg0gktLCmBM4Epeqx-32" value="ТипПредупреждения: &lt;span style=&quot;font-size:13.0pt;line-height:150%;font-family:&amp;quot;Times New Roman&amp;quot;,serif;&lt;br/&gt;mso-fareast-font-family:Calibri;mso-fareast-theme-font:minor-latin;mso-bidi-theme-font:&lt;br/&gt;minor-bidi;mso-ansi-language:EN-US;mso-fareast-language:EN-US;mso-bidi-language:&lt;br/&gt;AR-SA&quot; lang=&quot;EN-US&quot;&gt;string&amp;nbsp;&lt;/span&gt;&lt;span style=&quot;font-size:13.0pt;line-height:150%;&lt;br/&gt;font-family:&amp;quot;Times New Roman&amp;quot;,serif;mso-fareast-font-family:Calibri;mso-fareast-theme-font:&lt;br/&gt;minor-latin;mso-bidi-theme-font:minor-bidi;mso-ansi-language:RU;mso-fareast-language:&lt;br/&gt;EN-US;mso-bidi-language:AR-SA&quot; lang=&quot;EN-US&quot;&gt;&lt;/span&gt;(выбор)" style="text;strokeColor=none;fillColor=none;align=left;verticalAlign=middle;spacingLeft=4;spacingRight=4;overflow=hidden;points=[[0,0.5],[1,0.5]];portConstraint=eastwest;rotatable=0;whiteSpace=wrap;html=1;" parent="yv1jg0gktLCmBM4Epeqx-30" vertex="1">
          <mxGeometry y="60" width="390" height="30" as="geometry" />
        </mxCell>
        <mxCell id="yv1jg0gktLCmBM4Epeqx-33" value="ПоверхностьОшибок: &lt;span style=&quot;font-size:13.0pt;line-height:150%;font-family:&amp;quot;Times New Roman&amp;quot;,serif;&lt;br/&gt;mso-fareast-font-family:Calibri;mso-fareast-theme-font:minor-latin;mso-bidi-theme-font:&lt;br/&gt;minor-bidi;mso-ansi-language:EN-US;mso-fareast-language:EN-US;mso-bidi-language:&lt;br/&gt;AR-SA&quot; lang=&quot;EN-US&quot;&gt;string&lt;/span&gt;&lt;span style=&quot;font-size:13.0pt;line-height:150%;font-family:&lt;br/&gt;&amp;quot;Times New Roman&amp;quot;,serif;mso-fareast-font-family:Calibri;mso-fareast-theme-font:&lt;br/&gt;minor-latin;mso-bidi-theme-font:minor-bidi;mso-ansi-language:RU;mso-fareast-language:&lt;br/&gt;EN-US;mso-bidi-language:AR-SA&quot;&gt; (выбор)&amp;nbsp;&lt;/span&gt;" style="text;strokeColor=none;fillColor=none;align=left;verticalAlign=middle;spacingLeft=4;spacingRight=4;overflow=hidden;points=[[0,0.5],[1,0.5]];portConstraint=eastwest;rotatable=0;whiteSpace=wrap;html=1;" parent="yv1jg0gktLCmBM4Epeqx-30" vertex="1">
          <mxGeometry y="90" width="390" height="30" as="geometry" />
        </mxCell>
        <mxCell id="yv1jg0gktLCmBM4Epeqx-34" value="&lt;p class=&quot;MsoNormal&quot;&gt;ОбсадныеКолонны: ОбсадныеКолонныEnum&lt;/p&gt;" style="text;strokeColor=none;fillColor=none;align=left;verticalAlign=middle;spacingLeft=4;spacingRight=4;overflow=hidden;points=[[0,0.5],[1,0.5]];portConstraint=eastwest;rotatable=0;whiteSpace=wrap;html=1;" parent="yv1jg0gktLCmBM4Epeqx-30" vertex="1">
          <mxGeometry y="120" width="390" height="30" as="geometry" />
        </mxCell>
        <mxCell id="yv1jg0gktLCmBM4Epeqx-36" value="&lt;p class=&quot;MsoNormal&quot;&gt;УровниИПравилаПреудпреждения: &lt;span style=&quot;line-height: 150%; font-family: &amp;quot;Times New Roman&amp;quot;, serif;&quot; lang=&quot;EN-US&quot;&gt;List&lt;/span&gt;&lt;span style=&quot;line-height: 150%;&quot;&gt;&amp;lt; Правило&amp;gt;&lt;/span&gt;&lt;br&gt;&lt;/p&gt;" style="text;strokeColor=none;fillColor=none;align=left;verticalAlign=middle;spacingLeft=4;spacingRight=4;overflow=hidden;points=[[0,0.5],[1,0.5]];portConstraint=eastwest;rotatable=0;whiteSpace=wrap;html=1;" parent="yv1jg0gktLCmBM4Epeqx-30" vertex="1">
          <mxGeometry y="150" width="390" height="50" as="geometry" />
        </mxCell>
        <mxCell id="yv1jg0gktLCmBM4Epeqx-49" value="&lt;p class=&quot;MsoNormal&quot;&gt;Уровни предупреждения оцениваются для: double&lt;/p&gt;" style="text;strokeColor=none;fillColor=none;align=left;verticalAlign=middle;spacingLeft=4;spacingRight=4;overflow=hidden;points=[[0,0.5],[1,0.5]];portConstraint=eastwest;rotatable=0;whiteSpace=wrap;html=1;" parent="yv1jg0gktLCmBM4Epeqx-30" vertex="1">
          <mxGeometry y="200" width="390" height="50" as="geometry" />
        </mxCell>
        <mxCell id="yv1jg0gktLCmBM4Epeqx-35" value="" style="edgeStyle=segmentEdgeStyle;endArrow=classic;html=1;curved=0;rounded=0;endSize=8;startSize=8;exitX=1;exitY=0.5;exitDx=0;exitDy=0;entryX=0;entryY=0.164;entryDx=0;entryDy=0;entryPerimeter=0;" parent="1" source="yv1jg0gktLCmBM4Epeqx-22" target="yv1jg0gktLCmBM4Epeqx-26" edge="1">
          <mxGeometry width="50" height="50" relative="1" as="geometry">
            <mxPoint x="530" y="454.91" as="sourcePoint" />
            <mxPoint x="550" y="310" as="targetPoint" />
            <Array as="points">
              <mxPoint x="580" y="455" />
              <mxPoint x="580" y="298" />
            </Array>
          </mxGeometry>
        </mxCell>
        <mxCell id="yv1jg0gktLCmBM4Epeqx-37" value="" style="edgeStyle=segmentEdgeStyle;endArrow=classic;html=1;curved=0;rounded=0;endSize=8;startSize=8;exitX=1;exitY=0.5;exitDx=0;exitDy=0;entryX=-0.004;entryY=0.072;entryDx=0;entryDy=0;entryPerimeter=0;" parent="1" source="yv1jg0gktLCmBM4Epeqx-23" target="yv1jg0gktLCmBM4Epeqx-30" edge="1">
          <mxGeometry width="50" height="50" relative="1" as="geometry">
            <mxPoint x="530" y="750" as="sourcePoint" />
            <mxPoint x="590" y="720" as="targetPoint" />
            <Array as="points">
              <mxPoint x="560" y="485" />
              <mxPoint x="560" y="503" />
            </Array>
          </mxGeometry>
        </mxCell>
        <mxCell id="yv1jg0gktLCmBM4Epeqx-38" value="&lt;b&gt;ОбсадныеКолонныEnum&lt;/b&gt;" style="swimlane;fontStyle=0;childLayout=stackLayout;horizontal=1;startSize=30;horizontalStack=0;resizeParent=1;resizeParentMax=0;resizeLast=0;collapsible=1;marginBottom=0;whiteSpace=wrap;html=1;" parent="1" vertex="1">
          <mxGeometry x="1320" y="585" width="180" height="150" as="geometry" />
        </mxCell>
        <mxCell id="yv1jg0gktLCmBM4Epeqx-39" value="Нет" style="text;strokeColor=none;fillColor=none;align=left;verticalAlign=middle;spacingLeft=4;spacingRight=4;overflow=hidden;points=[[0,0.5],[1,0.5]];portConstraint=eastwest;rotatable=0;whiteSpace=wrap;html=1;" parent="yv1jg0gktLCmBM4Epeqx-38" vertex="1">
          <mxGeometry y="30" width="180" height="30" as="geometry" />
        </mxCell>
        <mxCell id="yv1jg0gktLCmBM4Epeqx-40" value="Добавлять" style="text;strokeColor=none;fillColor=none;align=left;verticalAlign=middle;spacingLeft=4;spacingRight=4;overflow=hidden;points=[[0,0.5],[1,0.5]];portConstraint=eastwest;rotatable=0;whiteSpace=wrap;html=1;" parent="yv1jg0gktLCmBM4Epeqx-38" vertex="1">
          <mxGeometry y="60" width="180" height="30" as="geometry" />
        </mxCell>
        <mxCell id="yv1jg0gktLCmBM4Epeqx-41" value="Вычитать" style="text;strokeColor=none;fillColor=none;align=left;verticalAlign=middle;spacingLeft=4;spacingRight=4;overflow=hidden;points=[[0,0.5],[1,0.5]];portConstraint=eastwest;rotatable=0;whiteSpace=wrap;html=1;" parent="yv1jg0gktLCmBM4Epeqx-38" vertex="1">
          <mxGeometry y="90" width="180" height="30" as="geometry" />
        </mxCell>
        <mxCell id="yv1jg0gktLCmBM4Epeqx-42" value="&lt;p class=&quot;MsoNormal&quot;&gt;ЧерезРадиусСтвола&lt;/p&gt;" style="text;strokeColor=none;fillColor=none;align=left;verticalAlign=middle;spacingLeft=4;spacingRight=4;overflow=hidden;points=[[0,0.5],[1,0.5]];portConstraint=eastwest;rotatable=0;whiteSpace=wrap;html=1;" parent="yv1jg0gktLCmBM4Epeqx-38" vertex="1">
          <mxGeometry y="120" width="180" height="30" as="geometry" />
        </mxCell>
        <mxCell id="yv1jg0gktLCmBM4Epeqx-44" value="&lt;p class=&quot;MsoNormal&quot;&gt;&lt;b&gt;Правило&lt;/b&gt;&lt;/p&gt;" style="swimlane;fontStyle=0;childLayout=stackLayout;horizontal=1;startSize=30;horizontalStack=0;resizeParent=1;resizeParentMax=0;resizeLast=0;collapsible=1;marginBottom=0;whiteSpace=wrap;html=1;" parent="1" vertex="1">
          <mxGeometry x="1311" y="760" width="180" height="150" as="geometry" />
        </mxCell>
        <mxCell id="yv1jg0gktLCmBM4Epeqx-45" value="&lt;p class=&quot;MsoNormal&quot;&gt;Название string&lt;/p&gt;" style="text;strokeColor=none;fillColor=none;align=left;verticalAlign=middle;spacingLeft=4;spacingRight=4;overflow=hidden;points=[[0,0.5],[1,0.5]];portConstraint=eastwest;rotatable=0;whiteSpace=wrap;html=1;" parent="yv1jg0gktLCmBM4Epeqx-44" vertex="1">
          <mxGeometry y="30" width="180" height="30" as="geometry" />
        </mxCell>
        <mxCell id="yv1jg0gktLCmBM4Epeqx-46" value="&lt;p class=&quot;MsoNormal&quot;&gt;Тип: string&lt;/p&gt;" style="text;strokeColor=none;fillColor=none;align=left;verticalAlign=middle;spacingLeft=4;spacingRight=4;overflow=hidden;points=[[0,0.5],[1,0.5]];portConstraint=eastwest;rotatable=0;whiteSpace=wrap;html=1;" parent="yv1jg0gktLCmBM4Epeqx-44" vertex="1">
          <mxGeometry y="60" width="180" height="30" as="geometry" />
        </mxCell>
        <mxCell id="yv1jg0gktLCmBM4Epeqx-47" value="&lt;p class=&quot;MsoNormal&quot;&gt;Достоверность: double&lt;/p&gt;" style="text;strokeColor=none;fillColor=none;align=left;verticalAlign=middle;spacingLeft=4;spacingRight=4;overflow=hidden;points=[[0,0.5],[1,0.5]];portConstraint=eastwest;rotatable=0;whiteSpace=wrap;html=1;" parent="yv1jg0gktLCmBM4Epeqx-44" vertex="1">
          <mxGeometry y="90" width="180" height="30" as="geometry" />
        </mxCell>
        <mxCell id="yv1jg0gktLCmBM4Epeqx-48" value="&lt;p class=&quot;MsoNormal&quot;&gt;Максимальный радиус: double&lt;/p&gt;" style="text;strokeColor=none;fillColor=none;align=left;verticalAlign=middle;spacingLeft=4;spacingRight=4;overflow=hidden;points=[[0,0.5],[1,0.5]];portConstraint=eastwest;rotatable=0;whiteSpace=wrap;html=1;" parent="yv1jg0gktLCmBM4Epeqx-44" vertex="1">
          <mxGeometry y="120" width="180" height="30" as="geometry" />
        </mxCell>
        <mxCell id="yv1jg0gktLCmBM4Epeqx-50" value="" style="edgeStyle=segmentEdgeStyle;endArrow=classic;html=1;curved=0;rounded=0;endSize=8;startSize=8;entryX=-0.013;entryY=0.099;entryDx=0;entryDy=0;entryPerimeter=0;exitX=1;exitY=0.5;exitDx=0;exitDy=0;" parent="1" source="yv1jg0gktLCmBM4Epeqx-36" target="yv1jg0gktLCmBM4Epeqx-44" edge="1">
          <mxGeometry width="50" height="50" relative="1" as="geometry">
            <mxPoint x="1050" y="1030" as="sourcePoint" />
            <mxPoint x="1100" y="980" as="targetPoint" />
            <Array as="points">
              <mxPoint x="1080" y="660" />
              <mxPoint x="1080" y="775" />
            </Array>
          </mxGeometry>
        </mxCell>
        <mxCell id="yv1jg0gktLCmBM4Epeqx-51" value="" style="edgeStyle=segmentEdgeStyle;endArrow=classic;html=1;curved=0;rounded=0;endSize=8;startSize=8;exitX=1;exitY=0.5;exitDx=0;exitDy=0;entryX=-0.027;entryY=0.103;entryDx=0;entryDy=0;entryPerimeter=0;" parent="1" source="yv1jg0gktLCmBM4Epeqx-34" target="yv1jg0gktLCmBM4Epeqx-38" edge="1">
          <mxGeometry width="50" height="50" relative="1" as="geometry">
            <mxPoint x="1050" y="630" as="sourcePoint" />
            <mxPoint x="1100" y="580" as="targetPoint" />
            <Array as="points">
              <mxPoint x="1120" y="620" />
              <mxPoint x="1120" y="601" />
            </Array>
          </mxGeometry>
        </mxCell>
        <mxCell id="yv1jg0gktLCmBM4Epeqx-53" value="&lt;p class=&quot;MsoNormal&quot;&gt;ПараметрыВычисленийПоУмолчанию&lt;br&gt;&lt;/p&gt;" style="swimlane;fontStyle=0;childLayout=stackLayout;horizontal=1;startSize=30;horizontalStack=0;resizeParent=1;resizeParentMax=0;resizeLast=0;collapsible=1;marginBottom=0;whiteSpace=wrap;html=1;" parent="1" vertex="1">
          <mxGeometry x="760" y="900" width="320" height="120" as="geometry" />
        </mxCell>
        <mxCell id="yv1jg0gktLCmBM4Epeqx-54" value="МетодРасчетаЗамеров : string (выбор)" style="text;strokeColor=none;fillColor=none;align=left;verticalAlign=middle;spacingLeft=4;spacingRight=4;overflow=hidden;points=[[0,0.5],[1,0.5]];portConstraint=eastwest;rotatable=0;whiteSpace=wrap;html=1;" parent="yv1jg0gktLCmBM4Epeqx-53" vertex="1">
          <mxGeometry y="30" width="320" height="30" as="geometry" />
        </mxCell>
        <mxCell id="yv1jg0gktLCmBM4Epeqx-55" value="НачалоВертикальногоРазреза : НачалоРазрезаEnum" style="text;strokeColor=none;fillColor=none;align=left;verticalAlign=middle;spacingLeft=4;spacingRight=4;overflow=hidden;points=[[0,0.5],[1,0.5]];portConstraint=eastwest;rotatable=0;whiteSpace=wrap;html=1;" parent="yv1jg0gktLCmBM4Epeqx-53" vertex="1">
          <mxGeometry y="60" width="320" height="30" as="geometry" />
        </mxCell>
        <mxCell id="yv1jg0gktLCmBM4Epeqx-56" value="ИнтенсивностьИзмененияАзимута:ИнтенсивностьEnum" style="text;strokeColor=none;fillColor=none;align=left;verticalAlign=middle;spacingLeft=4;spacingRight=4;overflow=hidden;points=[[0,0.5],[1,0.5]];portConstraint=eastwest;rotatable=0;whiteSpace=wrap;html=1;" parent="yv1jg0gktLCmBM4Epeqx-53" vertex="1">
          <mxGeometry y="90" width="320" height="30" as="geometry" />
        </mxCell>
        <mxCell id="yv1jg0gktLCmBM4Epeqx-57" value="&lt;p class=&quot;MsoNormal&quot;&gt;ПараметрыВычислений&lt;br&gt;&lt;/p&gt;" style="swimlane;fontStyle=0;childLayout=stackLayout;horizontal=1;startSize=30;horizontalStack=0;resizeParent=1;resizeParentMax=0;resizeLast=0;collapsible=1;marginBottom=0;whiteSpace=wrap;html=1;" parent="1" vertex="1">
          <mxGeometry x="350" y="820" width="280" height="150" as="geometry" />
        </mxCell>
        <mxCell id="yv1jg0gktLCmBM4Epeqx-58" value="ПараметрыВычисленийПоУмолчанию" style="text;strokeColor=none;fillColor=none;align=left;verticalAlign=middle;spacingLeft=4;spacingRight=4;overflow=hidden;points=[[0,0.5],[1,0.5]];portConstraint=eastwest;rotatable=0;whiteSpace=wrap;html=1;" parent="yv1jg0gktLCmBM4Epeqx-57" vertex="1">
          <mxGeometry y="30" width="280" height="30" as="geometry" />
        </mxCell>
        <mxCell id="yv1jg0gktLCmBM4Epeqx-59" value="ПоверкаДанных" style="text;strokeColor=none;fillColor=none;align=left;verticalAlign=middle;spacingLeft=4;spacingRight=4;overflow=hidden;points=[[0,0.5],[1,0.5]];portConstraint=eastwest;rotatable=0;whiteSpace=wrap;html=1;" parent="yv1jg0gktLCmBM4Epeqx-57" vertex="1">
          <mxGeometry y="60" width="280" height="30" as="geometry" />
        </mxCell>
        <mxCell id="yv1jg0gktLCmBM4Epeqx-75" value="=====Actions=========" style="text;strokeColor=none;fillColor=none;align=left;verticalAlign=middle;spacingLeft=4;spacingRight=4;overflow=hidden;points=[[0,0.5],[1,0.5]];portConstraint=eastwest;rotatable=0;whiteSpace=wrap;html=1;" parent="yv1jg0gktLCmBM4Epeqx-57" vertex="1">
          <mxGeometry y="90" width="280" height="30" as="geometry" />
        </mxCell>
        <mxCell id="yv1jg0gktLCmBM4Epeqx-76" value="СоздатьНовоеМесторождение(это кнопка ОК)" style="text;strokeColor=none;fillColor=none;align=left;verticalAlign=middle;spacingLeft=4;spacingRight=4;overflow=hidden;points=[[0,0.5],[1,0.5]];portConstraint=eastwest;rotatable=0;whiteSpace=wrap;html=1;" parent="yv1jg0gktLCmBM4Epeqx-57" vertex="1">
          <mxGeometry y="120" width="280" height="30" as="geometry" />
        </mxCell>
        <mxCell id="yv1jg0gktLCmBM4Epeqx-64" value="" style="edgeStyle=segmentEdgeStyle;endArrow=classic;html=1;curved=0;rounded=0;endSize=8;startSize=8;exitX=1;exitY=0.5;exitDx=0;exitDy=0;entryX=-0.004;entryY=0.134;entryDx=0;entryDy=0;entryPerimeter=0;" parent="1" source="yv1jg0gktLCmBM4Epeqx-58" target="yv1jg0gktLCmBM4Epeqx-53" edge="1">
          <mxGeometry width="50" height="50" relative="1" as="geometry">
            <mxPoint x="570" y="870" as="sourcePoint" />
            <mxPoint x="620" y="820" as="targetPoint" />
            <Array as="points">
              <mxPoint x="720" y="865" />
              <mxPoint x="720" y="916" />
            </Array>
          </mxGeometry>
        </mxCell>
        <mxCell id="yv1jg0gktLCmBM4Epeqx-67" value="" style="edgeStyle=segmentEdgeStyle;endArrow=classic;html=1;curved=0;rounded=0;endSize=8;startSize=8;exitX=1;exitY=0.5;exitDx=0;exitDy=0;" parent="1" source="yv1jg0gktLCmBM4Epeqx-52" target="yv1jg0gktLCmBM4Epeqx-57" edge="1">
          <mxGeometry width="50" height="50" relative="1" as="geometry">
            <mxPoint x="280" y="630" as="sourcePoint" />
            <mxPoint x="330" y="580" as="targetPoint" />
          </mxGeometry>
        </mxCell>
        <mxCell id="yv1jg0gktLCmBM4Epeqx-68" value="&lt;p class=&quot;MsoNormal&quot;&gt;ПоверкаДанных&lt;br&gt;&lt;/p&gt;" style="swimlane;fontStyle=0;childLayout=stackLayout;horizontal=1;startSize=30;horizontalStack=0;resizeParent=1;resizeParentMax=0;resizeLast=0;collapsible=1;marginBottom=0;whiteSpace=wrap;html=1;" parent="1" vertex="1">
          <mxGeometry x="810" y="1110" width="280" height="180" as="geometry" />
        </mxCell>
        <mxCell id="yv1jg0gktLCmBM4Epeqx-69" value="Месторождение : string (выбор)" style="text;strokeColor=none;fillColor=none;align=left;verticalAlign=middle;spacingLeft=4;spacingRight=4;overflow=hidden;points=[[0,0.5],[1,0.5]];portConstraint=eastwest;rotatable=0;whiteSpace=wrap;html=1;" parent="yv1jg0gktLCmBM4Epeqx-68" vertex="1">
          <mxGeometry y="30" width="280" height="30" as="geometry" />
        </mxCell>
        <mxCell id="yv1jg0gktLCmBM4Epeqx-70" value="Планы: ПланыEnum" style="text;strokeColor=none;fillColor=none;align=left;verticalAlign=middle;spacingLeft=4;spacingRight=4;overflow=hidden;points=[[0,0.5],[1,0.5]];portConstraint=eastwest;rotatable=0;whiteSpace=wrap;html=1;" parent="yv1jg0gktLCmBM4Epeqx-68" vertex="1">
          <mxGeometry y="60" width="280" height="30" as="geometry" />
        </mxCell>
        <mxCell id="yv1jg0gktLCmBM4Epeqx-71" value="=====Actions=========" style="text;strokeColor=none;fillColor=none;align=left;verticalAlign=middle;spacingLeft=4;spacingRight=4;overflow=hidden;points=[[0,0.5],[1,0.5]];portConstraint=eastwest;rotatable=0;whiteSpace=wrap;html=1;" parent="yv1jg0gktLCmBM4Epeqx-68" vertex="1">
          <mxGeometry y="90" width="280" height="30" as="geometry" />
        </mxCell>
        <mxCell id="yv1jg0gktLCmBM4Epeqx-72" value="СоздатьФайлСкважин" style="text;strokeColor=none;fillColor=none;align=left;verticalAlign=middle;spacingLeft=4;spacingRight=4;overflow=hidden;points=[[0,0.5],[1,0.5]];portConstraint=eastwest;rotatable=0;whiteSpace=wrap;html=1;" parent="yv1jg0gktLCmBM4Epeqx-68" vertex="1">
          <mxGeometry y="120" width="280" height="30" as="geometry" />
        </mxCell>
        <mxCell id="yv1jg0gktLCmBM4Epeqx-73" value="Рассчитать ВсеПланы" style="text;strokeColor=none;fillColor=none;align=left;verticalAlign=middle;spacingLeft=4;spacingRight=4;overflow=hidden;points=[[0,0.5],[1,0.5]];portConstraint=eastwest;rotatable=0;whiteSpace=wrap;html=1;" parent="yv1jg0gktLCmBM4Epeqx-68" vertex="1">
          <mxGeometry y="150" width="280" height="30" as="geometry" />
        </mxCell>
        <mxCell id="yv1jg0gktLCmBM4Epeqx-74" value="" style="edgeStyle=segmentEdgeStyle;endArrow=classic;html=1;curved=0;rounded=0;endSize=8;startSize=8;exitX=1;exitY=0.5;exitDx=0;exitDy=0;entryX=-0.013;entryY=0.115;entryDx=0;entryDy=0;entryPerimeter=0;" parent="1" source="yv1jg0gktLCmBM4Epeqx-59" target="yv1jg0gktLCmBM4Epeqx-68" edge="1">
          <mxGeometry width="50" height="50" relative="1" as="geometry">
            <mxPoint x="640" y="1170" as="sourcePoint" />
            <mxPoint x="690" y="1120" as="targetPoint" />
            <Array as="points">
              <mxPoint x="660" y="895" />
              <mxPoint x="660" y="1131" />
            </Array>
          </mxGeometry>
        </mxCell>
        <mxCell id="yv1jg0gktLCmBM4Epeqx-77" value="НачалоРазрезаEnum" style="swimlane;fontStyle=0;childLayout=stackLayout;horizontal=1;startSize=30;horizontalStack=0;resizeParent=1;resizeParentMax=0;resizeLast=0;collapsible=1;marginBottom=0;whiteSpace=wrap;html=1;" parent="1" vertex="1">
          <mxGeometry x="1150" y="890" width="140" height="90" as="geometry" />
        </mxCell>
        <mxCell id="yv1jg0gktLCmBM4Epeqx-78" value="Слот" style="text;strokeColor=none;fillColor=none;align=left;verticalAlign=middle;spacingLeft=4;spacingRight=4;overflow=hidden;points=[[0,0.5],[1,0.5]];portConstraint=eastwest;rotatable=0;whiteSpace=wrap;html=1;" parent="yv1jg0gktLCmBM4Epeqx-77" vertex="1">
          <mxGeometry y="30" width="140" height="30" as="geometry" />
        </mxCell>
        <mxCell id="yv1jg0gktLCmBM4Epeqx-79" value="Куст" style="text;strokeColor=none;fillColor=none;align=left;verticalAlign=middle;spacingLeft=4;spacingRight=4;overflow=hidden;points=[[0,0.5],[1,0.5]];portConstraint=eastwest;rotatable=0;whiteSpace=wrap;html=1;" parent="yv1jg0gktLCmBM4Epeqx-77" vertex="1">
          <mxGeometry y="60" width="140" height="30" as="geometry" />
        </mxCell>
        <mxCell id="yv1jg0gktLCmBM4Epeqx-81" value="ПланыEnum" style="swimlane;fontStyle=0;childLayout=stackLayout;horizontal=1;startSize=30;horizontalStack=0;resizeParent=1;resizeParentMax=0;resizeLast=0;collapsible=1;marginBottom=0;whiteSpace=wrap;html=1;" parent="1" vertex="1">
          <mxGeometry x="1290" y="1180" width="180" height="150" as="geometry" />
        </mxCell>
        <mxCell id="yv1jg0gktLCmBM4Epeqx-82" value="Фактически" style="text;strokeColor=none;fillColor=none;align=left;verticalAlign=middle;spacingLeft=4;spacingRight=4;overflow=hidden;points=[[0,0.5],[1,0.5]];portConstraint=eastwest;rotatable=0;whiteSpace=wrap;html=1;" parent="yv1jg0gktLCmBM4Epeqx-81" vertex="1">
          <mxGeometry y="30" width="180" height="30" as="geometry" />
        </mxCell>
        <mxCell id="yv1jg0gktLCmBM4Epeqx-83" value="УтвержденныеИПрототипы" style="text;strokeColor=none;fillColor=none;align=left;verticalAlign=middle;spacingLeft=4;spacingRight=4;overflow=hidden;points=[[0,0.5],[1,0.5]];portConstraint=eastwest;rotatable=0;whiteSpace=wrap;html=1;" parent="yv1jg0gktLCmBM4Epeqx-81" vertex="1">
          <mxGeometry y="60" width="180" height="30" as="geometry" />
        </mxCell>
        <mxCell id="yv1jg0gktLCmBM4Epeqx-84" value="Все" style="text;strokeColor=none;fillColor=none;align=left;verticalAlign=middle;spacingLeft=4;spacingRight=4;overflow=hidden;points=[[0,0.5],[1,0.5]];portConstraint=eastwest;rotatable=0;whiteSpace=wrap;html=1;" parent="yv1jg0gktLCmBM4Epeqx-81" vertex="1">
          <mxGeometry y="90" width="180" height="30" as="geometry" />
        </mxCell>
        <mxCell id="yv1jg0gktLCmBM4Epeqx-85" value="Последние" style="text;strokeColor=none;fillColor=none;align=left;verticalAlign=middle;spacingLeft=4;spacingRight=4;overflow=hidden;points=[[0,0.5],[1,0.5]];portConstraint=eastwest;rotatable=0;whiteSpace=wrap;html=1;" parent="yv1jg0gktLCmBM4Epeqx-81" vertex="1">
          <mxGeometry y="120" width="180" height="30" as="geometry" />
        </mxCell>
        <mxCell id="yv1jg0gktLCmBM4Epeqx-86" value="ИнтенсивностьEnum" style="swimlane;fontStyle=0;childLayout=stackLayout;horizontal=1;startSize=30;horizontalStack=0;resizeParent=1;resizeParentMax=0;resizeLast=0;collapsible=1;marginBottom=0;whiteSpace=wrap;html=1;" parent="1" vertex="1">
          <mxGeometry x="1160" y="1010" width="140" height="90" as="geometry" />
        </mxCell>
        <mxCell id="yv1jg0gktLCmBM4Epeqx-87" value="ГлубинаПоСтволу" style="text;strokeColor=none;fillColor=none;align=left;verticalAlign=middle;spacingLeft=4;spacingRight=4;overflow=hidden;points=[[0,0.5],[1,0.5]];portConstraint=eastwest;rotatable=0;whiteSpace=wrap;html=1;" parent="yv1jg0gktLCmBM4Epeqx-86" vertex="1">
          <mxGeometry y="30" width="140" height="30" as="geometry" />
        </mxCell>
        <mxCell id="yv1jg0gktLCmBM4Epeqx-88" value="Куст" style="text;strokeColor=none;fillColor=none;align=left;verticalAlign=middle;spacingLeft=4;spacingRight=4;overflow=hidden;points=[[0,0.5],[1,0.5]];portConstraint=eastwest;rotatable=0;whiteSpace=wrap;html=1;" parent="yv1jg0gktLCmBM4Epeqx-86" vertex="1">
          <mxGeometry y="60" width="140" height="30" as="geometry" />
        </mxCell>
        <mxCell id="yv1jg0gktLCmBM4Epeqx-89" value="" style="edgeStyle=segmentEdgeStyle;endArrow=classic;html=1;curved=0;rounded=0;endSize=8;startSize=8;exitX=1;exitY=0.5;exitDx=0;exitDy=0;entryX=0;entryY=0.25;entryDx=0;entryDy=0;" parent="1" source="yv1jg0gktLCmBM4Epeqx-55" target="yv1jg0gktLCmBM4Epeqx-77" edge="1">
          <mxGeometry width="50" height="50" relative="1" as="geometry">
            <mxPoint x="1110" y="880" as="sourcePoint" />
            <mxPoint x="1160" y="830" as="targetPoint" />
            <Array as="points">
              <mxPoint x="1110" y="975" />
              <mxPoint x="1110" y="912" />
            </Array>
          </mxGeometry>
        </mxCell>
        <mxCell id="yv1jg0gktLCmBM4Epeqx-90" value="" style="edgeStyle=segmentEdgeStyle;endArrow=classic;html=1;curved=0;rounded=0;endSize=8;startSize=8;entryX=0;entryY=0.111;entryDx=0;entryDy=0;exitX=1;exitY=0.5;exitDx=0;exitDy=0;entryPerimeter=0;" parent="1" source="yv1jg0gktLCmBM4Epeqx-56" target="yv1jg0gktLCmBM4Epeqx-86" edge="1">
          <mxGeometry width="50" height="50" relative="1" as="geometry">
            <mxPoint x="1090" y="1050" as="sourcePoint" />
            <mxPoint x="1140" y="1020" as="targetPoint" />
            <Array as="points">
              <mxPoint x="1130" y="1005" />
              <mxPoint x="1130" y="1020" />
            </Array>
          </mxGeometry>
        </mxCell>
        <mxCell id="yv1jg0gktLCmBM4Epeqx-91" value="" style="edgeStyle=segmentEdgeStyle;endArrow=classic;html=1;curved=0;rounded=0;endSize=8;startSize=8;exitX=1;exitY=0.5;exitDx=0;exitDy=0;entryX=-0.008;entryY=0.155;entryDx=0;entryDy=0;entryPerimeter=0;" parent="1" source="yv1jg0gktLCmBM4Epeqx-70" target="yv1jg0gktLCmBM4Epeqx-81" edge="1">
          <mxGeometry width="50" height="50" relative="1" as="geometry">
            <mxPoint x="1060" y="1260" as="sourcePoint" />
            <mxPoint x="1150" y="1290" as="targetPoint" />
            <Array as="points">
              <mxPoint x="1220" y="1185" />
              <mxPoint x="1220" y="1203" />
            </Array>
          </mxGeometry>
        </mxCell>
        <mxCell id="yv1jg0gktLCmBM4Epeqx-93" value="Месторождение" style="swimlane;fontStyle=0;childLayout=stackLayout;horizontal=1;startSize=30;horizontalStack=0;resizeParent=1;resizeParentMax=0;resizeLast=0;collapsible=1;marginBottom=0;whiteSpace=wrap;html=1;" parent="1" vertex="1">
          <mxGeometry x="-390" y="315" width="190" height="480" as="geometry">
            <mxRectangle x="150" y="270" width="100" height="30" as="alternateBounds" />
          </mxGeometry>
        </mxCell>
        <mxCell id="yv1jg0gktLCmBM4Epeqx-94" value="&lt;p class=&quot;MsoNormal&quot;&gt;Название string&lt;/p&gt;" style="text;strokeColor=none;fillColor=none;align=left;verticalAlign=middle;spacingLeft=4;spacingRight=4;overflow=hidden;points=[[0,0.5],[1,0.5]];portConstraint=eastwest;rotatable=0;whiteSpace=wrap;html=1;" parent="yv1jg0gktLCmBM4Epeqx-93" vertex="1">
          <mxGeometry y="30" width="190" height="30" as="geometry" />
        </mxCell>
        <mxCell id="yv1jg0gktLCmBM4Epeqx-95" value="&lt;p class=&quot;MsoNormal&quot;&gt;МестоположениеСтрока string&lt;/p&gt;" style="text;strokeColor=none;fillColor=none;align=left;verticalAlign=middle;spacingLeft=4;spacingRight=4;overflow=hidden;points=[[0,0.5],[1,0.5]];portConstraint=eastwest;rotatable=0;whiteSpace=wrap;html=1;" parent="yv1jg0gktLCmBM4Epeqx-93" vertex="1">
          <mxGeometry y="60" width="190" height="30" as="geometry" />
        </mxCell>
        <mxCell id="yv1jg0gktLCmBM4Epeqx-96" value="&lt;p class=&quot;MsoNormal&quot;&gt;Описание: string&lt;/p&gt;" style="text;strokeColor=none;fillColor=none;align=left;verticalAlign=middle;spacingLeft=4;spacingRight=4;overflow=hidden;points=[[0,0.5],[1,0.5]];portConstraint=eastwest;rotatable=0;whiteSpace=wrap;html=1;" parent="yv1jg0gktLCmBM4Epeqx-93" vertex="1">
          <mxGeometry y="90" width="190" height="30" as="geometry" />
        </mxCell>
        <mxCell id="yv1jg0gktLCmBM4Epeqx-97" value="&lt;p class=&quot;MsoNormal&quot;&gt;СистемныйУровеньПриведения&lt;/p&gt;" style="text;strokeColor=none;fillColor=none;align=left;verticalAlign=middle;spacingLeft=4;spacingRight=4;overflow=hidden;points=[[0,0.5],[1,0.5]];portConstraint=eastwest;rotatable=0;whiteSpace=wrap;html=1;" parent="yv1jg0gktLCmBM4Epeqx-93" vertex="1">
          <mxGeometry y="120" width="190" height="30" as="geometry" />
        </mxCell>
        <mxCell id="yv1jg0gktLCmBM4Epeqx-98" value="ЛокалБезопасность" style="text;strokeColor=none;fillColor=none;align=left;verticalAlign=middle;spacingLeft=4;spacingRight=4;overflow=hidden;points=[[0,0.5],[1,0.5]];portConstraint=eastwest;rotatable=0;whiteSpace=wrap;html=1;" parent="yv1jg0gktLCmBM4Epeqx-93" vertex="1">
          <mxGeometry y="150" width="190" height="30" as="geometry" />
        </mxCell>
        <mxCell id="yv1jg0gktLCmBM4Epeqx-99" value="ПривязкаЗамеров" style="text;strokeColor=none;fillColor=none;align=left;verticalAlign=middle;spacingLeft=4;spacingRight=4;overflow=hidden;points=[[0,0.5],[1,0.5]];portConstraint=eastwest;rotatable=0;whiteSpace=wrap;html=1;" parent="yv1jg0gktLCmBM4Epeqx-93" vertex="1">
          <mxGeometry y="180" width="190" height="30" as="geometry" />
        </mxCell>
        <mxCell id="yv1jg0gktLCmBM4Epeqx-100" value="Заблокирована : bool" style="text;strokeColor=none;fillColor=none;align=left;verticalAlign=middle;spacingLeft=4;spacingRight=4;overflow=hidden;points=[[0,0.5],[1,0.5]];portConstraint=eastwest;rotatable=0;whiteSpace=wrap;html=1;" parent="yv1jg0gktLCmBM4Epeqx-93" vertex="1">
          <mxGeometry y="210" width="190" height="30" as="geometry" />
        </mxCell>
        <mxCell id="yv1jg0gktLCmBM4Epeqx-101" value="СистемаЕдиниц" style="text;strokeColor=none;fillColor=none;align=left;verticalAlign=middle;spacingLeft=4;spacingRight=4;overflow=hidden;points=[[0,0.5],[1,0.5]];portConstraint=eastwest;rotatable=0;whiteSpace=wrap;html=1;" parent="yv1jg0gktLCmBM4Epeqx-93" vertex="1">
          <mxGeometry y="240" width="190" height="30" as="geometry" />
        </mxCell>
        <mxCell id="yv1jg0gktLCmBM4Epeqx-102" value="ИнформацияОКарте" style="text;strokeColor=none;fillColor=none;align=left;verticalAlign=middle;spacingLeft=4;spacingRight=4;overflow=hidden;points=[[0,0.5],[1,0.5]];portConstraint=eastwest;rotatable=0;whiteSpace=wrap;html=1;" parent="yv1jg0gktLCmBM4Epeqx-93" vertex="1">
          <mxGeometry y="270" width="190" height="30" as="geometry" />
        </mxCell>
        <mxCell id="Es_sbu_oqxTV1BIQotpF-97" value="Кусты : List&amp;lt;Куст&amp;gt;" style="text;strokeColor=#b85450;fillColor=#f8cecc;align=left;verticalAlign=middle;spacingLeft=4;spacingRight=4;overflow=hidden;points=[[0,0.5],[1,0.5]];portConstraint=eastwest;rotatable=0;whiteSpace=wrap;html=1;" vertex="1" parent="yv1jg0gktLCmBM4Epeqx-93">
          <mxGeometry y="300" width="190" height="30" as="geometry" />
        </mxCell>
        <mxCell id="Es_sbu_oqxTV1BIQotpF-117" value="АудитИнформации" style="text;strokeColor=#b85450;fillColor=#f8cecc;align=left;verticalAlign=middle;spacingLeft=4;spacingRight=4;overflow=hidden;points=[[0,0.5],[1,0.5]];portConstraint=eastwest;rotatable=0;whiteSpace=wrap;html=1;" vertex="1" parent="yv1jg0gktLCmBM4Epeqx-93">
          <mxGeometry y="330" width="190" height="30" as="geometry" />
        </mxCell>
        <mxCell id="yv1jg0gktLCmBM4Epeqx-103" value="=====Actions=========" style="text;strokeColor=none;fillColor=none;align=left;verticalAlign=middle;spacingLeft=4;spacingRight=4;overflow=hidden;points=[[0,0.5],[1,0.5]];portConstraint=eastwest;rotatable=0;whiteSpace=wrap;html=1;" parent="yv1jg0gktLCmBM4Epeqx-93" vertex="1">
          <mxGeometry y="360" width="190" height="30" as="geometry" />
        </mxCell>
        <mxCell id="yv1jg0gktLCmBM4Epeqx-104" value="Заблокировать (void)&amp;nbsp;" style="text;strokeColor=none;fillColor=none;align=left;verticalAlign=middle;spacingLeft=4;spacingRight=4;overflow=hidden;points=[[0,0.5],[1,0.5]];portConstraint=eastwest;rotatable=0;whiteSpace=wrap;html=1;" parent="yv1jg0gktLCmBM4Epeqx-93" vertex="1">
          <mxGeometry y="390" width="190" height="30" as="geometry" />
        </mxCell>
        <mxCell id="yv1jg0gktLCmBM4Epeqx-105" value="СоздатьКуст (Куст)" style="text;strokeColor=none;fillColor=none;align=left;verticalAlign=middle;spacingLeft=4;spacingRight=4;overflow=hidden;points=[[0,0.5],[1,0.5]];portConstraint=eastwest;rotatable=0;whiteSpace=wrap;html=1;" parent="yv1jg0gktLCmBM4Epeqx-93" vertex="1">
          <mxGeometry y="420" width="190" height="60" as="geometry" />
        </mxCell>
        <mxCell id="yv1jg0gktLCmBM4Epeqx-109" value="СистемныйУровеньПриведения" style="swimlane;fontStyle=0;childLayout=stackLayout;horizontal=1;startSize=30;horizontalStack=0;resizeParent=1;resizeParentMax=0;resizeLast=0;collapsible=1;marginBottom=0;whiteSpace=wrap;html=1;" parent="1" vertex="1">
          <mxGeometry x="-730" y="345" width="220" height="90" as="geometry" />
        </mxCell>
        <mxCell id="yv1jg0gktLCmBM4Epeqx-110" value="&lt;p class=&quot;MsoNormal&quot;&gt;Название: string (выбор)&lt;/p&gt;" style="text;strokeColor=none;fillColor=none;align=left;verticalAlign=middle;spacingLeft=4;spacingRight=4;overflow=hidden;points=[[0,0.5],[1,0.5]];portConstraint=eastwest;rotatable=0;whiteSpace=wrap;html=1;" parent="yv1jg0gktLCmBM4Epeqx-109" vertex="1">
          <mxGeometry y="30" width="220" height="30" as="geometry" />
        </mxCell>
        <mxCell id="yv1jg0gktLCmBM4Epeqx-111" value="&lt;p class=&quot;MsoNormal&quot;&gt;Возвышение: double&lt;/p&gt;" style="text;strokeColor=none;fillColor=none;align=left;verticalAlign=middle;spacingLeft=4;spacingRight=4;overflow=hidden;points=[[0,0.5],[1,0.5]];portConstraint=eastwest;rotatable=0;whiteSpace=wrap;html=1;" parent="yv1jg0gktLCmBM4Epeqx-109" vertex="1">
          <mxGeometry y="60" width="220" height="30" as="geometry" />
        </mxCell>
        <mxCell id="yv1jg0gktLCmBM4Epeqx-113" value="" style="edgeStyle=elbowEdgeStyle;elbow=horizontal;endArrow=classic;html=1;curved=0;rounded=0;endSize=8;startSize=8;exitX=0;exitY=0.833;exitDx=0;exitDy=0;entryX=0.993;entryY=0.142;entryDx=0;entryDy=0;entryPerimeter=0;exitPerimeter=0;" parent="1" source="yv1jg0gktLCmBM4Epeqx-97" target="yv1jg0gktLCmBM4Epeqx-109" edge="1">
          <mxGeometry width="50" height="50" relative="1" as="geometry">
            <mxPoint x="-490" y="430" as="sourcePoint" />
            <mxPoint x="-440" y="380" as="targetPoint" />
          </mxGeometry>
        </mxCell>
        <mxCell id="yv1jg0gktLCmBM4Epeqx-114" value="&lt;span style=&quot;text-align: left;&quot;&gt;ЛокалБезопасность&lt;/span&gt;" style="swimlane;fontStyle=0;childLayout=stackLayout;horizontal=1;startSize=30;horizontalStack=0;resizeParent=1;resizeParentMax=0;resizeLast=0;collapsible=1;marginBottom=0;whiteSpace=wrap;html=1;fillColor=#dae8fc;strokeColor=#6c8ebf;" parent="1" vertex="1">
          <mxGeometry x="-750" y="450" width="230" height="60" as="geometry" />
        </mxCell>
        <mxCell id="yv1jg0gktLCmBM4Epeqx-115" value="&lt;p class=&quot;MsoNormal&quot;&gt;ЛокальнаяГруппаДоступа: string (выбор)&lt;/p&gt;" style="text;strokeColor=none;fillColor=none;align=left;verticalAlign=middle;spacingLeft=4;spacingRight=4;overflow=hidden;points=[[0,0.5],[1,0.5]];portConstraint=eastwest;rotatable=0;whiteSpace=wrap;html=1;" parent="yv1jg0gktLCmBM4Epeqx-114" vertex="1">
          <mxGeometry y="30" width="230" height="30" as="geometry" />
        </mxCell>
        <mxCell id="yv1jg0gktLCmBM4Epeqx-117" value="" style="edgeStyle=elbowEdgeStyle;elbow=horizontal;endArrow=classic;html=1;curved=0;rounded=0;endSize=8;startSize=8;entryX=1;entryY=0.25;entryDx=0;entryDy=0;exitX=0;exitY=0.5;exitDx=0;exitDy=0;" parent="1" source="yv1jg0gktLCmBM4Epeqx-98" target="yv1jg0gktLCmBM4Epeqx-114" edge="1">
          <mxGeometry width="50" height="50" relative="1" as="geometry">
            <mxPoint x="-460" y="540" as="sourcePoint" />
            <mxPoint x="-410" y="490" as="targetPoint" />
          </mxGeometry>
        </mxCell>
        <mxCell id="yv1jg0gktLCmBM4Epeqx-118" value="ПривязкаЗамеров" style="swimlane;fontStyle=0;childLayout=stackLayout;horizontal=1;startSize=30;horizontalStack=0;resizeParent=1;resizeParentMax=0;resizeLast=0;collapsible=1;marginBottom=0;whiteSpace=wrap;html=1;" parent="1" vertex="1">
          <mxGeometry x="-780" y="530" width="220" height="90" as="geometry" />
        </mxCell>
        <mxCell id="yv1jg0gktLCmBM4Epeqx-119" value="&lt;p class=&quot;MsoNormal&quot;&gt;ИспользоватьТочкуПривязки: bool&lt;/p&gt;" style="text;strokeColor=none;fillColor=none;align=left;verticalAlign=middle;spacingLeft=4;spacingRight=4;overflow=hidden;points=[[0,0.5],[1,0.5]];portConstraint=eastwest;rotatable=0;whiteSpace=wrap;html=1;" parent="yv1jg0gktLCmBM4Epeqx-118" vertex="1">
          <mxGeometry y="30" width="220" height="30" as="geometry" />
        </mxCell>
        <mxCell id="yv1jg0gktLCmBM4Epeqx-120" value="&lt;p class=&quot;MsoNormal&quot;&gt;МагнитнаяМодель: string (выбор)&lt;/p&gt;" style="text;strokeColor=none;fillColor=none;align=left;verticalAlign=middle;spacingLeft=4;spacingRight=4;overflow=hidden;points=[[0,0.5],[1,0.5]];portConstraint=eastwest;rotatable=0;whiteSpace=wrap;html=1;" parent="yv1jg0gktLCmBM4Epeqx-118" vertex="1">
          <mxGeometry y="60" width="220" height="30" as="geometry" />
        </mxCell>
        <mxCell id="yv1jg0gktLCmBM4Epeqx-121" value="" style="edgeStyle=elbowEdgeStyle;elbow=horizontal;endArrow=classic;html=1;curved=0;rounded=0;endSize=8;startSize=8;entryX=1.002;entryY=0.154;entryDx=0;entryDy=0;entryPerimeter=0;exitX=0;exitY=0.5;exitDx=0;exitDy=0;" parent="1" source="yv1jg0gktLCmBM4Epeqx-99" target="yv1jg0gktLCmBM4Epeqx-118" edge="1">
          <mxGeometry width="50" height="50" relative="1" as="geometry">
            <mxPoint x="-490" y="590" as="sourcePoint" />
            <mxPoint x="-440" y="540" as="targetPoint" />
          </mxGeometry>
        </mxCell>
        <mxCell id="yv1jg0gktLCmBM4Epeqx-122" value="СистемаЕдиниц" style="swimlane;fontStyle=0;childLayout=stackLayout;horizontal=1;startSize=30;horizontalStack=0;resizeParent=1;resizeParentMax=0;resizeLast=0;collapsible=1;marginBottom=0;whiteSpace=wrap;html=1;" parent="1" vertex="1">
          <mxGeometry x="-785" y="645" width="230" height="90" as="geometry" />
        </mxCell>
        <mxCell id="yv1jg0gktLCmBM4Epeqx-123" value="&lt;p class=&quot;MsoNormal&quot;&gt;ЕдиницыМесторождения: string (выбор)&lt;/p&gt;" style="text;strokeColor=none;fillColor=none;align=left;verticalAlign=middle;spacingLeft=4;spacingRight=4;overflow=hidden;points=[[0,0.5],[1,0.5]];portConstraint=eastwest;rotatable=0;whiteSpace=wrap;html=1;" parent="yv1jg0gktLCmBM4Epeqx-122" vertex="1">
          <mxGeometry y="30" width="230" height="60" as="geometry" />
        </mxCell>
        <mxCell id="Es_sbu_oqxTV1BIQotpF-1" value="" style="edgeStyle=elbowEdgeStyle;elbow=horizontal;endArrow=classic;html=1;curved=0;rounded=0;endSize=8;startSize=8;entryX=1.017;entryY=0.133;entryDx=0;entryDy=0;entryPerimeter=0;exitX=0;exitY=0.5;exitDx=0;exitDy=0;" edge="1" parent="1" source="yv1jg0gktLCmBM4Epeqx-101" target="yv1jg0gktLCmBM4Epeqx-122">
          <mxGeometry width="50" height="50" relative="1" as="geometry">
            <mxPoint x="-480" y="690" as="sourcePoint" />
            <mxPoint x="-430" y="640" as="targetPoint" />
          </mxGeometry>
        </mxCell>
        <mxCell id="Es_sbu_oqxTV1BIQotpF-2" value="&lt;span style=&quot;text-align: left;&quot;&gt;ИнформацияОКарте&lt;/span&gt;" style="swimlane;fontStyle=0;childLayout=stackLayout;horizontal=1;startSize=30;horizontalStack=0;resizeParent=1;resizeParentMax=0;resizeLast=0;collapsible=1;marginBottom=0;whiteSpace=wrap;html=1;" vertex="1" parent="1">
          <mxGeometry x="-775" y="770" width="220" height="120" as="geometry" />
        </mxCell>
        <mxCell id="Es_sbu_oqxTV1BIQotpF-3" value="&lt;p class=&quot;MsoNormal&quot;&gt;ГеографическаяСистемаКоординат&lt;/p&gt;" style="text;strokeColor=none;fillColor=none;align=left;verticalAlign=middle;spacingLeft=4;spacingRight=4;overflow=hidden;points=[[0,0.5],[1,0.5]];portConstraint=eastwest;rotatable=0;whiteSpace=wrap;html=1;" vertex="1" parent="Es_sbu_oqxTV1BIQotpF-2">
          <mxGeometry y="30" width="220" height="30" as="geometry" />
        </mxCell>
        <mxCell id="Es_sbu_oqxTV1BIQotpF-4" value="&lt;p class=&quot;MsoNormal&quot;&gt;ЛокальнаяСистемаКоординат&lt;/p&gt;" style="text;strokeColor=none;fillColor=none;align=left;verticalAlign=middle;spacingLeft=4;spacingRight=4;overflow=hidden;points=[[0,0.5],[1,0.5]];portConstraint=eastwest;rotatable=0;whiteSpace=wrap;html=1;" vertex="1" parent="Es_sbu_oqxTV1BIQotpF-2">
          <mxGeometry y="60" width="220" height="30" as="geometry" />
        </mxCell>
        <mxCell id="Es_sbu_oqxTV1BIQotpF-8" value="&lt;p class=&quot;MsoNormal&quot;&gt;ПредупрСтолкнОсновНаРисках&lt;/p&gt;" style="text;strokeColor=#b85450;fillColor=#f8cecc;align=left;verticalAlign=middle;spacingLeft=4;spacingRight=4;overflow=hidden;points=[[0,0.5],[1,0.5]];portConstraint=eastwest;rotatable=0;whiteSpace=wrap;html=1;" vertex="1" parent="Es_sbu_oqxTV1BIQotpF-2">
          <mxGeometry y="90" width="220" height="30" as="geometry" />
        </mxCell>
        <mxCell id="Es_sbu_oqxTV1BIQotpF-5" value="&lt;span style=&quot;text-align: left;&quot;&gt;ГеографическаяСистемаКоординат&lt;/span&gt;" style="swimlane;fontStyle=0;childLayout=stackLayout;horizontal=1;startSize=30;horizontalStack=0;resizeParent=1;resizeParentMax=0;resizeLast=0;collapsible=1;marginBottom=0;whiteSpace=wrap;html=1;" vertex="1" parent="1">
          <mxGeometry x="-1190" y="690" width="250" height="130" as="geometry" />
        </mxCell>
        <mxCell id="Es_sbu_oqxTV1BIQotpF-6" value="&lt;p class=&quot;MsoNormal&quot;&gt;Геодезическая : string (выбор)&lt;/p&gt;" style="text;strokeColor=none;fillColor=none;align=left;verticalAlign=middle;spacingLeft=4;spacingRight=4;overflow=hidden;points=[[0,0.5],[1,0.5]];portConstraint=eastwest;rotatable=0;whiteSpace=wrap;html=1;" vertex="1" parent="Es_sbu_oqxTV1BIQotpF-5">
          <mxGeometry y="30" width="250" height="30" as="geometry" />
        </mxCell>
        <mxCell id="Es_sbu_oqxTV1BIQotpF-7" value="&lt;p class=&quot;MsoNormal&quot;&gt;ГеодезическийРепер : string (выбор)&lt;br&gt;&lt;/p&gt;" style="text;strokeColor=none;fillColor=none;align=left;verticalAlign=middle;spacingLeft=4;spacingRight=4;overflow=hidden;points=[[0,0.5],[1,0.5]];portConstraint=eastwest;rotatable=0;whiteSpace=wrap;html=1;" vertex="1" parent="Es_sbu_oqxTV1BIQotpF-5">
          <mxGeometry y="60" width="250" height="30" as="geometry" />
        </mxCell>
        <mxCell id="Es_sbu_oqxTV1BIQotpF-9" value="&lt;p class=&quot;MsoNormal&quot;&gt;КартографическаяЗона :&amp;nbsp;&lt;span style=&quot;background-color: initial;&quot;&gt;string (выбор)&lt;/span&gt;&lt;/p&gt;" style="text;strokeColor=none;fillColor=none;align=left;verticalAlign=middle;spacingLeft=4;spacingRight=4;overflow=hidden;points=[[0,0.5],[1,0.5]];portConstraint=eastwest;rotatable=0;whiteSpace=wrap;html=1;" vertex="1" parent="Es_sbu_oqxTV1BIQotpF-5">
          <mxGeometry y="90" width="250" height="40" as="geometry" />
        </mxCell>
        <mxCell id="Es_sbu_oqxTV1BIQotpF-10" value="" style="edgeStyle=elbowEdgeStyle;elbow=horizontal;endArrow=classic;html=1;curved=0;rounded=0;endSize=8;startSize=8;exitX=0;exitY=0.5;exitDx=0;exitDy=0;entryX=1;entryY=0.115;entryDx=0;entryDy=0;entryPerimeter=0;" edge="1" parent="1" source="Es_sbu_oqxTV1BIQotpF-3" target="Es_sbu_oqxTV1BIQotpF-5">
          <mxGeometry width="50" height="50" relative="1" as="geometry">
            <mxPoint x="-820" y="780" as="sourcePoint" />
            <mxPoint x="-770" y="730" as="targetPoint" />
          </mxGeometry>
        </mxCell>
        <mxCell id="Es_sbu_oqxTV1BIQotpF-11" value="&lt;span style=&quot;text-align: left;&quot;&gt;ЛокальнаяСистемаКоординат&lt;/span&gt;" style="swimlane;fontStyle=0;childLayout=stackLayout;horizontal=1;startSize=30;horizontalStack=0;resizeParent=1;resizeParentMax=0;resizeLast=0;collapsible=1;marginBottom=0;whiteSpace=wrap;html=1;" vertex="1" parent="1">
          <mxGeometry x="-1190" y="840" width="250" height="150" as="geometry" />
        </mxCell>
        <mxCell id="Es_sbu_oqxTV1BIQotpF-12" value="&lt;p class=&quot;MsoNormal&quot;&gt;Начало : НачалоEnum&lt;/p&gt;" style="text;strokeColor=none;fillColor=none;align=left;verticalAlign=middle;spacingLeft=4;spacingRight=4;overflow=hidden;points=[[0,0.5],[1,0.5]];portConstraint=eastwest;rotatable=0;whiteSpace=wrap;html=1;" vertex="1" parent="Es_sbu_oqxTV1BIQotpF-11">
          <mxGeometry y="30" width="250" height="30" as="geometry" />
        </mxCell>
        <mxCell id="Es_sbu_oqxTV1BIQotpF-13" value="&lt;p class=&quot;MsoNormal&quot;&gt;&lt;span style=&quot;background-color: initial;&quot;&gt;ЦентрМесторожНаОсновКусте&lt;/span&gt;: string (выбор)&amp;nbsp;&lt;br&gt;&lt;/p&gt;" style="text;strokeColor=none;fillColor=none;align=left;verticalAlign=middle;spacingLeft=4;spacingRight=4;overflow=hidden;points=[[0,0.5],[1,0.5]];portConstraint=eastwest;rotatable=0;whiteSpace=wrap;html=1;" vertex="1" parent="Es_sbu_oqxTV1BIQotpF-11">
          <mxGeometry y="60" width="250" height="50" as="geometry" />
        </mxCell>
        <mxCell id="Es_sbu_oqxTV1BIQotpF-14" value="&lt;p class=&quot;MsoNormal&quot;&gt;ИспользоватьГеодезКоэф:&amp;nbsp;&lt;span style=&quot;background-color: initial;&quot;&gt;bool&lt;/span&gt;&lt;/p&gt;" style="text;strokeColor=none;fillColor=none;align=left;verticalAlign=middle;spacingLeft=4;spacingRight=4;overflow=hidden;points=[[0,0.5],[1,0.5]];portConstraint=eastwest;rotatable=0;whiteSpace=wrap;html=1;" vertex="1" parent="Es_sbu_oqxTV1BIQotpF-11">
          <mxGeometry y="110" width="250" height="40" as="geometry" />
        </mxCell>
        <mxCell id="Es_sbu_oqxTV1BIQotpF-15" value="&lt;span style=&quot;text-align: left;&quot;&gt;НачалоEnum&lt;/span&gt;" style="swimlane;fontStyle=0;childLayout=stackLayout;horizontal=1;startSize=30;horizontalStack=0;resizeParent=1;resizeParentMax=0;resizeLast=0;collapsible=1;marginBottom=0;whiteSpace=wrap;html=1;" vertex="1" parent="1">
          <mxGeometry x="-1560" y="810" width="250" height="130" as="geometry" />
        </mxCell>
        <mxCell id="Es_sbu_oqxTV1BIQotpF-16" value="&lt;p class=&quot;MsoNormal&quot;&gt;ЦентрСкважины&lt;/p&gt;" style="text;strokeColor=none;fillColor=none;align=left;verticalAlign=middle;spacingLeft=4;spacingRight=4;overflow=hidden;points=[[0,0.5],[1,0.5]];portConstraint=eastwest;rotatable=0;whiteSpace=wrap;html=1;" vertex="1" parent="Es_sbu_oqxTV1BIQotpF-15">
          <mxGeometry y="30" width="250" height="30" as="geometry" />
        </mxCell>
        <mxCell id="Es_sbu_oqxTV1BIQotpF-17" value="&lt;p class=&quot;MsoNormal&quot;&gt;ЦентрКуста&lt;br&gt;&lt;/p&gt;" style="text;strokeColor=none;fillColor=none;align=left;verticalAlign=middle;spacingLeft=4;spacingRight=4;overflow=hidden;points=[[0,0.5],[1,0.5]];portConstraint=eastwest;rotatable=0;whiteSpace=wrap;html=1;" vertex="1" parent="Es_sbu_oqxTV1BIQotpF-15">
          <mxGeometry y="60" width="250" height="30" as="geometry" />
        </mxCell>
        <mxCell id="Es_sbu_oqxTV1BIQotpF-18" value="&lt;p class=&quot;MsoNormal&quot;&gt;ЦентрМесторожНаОсновКусте&lt;/p&gt;" style="text;strokeColor=none;fillColor=none;align=left;verticalAlign=middle;spacingLeft=4;spacingRight=4;overflow=hidden;points=[[0,0.5],[1,0.5]];portConstraint=eastwest;rotatable=0;whiteSpace=wrap;html=1;" vertex="1" parent="Es_sbu_oqxTV1BIQotpF-15">
          <mxGeometry y="90" width="250" height="40" as="geometry" />
        </mxCell>
        <mxCell id="Es_sbu_oqxTV1BIQotpF-19" value="" style="edgeStyle=elbowEdgeStyle;elbow=horizontal;endArrow=classic;html=1;curved=0;rounded=0;endSize=8;startSize=8;entryX=1.008;entryY=0.107;entryDx=0;entryDy=0;entryPerimeter=0;exitX=0;exitY=0.5;exitDx=0;exitDy=0;" edge="1" parent="1" source="Es_sbu_oqxTV1BIQotpF-4" target="Es_sbu_oqxTV1BIQotpF-11">
          <mxGeometry width="50" height="50" relative="1" as="geometry">
            <mxPoint x="-800" y="990" as="sourcePoint" />
            <mxPoint x="-750" y="940" as="targetPoint" />
          </mxGeometry>
        </mxCell>
        <mxCell id="Es_sbu_oqxTV1BIQotpF-20" value="" style="edgeStyle=elbowEdgeStyle;elbow=horizontal;endArrow=classic;html=1;curved=0;rounded=0;endSize=8;startSize=8;entryX=1.012;entryY=0.138;entryDx=0;entryDy=0;entryPerimeter=0;exitX=-0.004;exitY=0.733;exitDx=0;exitDy=0;exitPerimeter=0;" edge="1" parent="1" source="Es_sbu_oqxTV1BIQotpF-12" target="Es_sbu_oqxTV1BIQotpF-15">
          <mxGeometry width="50" height="50" relative="1" as="geometry">
            <mxPoint x="-1200" y="990" as="sourcePoint" />
            <mxPoint x="-1150" y="940" as="targetPoint" />
          </mxGeometry>
        </mxCell>
        <mxCell id="Es_sbu_oqxTV1BIQotpF-21" value="&lt;span style=&quot;text-align: left;&quot;&gt;ПредупрСтолкнОсновНаРисках&lt;/span&gt;" style="swimlane;fontStyle=0;childLayout=stackLayout;horizontal=1;startSize=30;horizontalStack=0;resizeParent=1;resizeParentMax=0;resizeLast=0;collapsible=1;marginBottom=0;whiteSpace=wrap;html=1;" vertex="1" parent="1">
          <mxGeometry x="-1190" y="1020" width="250" height="190" as="geometry" />
        </mxCell>
        <mxCell id="Es_sbu_oqxTV1BIQotpF-22" value="&lt;p class=&quot;MsoNormal&quot;&gt;ВертикальнаяГлубинаДляАнализа : double&lt;/p&gt;" style="text;strokeColor=none;fillColor=none;align=left;verticalAlign=middle;spacingLeft=4;spacingRight=4;overflow=hidden;points=[[0,0.5],[1,0.5]];portConstraint=eastwest;rotatable=0;whiteSpace=wrap;html=1;" vertex="1" parent="Es_sbu_oqxTV1BIQotpF-21">
          <mxGeometry y="30" width="250" height="30" as="geometry" />
        </mxCell>
        <mxCell id="Es_sbu_oqxTV1BIQotpF-23" value="&lt;p class=&quot;MsoNormal&quot;&gt;УровеньПриемлемогоРиска1 : double&lt;/p&gt;" style="text;strokeColor=none;fillColor=none;align=left;verticalAlign=middle;spacingLeft=4;spacingRight=4;overflow=hidden;points=[[0,0.5],[1,0.5]];portConstraint=eastwest;rotatable=0;whiteSpace=wrap;html=1;" vertex="1" parent="Es_sbu_oqxTV1BIQotpF-21">
          <mxGeometry y="60" width="250" height="50" as="geometry" />
        </mxCell>
        <mxCell id="Es_sbu_oqxTV1BIQotpF-24" value="&lt;p class=&quot;MsoNormal&quot;&gt;ИспользоватьМинРасстояние:&amp;nbsp;&lt;span style=&quot;background-color: initial;&quot;&gt;bool&lt;/span&gt;&lt;/p&gt;" style="text;strokeColor=none;fillColor=none;align=left;verticalAlign=middle;spacingLeft=4;spacingRight=4;overflow=hidden;points=[[0,0.5],[1,0.5]];portConstraint=eastwest;rotatable=0;whiteSpace=wrap;html=1;" vertex="1" parent="Es_sbu_oqxTV1BIQotpF-21">
          <mxGeometry y="110" width="250" height="40" as="geometry" />
        </mxCell>
        <mxCell id="Es_sbu_oqxTV1BIQotpF-25" value="&lt;p class=&quot;MsoNormal&quot;&gt;МинРасстояние: double&lt;/p&gt;" style="text;strokeColor=none;fillColor=none;align=left;verticalAlign=middle;spacingLeft=4;spacingRight=4;overflow=hidden;points=[[0,0.5],[1,0.5]];portConstraint=eastwest;rotatable=0;whiteSpace=wrap;html=1;" vertex="1" parent="Es_sbu_oqxTV1BIQotpF-21">
          <mxGeometry y="150" width="250" height="40" as="geometry" />
        </mxCell>
        <mxCell id="Es_sbu_oqxTV1BIQotpF-26" value="" style="edgeStyle=elbowEdgeStyle;elbow=horizontal;endArrow=classic;html=1;curved=0;rounded=0;endSize=8;startSize=8;entryX=1.008;entryY=0.084;entryDx=0;entryDy=0;entryPerimeter=0;exitX=0;exitY=0.5;exitDx=0;exitDy=0;" edge="1" parent="1" source="Es_sbu_oqxTV1BIQotpF-8" target="Es_sbu_oqxTV1BIQotpF-21">
          <mxGeometry width="50" height="50" relative="1" as="geometry">
            <mxPoint x="-730" y="1040" as="sourcePoint" />
            <mxPoint x="-680" y="990" as="targetPoint" />
          </mxGeometry>
        </mxCell>
        <mxCell id="Es_sbu_oqxTV1BIQotpF-27" value="" style="edgeStyle=elbowEdgeStyle;elbow=horizontal;endArrow=classic;html=1;curved=0;rounded=0;endSize=8;startSize=8;exitX=0;exitY=0.5;exitDx=0;exitDy=0;entryX=1.005;entryY=0.1;entryDx=0;entryDy=0;entryPerimeter=0;" edge="1" parent="1" source="yv1jg0gktLCmBM4Epeqx-102" target="Es_sbu_oqxTV1BIQotpF-2">
          <mxGeometry width="50" height="50" relative="1" as="geometry">
            <mxPoint x="-420" y="860" as="sourcePoint" />
            <mxPoint x="-370" y="810" as="targetPoint" />
            <Array as="points">
              <mxPoint x="-440" y="690" />
            </Array>
          </mxGeometry>
        </mxCell>
        <mxCell id="Es_sbu_oqxTV1BIQotpF-33" value="&lt;span style=&quot;text-align: left;&quot;&gt;Куст&lt;/span&gt;" style="swimlane;fontStyle=0;childLayout=stackLayout;horizontal=1;startSize=30;horizontalStack=0;resizeParent=1;resizeParentMax=0;resizeLast=0;collapsible=1;marginBottom=0;whiteSpace=wrap;html=1;" vertex="1" parent="1">
          <mxGeometry x="-450" y="920" width="220" height="300" as="geometry" />
        </mxCell>
        <mxCell id="Es_sbu_oqxTV1BIQotpF-34" value="&lt;p class=&quot;MsoNormal&quot;&gt;ИнформацияОКусте&lt;/p&gt;" style="text;strokeColor=none;fillColor=none;align=left;verticalAlign=middle;spacingLeft=4;spacingRight=4;overflow=hidden;points=[[0,0.5],[1,0.5]];portConstraint=eastwest;rotatable=0;whiteSpace=wrap;html=1;" vertex="1" parent="Es_sbu_oqxTV1BIQotpF-33">
          <mxGeometry y="30" width="220" height="30" as="geometry" />
        </mxCell>
        <mxCell id="Es_sbu_oqxTV1BIQotpF-35" value="&lt;p class=&quot;MsoNormal&quot;&gt;Безопасность&lt;/p&gt;" style="text;strokeColor=none;fillColor=none;align=left;verticalAlign=middle;spacingLeft=4;spacingRight=4;overflow=hidden;points=[[0,0.5],[1,0.5]];portConstraint=eastwest;rotatable=0;whiteSpace=wrap;html=1;" vertex="1" parent="Es_sbu_oqxTV1BIQotpF-33">
          <mxGeometry y="60" width="220" height="30" as="geometry" />
        </mxCell>
        <mxCell id="Es_sbu_oqxTV1BIQotpF-36" value="&lt;p class=&quot;MsoNormal&quot;&gt;Заблокирована : bool&lt;br&gt;&lt;/p&gt;" style="text;strokeColor=none;fillColor=none;align=left;verticalAlign=middle;spacingLeft=4;spacingRight=4;overflow=hidden;points=[[0,0.5],[1,0.5]];portConstraint=eastwest;rotatable=0;whiteSpace=wrap;html=1;" vertex="1" parent="Es_sbu_oqxTV1BIQotpF-33">
          <mxGeometry y="90" width="220" height="30" as="geometry" />
        </mxCell>
        <mxCell id="Es_sbu_oqxTV1BIQotpF-50" value="&lt;p class=&quot;MsoNormal&quot;&gt;МестоположениеКуста&lt;br&gt;&lt;/p&gt;" style="text;strokeColor=none;fillColor=none;align=left;verticalAlign=middle;spacingLeft=4;spacingRight=4;overflow=hidden;points=[[0,0.5],[1,0.5]];portConstraint=eastwest;rotatable=0;whiteSpace=wrap;html=1;" vertex="1" parent="Es_sbu_oqxTV1BIQotpF-33">
          <mxGeometry y="120" width="220" height="30" as="geometry" />
        </mxCell>
        <mxCell id="Es_sbu_oqxTV1BIQotpF-51" value="&lt;p class=&quot;MsoNormal&quot;&gt;АудитИнформации???&lt;br&gt;&lt;/p&gt;" style="text;strokeColor=#b85450;fillColor=#f8cecc;align=left;verticalAlign=middle;spacingLeft=4;spacingRight=4;overflow=hidden;points=[[0,0.5],[1,0.5]];portConstraint=eastwest;rotatable=0;whiteSpace=wrap;html=1;" vertex="1" parent="Es_sbu_oqxTV1BIQotpF-33">
          <mxGeometry y="150" width="220" height="30" as="geometry" />
        </mxCell>
        <mxCell id="Es_sbu_oqxTV1BIQotpF-124" value="&lt;p class=&quot;MsoNormal&quot;&gt;Скважины : List&amp;lt;Скважина&amp;gt;&lt;br&gt;&lt;/p&gt;" style="text;align=left;verticalAlign=middle;spacingLeft=4;spacingRight=4;overflow=hidden;points=[[0,0.5],[1,0.5]];portConstraint=eastwest;rotatable=0;whiteSpace=wrap;html=1;" vertex="1" parent="Es_sbu_oqxTV1BIQotpF-33">
          <mxGeometry y="180" width="220" height="30" as="geometry" />
        </mxCell>
        <mxCell id="Es_sbu_oqxTV1BIQotpF-118" value="&lt;p class=&quot;MsoNormal&quot;&gt;=====Actions=========&lt;br&gt;&lt;/p&gt;" style="text;align=left;verticalAlign=middle;spacingLeft=4;spacingRight=4;overflow=hidden;points=[[0,0.5],[1,0.5]];portConstraint=eastwest;rotatable=0;whiteSpace=wrap;html=1;" vertex="1" parent="Es_sbu_oqxTV1BIQotpF-33">
          <mxGeometry y="210" width="220" height="30" as="geometry" />
        </mxCell>
        <mxCell id="Es_sbu_oqxTV1BIQotpF-119" value="&lt;p class=&quot;MsoNormal&quot;&gt;Скорректировать (void)&lt;br&gt;&lt;/p&gt;" style="text;align=left;verticalAlign=middle;spacingLeft=4;spacingRight=4;overflow=hidden;points=[[0,0.5],[1,0.5]];portConstraint=eastwest;rotatable=0;whiteSpace=wrap;html=1;" vertex="1" parent="Es_sbu_oqxTV1BIQotpF-33">
          <mxGeometry y="240" width="220" height="30" as="geometry" />
        </mxCell>
        <mxCell id="Es_sbu_oqxTV1BIQotpF-123" value="&lt;p class=&quot;MsoNormal&quot;&gt;СоздатьСкважину (Скважина)&lt;br&gt;&lt;/p&gt;" style="text;align=left;verticalAlign=middle;spacingLeft=4;spacingRight=4;overflow=hidden;points=[[0,0.5],[1,0.5]];portConstraint=eastwest;rotatable=0;whiteSpace=wrap;html=1;" vertex="1" parent="Es_sbu_oqxTV1BIQotpF-33">
          <mxGeometry y="270" width="220" height="30" as="geometry" />
        </mxCell>
        <mxCell id="Es_sbu_oqxTV1BIQotpF-38" value="&lt;span style=&quot;text-align: left;&quot;&gt;ИнформацияОКусте&lt;/span&gt;" style="swimlane;fontStyle=0;childLayout=stackLayout;horizontal=1;startSize=30;horizontalStack=0;resizeParent=1;resizeParentMax=0;resizeLast=0;collapsible=1;marginBottom=0;whiteSpace=wrap;html=1;" vertex="1" parent="1">
          <mxGeometry x="-760" y="1030" width="220" height="150" as="geometry" />
        </mxCell>
        <mxCell id="Es_sbu_oqxTV1BIQotpF-39" value="&lt;p class=&quot;MsoNormal&quot;&gt;Куст : string&lt;/p&gt;" style="text;strokeColor=none;fillColor=none;align=left;verticalAlign=middle;spacingLeft=4;spacingRight=4;overflow=hidden;points=[[0,0.5],[1,0.5]];portConstraint=eastwest;rotatable=0;whiteSpace=wrap;html=1;" vertex="1" parent="Es_sbu_oqxTV1BIQotpF-38">
          <mxGeometry y="30" width="220" height="30" as="geometry" />
        </mxCell>
        <mxCell id="Es_sbu_oqxTV1BIQotpF-40" value="&lt;p class=&quot;MsoNormal&quot;&gt;Район : string&lt;/p&gt;" style="text;strokeColor=none;fillColor=none;align=left;verticalAlign=middle;spacingLeft=4;spacingRight=4;overflow=hidden;points=[[0,0.5],[1,0.5]];portConstraint=eastwest;rotatable=0;whiteSpace=wrap;html=1;" vertex="1" parent="Es_sbu_oqxTV1BIQotpF-38">
          <mxGeometry y="60" width="220" height="30" as="geometry" />
        </mxCell>
        <mxCell id="Es_sbu_oqxTV1BIQotpF-41" value="&lt;p class=&quot;MsoNormal&quot;&gt;Участок: string&lt;/p&gt;" style="text;strokeColor=none;fillColor=none;align=left;verticalAlign=middle;spacingLeft=4;spacingRight=4;overflow=hidden;points=[[0,0.5],[1,0.5]];portConstraint=eastwest;rotatable=0;whiteSpace=wrap;html=1;" vertex="1" parent="Es_sbu_oqxTV1BIQotpF-38">
          <mxGeometry y="90" width="220" height="30" as="geometry" />
        </mxCell>
        <mxCell id="Es_sbu_oqxTV1BIQotpF-42" value="&lt;p class=&quot;MsoNormal&quot;&gt;АмплитудаСкважин: double&lt;/p&gt;" style="text;strokeColor=none;fillColor=none;align=left;verticalAlign=middle;spacingLeft=4;spacingRight=4;overflow=hidden;points=[[0,0.5],[1,0.5]];portConstraint=eastwest;rotatable=0;whiteSpace=wrap;html=1;" vertex="1" parent="Es_sbu_oqxTV1BIQotpF-38">
          <mxGeometry y="120" width="220" height="30" as="geometry" />
        </mxCell>
        <mxCell id="Es_sbu_oqxTV1BIQotpF-43" value="" style="edgeStyle=elbowEdgeStyle;elbow=horizontal;endArrow=classic;html=1;curved=0;rounded=0;endSize=8;startSize=8;exitX=0;exitY=0.5;exitDx=0;exitDy=0;entryX=0.5;entryY=0;entryDx=0;entryDy=0;" edge="1" parent="1" source="Es_sbu_oqxTV1BIQotpF-34" target="Es_sbu_oqxTV1BIQotpF-38">
          <mxGeometry width="50" height="50" relative="1" as="geometry">
            <mxPoint x="-610" y="990" as="sourcePoint" />
            <mxPoint x="-560" y="940" as="targetPoint" />
            <Array as="points">
              <mxPoint x="-650" y="1000" />
            </Array>
          </mxGeometry>
        </mxCell>
        <mxCell id="Es_sbu_oqxTV1BIQotpF-44" value="&lt;span style=&quot;text-align: left;&quot;&gt;Безопасность&lt;/span&gt;" style="swimlane;fontStyle=0;childLayout=stackLayout;horizontal=1;startSize=30;horizontalStack=0;resizeParent=1;resizeParentMax=0;resizeLast=0;collapsible=1;marginBottom=0;whiteSpace=wrap;html=1;fillColor=#dae8fc;strokeColor=#6c8ebf;" vertex="1" parent="1">
          <mxGeometry x="-750" y="1237" width="220" height="60" as="geometry" />
        </mxCell>
        <mxCell id="Es_sbu_oqxTV1BIQotpF-45" value="&lt;p class=&quot;MsoNormal&quot;&gt;ГруппаБезопасности: string (выбор)&lt;/p&gt;" style="text;strokeColor=none;fillColor=none;align=left;verticalAlign=middle;spacingLeft=4;spacingRight=4;overflow=hidden;points=[[0,0.5],[1,0.5]];portConstraint=eastwest;rotatable=0;whiteSpace=wrap;html=1;" vertex="1" parent="Es_sbu_oqxTV1BIQotpF-44">
          <mxGeometry y="30" width="220" height="30" as="geometry" />
        </mxCell>
        <mxCell id="Es_sbu_oqxTV1BIQotpF-55" value="Extends" style="endArrow=block;endSize=16;endFill=0;html=1;rounded=0;entryX=0.25;entryY=1;entryDx=0;entryDy=0;exitX=0.5;exitY=0;exitDx=0;exitDy=0;" edge="1" parent="1" source="Es_sbu_oqxTV1BIQotpF-56" target="Es_sbu_oqxTV1BIQotpF-77">
          <mxGeometry width="160" relative="1" as="geometry">
            <mxPoint x="-230" y="1279.62" as="sourcePoint" />
            <mxPoint x="-241.51999999999998" y="1328.7820000000002" as="targetPoint" />
          </mxGeometry>
        </mxCell>
        <mxCell id="Es_sbu_oqxTV1BIQotpF-56" value="НетМестоположения" style="swimlane;fontStyle=1;align=center;verticalAlign=top;childLayout=stackLayout;horizontal=1;startSize=26;horizontalStack=0;resizeParent=1;resizeParentMax=0;resizeLast=0;collapsible=1;marginBottom=0;whiteSpace=wrap;html=1;" vertex="1" parent="1">
          <mxGeometry x="-210" y="1460" width="160" height="34" as="geometry" />
        </mxCell>
        <mxCell id="Es_sbu_oqxTV1BIQotpF-58" value="" style="line;strokeWidth=1;fillColor=none;align=left;verticalAlign=middle;spacingTop=-1;spacingLeft=3;spacingRight=3;rotatable=0;labelPosition=right;points=[];portConstraint=eastwest;strokeColor=inherit;" vertex="1" parent="Es_sbu_oqxTV1BIQotpF-56">
          <mxGeometry y="26" width="160" height="8" as="geometry" />
        </mxCell>
        <mxCell id="Es_sbu_oqxTV1BIQotpF-60" value="КартографичМестополож" style="swimlane;fontStyle=1;align=center;verticalAlign=top;childLayout=stackLayout;horizontal=1;startSize=26;horizontalStack=0;resizeParent=1;resizeParentMax=0;resizeLast=0;collapsible=1;marginBottom=0;whiteSpace=wrap;html=1;fillColor=#d5e8d4;strokeColor=#82b366;" vertex="1" parent="1">
          <mxGeometry x="-30" y="1470" width="160" height="86" as="geometry" />
        </mxCell>
        <mxCell id="Es_sbu_oqxTV1BIQotpF-61" value="+ ОтходНаС: double" style="text;strokeColor=#82b366;fillColor=#d5e8d4;align=left;verticalAlign=top;spacingLeft=4;spacingRight=4;overflow=hidden;rotatable=0;points=[[0,0.5],[1,0.5]];portConstraint=eastwest;whiteSpace=wrap;html=1;" vertex="1" parent="Es_sbu_oqxTV1BIQotpF-60">
          <mxGeometry y="26" width="160" height="26" as="geometry" />
        </mxCell>
        <mxCell id="Es_sbu_oqxTV1BIQotpF-64" value="+ ОтходНаB: double" style="text;strokeColor=#82b366;fillColor=#d5e8d4;align=left;verticalAlign=top;spacingLeft=4;spacingRight=4;overflow=hidden;rotatable=0;points=[[0,0.5],[1,0.5]];portConstraint=eastwest;whiteSpace=wrap;html=1;" vertex="1" parent="Es_sbu_oqxTV1BIQotpF-60">
          <mxGeometry y="52" width="160" height="26" as="geometry" />
        </mxCell>
        <mxCell id="Es_sbu_oqxTV1BIQotpF-62" value="" style="line;strokeWidth=1;fillColor=#d5e8d4;align=left;verticalAlign=middle;spacingTop=-1;spacingLeft=3;spacingRight=3;rotatable=0;labelPosition=right;points=[];portConstraint=eastwest;strokeColor=#82b366;" vertex="1" parent="Es_sbu_oqxTV1BIQotpF-60">
          <mxGeometry y="78" width="160" height="8" as="geometry" />
        </mxCell>
        <mxCell id="Es_sbu_oqxTV1BIQotpF-65" value="Extends" style="endArrow=block;endSize=16;endFill=0;html=1;rounded=0;entryX=0.566;entryY=0.875;entryDx=0;entryDy=0;exitX=0.5;exitY=0;exitDx=0;exitDy=0;entryPerimeter=0;" edge="1" parent="1" source="Es_sbu_oqxTV1BIQotpF-60" target="Es_sbu_oqxTV1BIQotpF-79">
          <mxGeometry width="160" relative="1" as="geometry">
            <mxPoint x="-230" y="1390" as="sourcePoint" />
            <mxPoint x="-220.4000000000001" y="1327.6640000000002" as="targetPoint" />
          </mxGeometry>
        </mxCell>
        <mxCell id="Es_sbu_oqxTV1BIQotpF-66" value="ГеографичМестополож" style="swimlane;fontStyle=1;align=center;verticalAlign=top;childLayout=stackLayout;horizontal=1;startSize=26;horizontalStack=0;resizeParent=1;resizeParentMax=0;resizeLast=0;collapsible=1;marginBottom=0;whiteSpace=wrap;html=1;fillColor=#d5e8d4;strokeColor=#82b366;" vertex="1" parent="1">
          <mxGeometry x="170" y="1450" width="160" height="86" as="geometry" />
        </mxCell>
        <mxCell id="Es_sbu_oqxTV1BIQotpF-67" value="+ Широта: double" style="text;strokeColor=#82b366;fillColor=#d5e8d4;align=left;verticalAlign=top;spacingLeft=4;spacingRight=4;overflow=hidden;rotatable=0;points=[[0,0.5],[1,0.5]];portConstraint=eastwest;whiteSpace=wrap;html=1;" vertex="1" parent="Es_sbu_oqxTV1BIQotpF-66">
          <mxGeometry y="26" width="160" height="26" as="geometry" />
        </mxCell>
        <mxCell id="Es_sbu_oqxTV1BIQotpF-68" value="+ Долгота: double" style="text;strokeColor=#82b366;fillColor=#d5e8d4;align=left;verticalAlign=top;spacingLeft=4;spacingRight=4;overflow=hidden;rotatable=0;points=[[0,0.5],[1,0.5]];portConstraint=eastwest;whiteSpace=wrap;html=1;" vertex="1" parent="Es_sbu_oqxTV1BIQotpF-66">
          <mxGeometry y="52" width="160" height="26" as="geometry" />
        </mxCell>
        <mxCell id="Es_sbu_oqxTV1BIQotpF-69" value="" style="line;strokeWidth=1;fillColor=#d5e8d4;align=left;verticalAlign=middle;spacingTop=-1;spacingLeft=3;spacingRight=3;rotatable=0;labelPosition=right;points=[];portConstraint=eastwest;strokeColor=#82b366;" vertex="1" parent="Es_sbu_oqxTV1BIQotpF-66">
          <mxGeometry y="78" width="160" height="8" as="geometry" />
        </mxCell>
        <mxCell id="Es_sbu_oqxTV1BIQotpF-70" value="Extends" style="endArrow=block;endSize=16;endFill=0;html=1;rounded=0;entryX=0.823;entryY=1.187;entryDx=0;entryDy=0;exitX=0.461;exitY=-0.02;exitDx=0;exitDy=0;exitPerimeter=0;entryPerimeter=0;" edge="1" parent="1" source="Es_sbu_oqxTV1BIQotpF-66" target="Es_sbu_oqxTV1BIQotpF-79">
          <mxGeometry width="160" relative="1" as="geometry">
            <mxPoint x="-75" y="1380" as="sourcePoint" />
            <mxPoint x="-190" y="1330.004" as="targetPoint" />
          </mxGeometry>
        </mxCell>
        <mxCell id="Es_sbu_oqxTV1BIQotpF-71" value="&lt;span style=&quot;font-weight: 400; text-align: left;&quot;&gt;МестоположениеКуста&lt;/span&gt;" style="swimlane;fontStyle=1;align=center;verticalAlign=top;childLayout=stackLayout;horizontal=1;startSize=26;horizontalStack=0;resizeParent=1;resizeParentMax=0;resizeLast=0;collapsible=1;marginBottom=0;whiteSpace=wrap;html=1;" vertex="1" parent="1">
          <mxGeometry x="-150" y="1100" width="370" height="112" as="geometry" />
        </mxCell>
        <mxCell id="Es_sbu_oqxTV1BIQotpF-72" value="+ МестоположениеЦентра: МестоположениеЦентра" style="text;strokeColor=none;fillColor=none;align=left;verticalAlign=top;spacingLeft=4;spacingRight=4;overflow=hidden;rotatable=0;points=[[0,0.5],[1,0.5]];portConstraint=eastwest;whiteSpace=wrap;html=1;" vertex="1" parent="Es_sbu_oqxTV1BIQotpF-71">
          <mxGeometry y="26" width="370" height="26" as="geometry" />
        </mxCell>
        <mxCell id="Es_sbu_oqxTV1BIQotpF-84" value="+ НедостоверностьМестополож: НедостоверностьМестополож" style="text;strokeColor=none;fillColor=none;align=left;verticalAlign=top;spacingLeft=4;spacingRight=4;overflow=hidden;rotatable=0;points=[[0,0.5],[1,0.5]];portConstraint=eastwest;whiteSpace=wrap;html=1;" vertex="1" parent="Es_sbu_oqxTV1BIQotpF-71">
          <mxGeometry y="52" width="370" height="26" as="geometry" />
        </mxCell>
        <mxCell id="Es_sbu_oqxTV1BIQotpF-85" value="+ ТипАзимута: ТипАзимута" style="text;strokeColor=none;fillColor=none;align=left;verticalAlign=top;spacingLeft=4;spacingRight=4;overflow=hidden;rotatable=0;points=[[0,0.5],[1,0.5]];portConstraint=eastwest;whiteSpace=wrap;html=1;" vertex="1" parent="Es_sbu_oqxTV1BIQotpF-71">
          <mxGeometry y="78" width="370" height="26" as="geometry" />
        </mxCell>
        <mxCell id="Es_sbu_oqxTV1BIQotpF-73" value="" style="line;strokeWidth=1;fillColor=none;align=left;verticalAlign=middle;spacingTop=-1;spacingLeft=3;spacingRight=3;rotatable=0;labelPosition=right;points=[];portConstraint=eastwest;strokeColor=inherit;" vertex="1" parent="Es_sbu_oqxTV1BIQotpF-71">
          <mxGeometry y="104" width="370" height="8" as="geometry" />
        </mxCell>
        <mxCell id="Es_sbu_oqxTV1BIQotpF-75" style="edgeStyle=orthogonalEdgeStyle;rounded=0;orthogonalLoop=1;jettySize=auto;html=1;entryX=0.5;entryY=0;entryDx=0;entryDy=0;" edge="1" parent="1" source="Es_sbu_oqxTV1BIQotpF-72" target="Es_sbu_oqxTV1BIQotpF-77">
          <mxGeometry relative="1" as="geometry">
            <mxPoint x="-220" y="1240" as="targetPoint" />
          </mxGeometry>
        </mxCell>
        <mxCell id="Es_sbu_oqxTV1BIQotpF-76" style="edgeStyle=orthogonalEdgeStyle;rounded=0;orthogonalLoop=1;jettySize=auto;html=1;entryX=0.596;entryY=0.01;entryDx=0;entryDy=0;entryPerimeter=0;" edge="1" parent="1" source="Es_sbu_oqxTV1BIQotpF-50" target="Es_sbu_oqxTV1BIQotpF-71">
          <mxGeometry relative="1" as="geometry" />
        </mxCell>
        <mxCell id="Es_sbu_oqxTV1BIQotpF-77" value="&lt;span style=&quot;font-weight: 400; text-align: left;&quot;&gt;МестоположениеЦентра&lt;/span&gt;" style="swimlane;fontStyle=1;align=center;verticalAlign=top;childLayout=stackLayout;horizontal=1;startSize=26;horizontalStack=0;resizeParent=1;resizeParentMax=0;resizeLast=0;collapsible=1;marginBottom=0;whiteSpace=wrap;html=1;" vertex="1" parent="1">
          <mxGeometry x="-50" y="1297" width="160" height="86" as="geometry" />
        </mxCell>
        <mxCell id="Es_sbu_oqxTV1BIQotpF-78" value="+ FSL: double" style="text;strokeColor=none;fillColor=none;align=left;verticalAlign=top;spacingLeft=4;spacingRight=4;overflow=hidden;rotatable=0;points=[[0,0.5],[1,0.5]];portConstraint=eastwest;whiteSpace=wrap;html=1;" vertex="1" parent="Es_sbu_oqxTV1BIQotpF-77">
          <mxGeometry y="26" width="160" height="26" as="geometry" />
        </mxCell>
        <mxCell id="Es_sbu_oqxTV1BIQotpF-81" value="+ FWL: double" style="text;strokeColor=none;fillColor=none;align=left;verticalAlign=top;spacingLeft=4;spacingRight=4;overflow=hidden;rotatable=0;points=[[0,0.5],[1,0.5]];portConstraint=eastwest;whiteSpace=wrap;html=1;" vertex="1" parent="Es_sbu_oqxTV1BIQotpF-77">
          <mxGeometry y="52" width="160" height="26" as="geometry" />
        </mxCell>
        <mxCell id="Es_sbu_oqxTV1BIQotpF-79" value="" style="line;strokeWidth=1;fillColor=none;align=left;verticalAlign=middle;spacingTop=-1;spacingLeft=3;spacingRight=3;rotatable=0;labelPosition=right;points=[];portConstraint=eastwest;strokeColor=inherit;" vertex="1" parent="Es_sbu_oqxTV1BIQotpF-77">
          <mxGeometry y="78" width="160" height="8" as="geometry" />
        </mxCell>
        <mxCell id="Es_sbu_oqxTV1BIQotpF-82" value="return" style="html=1;verticalAlign=bottom;endArrow=open;dashed=1;endSize=8;curved=0;rounded=0;exitX=0;exitY=0.5;exitDx=0;exitDy=0;entryX=1.004;entryY=0.028;entryDx=0;entryDy=0;entryPerimeter=0;" edge="1" parent="1" source="yv1jg0gktLCmBM4Epeqx-92" target="yv1jg0gktLCmBM4Epeqx-93">
          <mxGeometry relative="1" as="geometry">
            <mxPoint x="-50" y="530" as="sourcePoint" />
            <mxPoint x="-130" y="530" as="targetPoint" />
          </mxGeometry>
        </mxCell>
        <mxCell id="Es_sbu_oqxTV1BIQotpF-83" value="return" style="html=1;verticalAlign=bottom;endArrow=open;dashed=1;endSize=8;curved=0;rounded=0;exitX=1;exitY=0.5;exitDx=0;exitDy=0;entryX=0.75;entryY=0;entryDx=0;entryDy=0;" edge="1" parent="1" source="yv1jg0gktLCmBM4Epeqx-105" target="Es_sbu_oqxTV1BIQotpF-33">
          <mxGeometry relative="1" as="geometry">
            <mxPoint x="240" y="870" as="sourcePoint" />
            <mxPoint x="160" y="870" as="targetPoint" />
            <Array as="points">
              <mxPoint x="-130" y="780" />
            </Array>
          </mxGeometry>
        </mxCell>
        <mxCell id="Es_sbu_oqxTV1BIQotpF-86" value="&lt;span style=&quot;font-weight: 400; text-align: left;&quot;&gt;НедостоверностьМестополож&lt;/span&gt;" style="swimlane;fontStyle=1;align=center;verticalAlign=top;childLayout=stackLayout;horizontal=1;startSize=26;horizontalStack=0;resizeParent=1;resizeParentMax=0;resizeLast=0;collapsible=1;marginBottom=0;whiteSpace=wrap;html=1;" vertex="1" parent="1">
          <mxGeometry x="490" y="1348" width="240" height="86" as="geometry" />
        </mxCell>
        <mxCell id="Es_sbu_oqxTV1BIQotpF-87" value="+ РадиусНеопределенности: double" style="text;strokeColor=none;fillColor=none;align=left;verticalAlign=top;spacingLeft=4;spacingRight=4;overflow=hidden;rotatable=0;points=[[0,0.5],[1,0.5]];portConstraint=eastwest;whiteSpace=wrap;html=1;" vertex="1" parent="Es_sbu_oqxTV1BIQotpF-86">
          <mxGeometry y="26" width="240" height="26" as="geometry" />
        </mxCell>
        <mxCell id="Es_sbu_oqxTV1BIQotpF-90" value="+ РадиусСлота: double" style="text;strokeColor=none;fillColor=none;align=left;verticalAlign=top;spacingLeft=4;spacingRight=4;overflow=hidden;rotatable=0;points=[[0,0.5],[1,0.5]];portConstraint=eastwest;whiteSpace=wrap;html=1;" vertex="1" parent="Es_sbu_oqxTV1BIQotpF-86">
          <mxGeometry y="52" width="240" height="26" as="geometry" />
        </mxCell>
        <mxCell id="Es_sbu_oqxTV1BIQotpF-88" value="" style="line;strokeWidth=1;fillColor=none;align=left;verticalAlign=middle;spacingTop=-1;spacingLeft=3;spacingRight=3;rotatable=0;labelPosition=right;points=[];portConstraint=eastwest;strokeColor=inherit;" vertex="1" parent="Es_sbu_oqxTV1BIQotpF-86">
          <mxGeometry y="78" width="240" height="8" as="geometry" />
        </mxCell>
        <mxCell id="Es_sbu_oqxTV1BIQotpF-91" value="" style="edgeStyle=elbowEdgeStyle;elbow=horizontal;endArrow=classic;html=1;curved=0;rounded=0;endSize=8;startSize=8;exitX=1;exitY=0.5;exitDx=0;exitDy=0;entryX=0.5;entryY=0;entryDx=0;entryDy=0;" edge="1" parent="1" source="Es_sbu_oqxTV1BIQotpF-84" target="Es_sbu_oqxTV1BIQotpF-86">
          <mxGeometry width="50" height="50" relative="1" as="geometry">
            <mxPoint x="300" y="1150" as="sourcePoint" />
            <mxPoint x="280" y="1240" as="targetPoint" />
            <Array as="points">
              <mxPoint x="610" y="1260" />
            </Array>
          </mxGeometry>
        </mxCell>
        <mxCell id="Es_sbu_oqxTV1BIQotpF-92" value="&lt;span style=&quot;text-align: left;&quot;&gt;ТипАзимута&lt;/span&gt;" style="swimlane;fontStyle=0;childLayout=stackLayout;horizontal=1;startSize=26;fillColor=#f8cecc;horizontalStack=0;resizeParent=1;resizeParentMax=0;resizeLast=0;collapsible=1;marginBottom=0;whiteSpace=wrap;html=1;strokeColor=#b85450;" vertex="1" parent="1">
          <mxGeometry x="320" y="1348" width="140" height="52" as="geometry" />
        </mxCell>
        <mxCell id="Es_sbu_oqxTV1BIQotpF-93" value="+ ТипСервера: ?????" style="text;strokeColor=none;fillColor=none;align=left;verticalAlign=top;spacingLeft=4;spacingRight=4;overflow=hidden;rotatable=0;points=[[0,0.5],[1,0.5]];portConstraint=eastwest;whiteSpace=wrap;html=1;" vertex="1" parent="Es_sbu_oqxTV1BIQotpF-92">
          <mxGeometry y="26" width="140" height="26" as="geometry" />
        </mxCell>
        <mxCell id="Es_sbu_oqxTV1BIQotpF-96" value="" style="edgeStyle=elbowEdgeStyle;elbow=horizontal;endArrow=classic;html=1;curved=0;rounded=0;endSize=8;startSize=8;exitX=1;exitY=0.5;exitDx=0;exitDy=0;entryX=0.561;entryY=-0.007;entryDx=0;entryDy=0;entryPerimeter=0;" edge="1" parent="1" source="Es_sbu_oqxTV1BIQotpF-85" target="Es_sbu_oqxTV1BIQotpF-92">
          <mxGeometry width="50" height="50" relative="1" as="geometry">
            <mxPoint x="340" y="1230" as="sourcePoint" />
            <mxPoint x="390" y="1180" as="targetPoint" />
            <Array as="points">
              <mxPoint x="390" y="1270" />
            </Array>
          </mxGeometry>
        </mxCell>
        <mxCell id="Es_sbu_oqxTV1BIQotpF-122" style="edgeStyle=orthogonalEdgeStyle;rounded=0;orthogonalLoop=1;jettySize=auto;html=1;entryX=0.5;entryY=0;entryDx=0;entryDy=0;" edge="1" parent="1" source="Es_sbu_oqxTV1BIQotpF-35" target="Es_sbu_oqxTV1BIQotpF-44">
          <mxGeometry relative="1" as="geometry">
            <Array as="points">
              <mxPoint x="-510" y="995" />
              <mxPoint x="-510" y="1210" />
              <mxPoint x="-640" y="1210" />
            </Array>
          </mxGeometry>
        </mxCell>
        <mxCell id="Es_sbu_oqxTV1BIQotpF-125" value="Скважина" style="swimlane;fontStyle=1;align=center;verticalAlign=top;childLayout=stackLayout;horizontal=1;startSize=26;horizontalStack=0;resizeParent=1;resizeParentMax=0;resizeLast=0;collapsible=1;marginBottom=0;whiteSpace=wrap;html=1;" vertex="1" parent="1">
          <mxGeometry x="-990" y="1434" width="230" height="522" as="geometry" />
        </mxCell>
        <mxCell id="Es_sbu_oqxTV1BIQotpF-126" value="+ Название: string" style="text;strokeColor=none;fillColor=none;align=left;verticalAlign=top;spacingLeft=4;spacingRight=4;overflow=hidden;rotatable=0;points=[[0,0.5],[1,0.5]];portConstraint=eastwest;whiteSpace=wrap;html=1;" vertex="1" parent="Es_sbu_oqxTV1BIQotpF-125">
          <mxGeometry y="26" width="230" height="26" as="geometry" />
        </mxCell>
        <mxCell id="Es_sbu_oqxTV1BIQotpF-130" value="+ ОфициальноеНазвание: string" style="text;strokeColor=none;fillColor=none;align=left;verticalAlign=top;spacingLeft=4;spacingRight=4;overflow=hidden;rotatable=0;points=[[0,0.5],[1,0.5]];portConstraint=eastwest;whiteSpace=wrap;html=1;" vertex="1" parent="Es_sbu_oqxTV1BIQotpF-125">
          <mxGeometry y="52" width="230" height="26" as="geometry" />
        </mxCell>
        <mxCell id="Es_sbu_oqxTV1BIQotpF-131" value="+ Описание: string" style="text;strokeColor=none;fillColor=none;align=left;verticalAlign=top;spacingLeft=4;spacingRight=4;overflow=hidden;rotatable=0;points=[[0,0.5],[1,0.5]];portConstraint=eastwest;whiteSpace=wrap;html=1;" vertex="1" parent="Es_sbu_oqxTV1BIQotpF-125">
          <mxGeometry y="78" width="230" height="26" as="geometry" />
        </mxCell>
        <mxCell id="Es_sbu_oqxTV1BIQotpF-132" value="+ МестоположениеСтрока: string" style="text;strokeColor=#b85450;fillColor=#f8cecc;align=left;verticalAlign=top;spacingLeft=4;spacingRight=4;overflow=hidden;rotatable=0;points=[[0,0.5],[1,0.5]];portConstraint=eastwest;whiteSpace=wrap;html=1;" vertex="1" parent="Es_sbu_oqxTV1BIQotpF-125">
          <mxGeometry y="104" width="230" height="26" as="geometry" />
        </mxCell>
        <mxCell id="Es_sbu_oqxTV1BIQotpF-133" value="+ UWI: string" style="text;strokeColor=none;fillColor=none;align=left;verticalAlign=top;spacingLeft=4;spacingRight=4;overflow=hidden;rotatable=0;points=[[0,0.5],[1,0.5]];portConstraint=eastwest;whiteSpace=wrap;html=1;" vertex="1" parent="Es_sbu_oqxTV1BIQotpF-125">
          <mxGeometry y="130" width="230" height="26" as="geometry" />
        </mxCell>
        <mxCell id="Es_sbu_oqxTV1BIQotpF-134" value="+ APINumber: string" style="text;strokeColor=none;fillColor=none;align=left;verticalAlign=top;spacingLeft=4;spacingRight=4;overflow=hidden;rotatable=0;points=[[0,0.5],[1,0.5]];portConstraint=eastwest;whiteSpace=wrap;html=1;" vertex="1" parent="Es_sbu_oqxTV1BIQotpF-125">
          <mxGeometry y="156" width="230" height="26" as="geometry" />
        </mxCell>
        <mxCell id="Es_sbu_oqxTV1BIQotpF-135" value="+ Безопасность : Безопасность" style="text;strokeColor=#6c8ebf;fillColor=#dae8fc;align=left;verticalAlign=top;spacingLeft=4;spacingRight=4;overflow=hidden;rotatable=0;points=[[0,0.5],[1,0.5]];portConstraint=eastwest;whiteSpace=wrap;html=1;" vertex="1" parent="Es_sbu_oqxTV1BIQotpF-125">
          <mxGeometry y="182" width="230" height="26" as="geometry" />
        </mxCell>
        <mxCell id="Es_sbu_oqxTV1BIQotpF-136" value="+ СистемаЕдиниц: СистемаЕдиниц" style="text;strokeColor=none;fillColor=none;align=left;verticalAlign=top;spacingLeft=4;spacingRight=4;overflow=hidden;rotatable=0;points=[[0,0.5],[1,0.5]];portConstraint=eastwest;whiteSpace=wrap;html=1;" vertex="1" parent="Es_sbu_oqxTV1BIQotpF-125">
          <mxGeometry y="208" width="230" height="26" as="geometry" />
        </mxCell>
        <mxCell id="Es_sbu_oqxTV1BIQotpF-137" value="+ Заблокировано: bool" style="text;strokeColor=none;fillColor=none;align=left;verticalAlign=top;spacingLeft=4;spacingRight=4;overflow=hidden;rotatable=0;points=[[0,0.5],[1,0.5]];portConstraint=eastwest;whiteSpace=wrap;html=1;" vertex="1" parent="Es_sbu_oqxTV1BIQotpF-125">
          <mxGeometry y="234" width="230" height="26" as="geometry" />
        </mxCell>
        <mxCell id="Es_sbu_oqxTV1BIQotpF-138" value="+ ОтсчетГлубины: ОтсчетГлубины" style="text;strokeColor=none;fillColor=none;align=left;verticalAlign=top;spacingLeft=4;spacingRight=4;overflow=hidden;rotatable=0;points=[[0,0.5],[1,0.5]];portConstraint=eastwest;whiteSpace=wrap;html=1;" vertex="1" parent="Es_sbu_oqxTV1BIQotpF-125">
          <mxGeometry y="260" width="230" height="26" as="geometry" />
        </mxCell>
        <mxCell id="Es_sbu_oqxTV1BIQotpF-139" value="+ МестоположениеСкважины: МестоположениеСкважины" style="text;strokeColor=none;fillColor=none;align=left;verticalAlign=top;spacingLeft=4;spacingRight=4;overflow=hidden;rotatable=0;points=[[0,0.5],[1,0.5]];portConstraint=eastwest;whiteSpace=wrap;html=1;" vertex="1" parent="Es_sbu_oqxTV1BIQotpF-125">
          <mxGeometry y="286" width="230" height="44" as="geometry" />
        </mxCell>
        <mxCell id="Es_sbu_oqxTV1BIQotpF-140" value="+ КомпанииПартнеры: КомпанииПартнеры" style="text;strokeColor=#b85450;fillColor=#f8cecc;align=left;verticalAlign=top;spacingLeft=4;spacingRight=4;overflow=hidden;rotatable=0;points=[[0,0.5],[1,0.5]];portConstraint=eastwest;whiteSpace=wrap;html=1;" vertex="1" parent="Es_sbu_oqxTV1BIQotpF-125">
          <mxGeometry y="330" width="230" height="44" as="geometry" />
        </mxCell>
        <mxCell id="Es_sbu_oqxTV1BIQotpF-141" value="+ АудитИнфорамции: АудитИнфорамции" style="text;strokeColor=#b85450;fillColor=#f8cecc;align=left;verticalAlign=top;spacingLeft=4;spacingRight=4;overflow=hidden;rotatable=0;points=[[0,0.5],[1,0.5]];portConstraint=eastwest;whiteSpace=wrap;html=1;" vertex="1" parent="Es_sbu_oqxTV1BIQotpF-125">
          <mxGeometry y="374" width="230" height="44" as="geometry" />
        </mxCell>
        <mxCell id="Es_sbu_oqxTV1BIQotpF-200" value="+ Стволы: List&amp;lt;Ствол&amp;gt;" style="text;strokeColor=#b85450;fillColor=#f8cecc;align=left;verticalAlign=top;spacingLeft=4;spacingRight=4;overflow=hidden;rotatable=0;points=[[0,0.5],[1,0.5]];portConstraint=eastwest;whiteSpace=wrap;html=1;" vertex="1" parent="Es_sbu_oqxTV1BIQotpF-125">
          <mxGeometry y="418" width="230" height="44" as="geometry" />
        </mxCell>
        <mxCell id="Es_sbu_oqxTV1BIQotpF-127" value="" style="line;strokeWidth=1;fillColor=none;align=left;verticalAlign=middle;spacingTop=-1;spacingLeft=3;spacingRight=3;rotatable=0;labelPosition=right;points=[];portConstraint=eastwest;strokeColor=inherit;" vertex="1" parent="Es_sbu_oqxTV1BIQotpF-125">
          <mxGeometry y="462" width="230" height="8" as="geometry" />
        </mxCell>
        <mxCell id="Es_sbu_oqxTV1BIQotpF-128" value="+ СоздатьСтвол(): Ствол" style="text;strokeColor=none;fillColor=none;align=left;verticalAlign=top;spacingLeft=4;spacingRight=4;overflow=hidden;rotatable=0;points=[[0,0.5],[1,0.5]];portConstraint=eastwest;whiteSpace=wrap;html=1;" vertex="1" parent="Es_sbu_oqxTV1BIQotpF-125">
          <mxGeometry y="470" width="230" height="26" as="geometry" />
        </mxCell>
        <mxCell id="Es_sbu_oqxTV1BIQotpF-199" value="+ ПолучитьСводку(): Сводка?" style="text;strokeColor=none;fillColor=none;align=left;verticalAlign=top;spacingLeft=4;spacingRight=4;overflow=hidden;rotatable=0;points=[[0,0.5],[1,0.5]];portConstraint=eastwest;whiteSpace=wrap;html=1;" vertex="1" parent="Es_sbu_oqxTV1BIQotpF-125">
          <mxGeometry y="496" width="230" height="26" as="geometry" />
        </mxCell>
        <mxCell id="Es_sbu_oqxTV1BIQotpF-142" value="&lt;span style=&quot;text-align: left;&quot;&gt;ОтсчетГлубины&lt;/span&gt;" style="swimlane;fontStyle=0;childLayout=stackLayout;horizontal=1;startSize=26;fillColor=none;horizontalStack=0;resizeParent=1;resizeParentMax=0;resizeLast=0;collapsible=1;marginBottom=0;whiteSpace=wrap;html=1;" vertex="1" parent="1">
          <mxGeometry x="-1390" y="1720" width="220" height="110" as="geometry" />
        </mxCell>
        <mxCell id="Es_sbu_oqxTV1BIQotpF-144" value="+ ВозвышенияАльтитуд: List&amp;lt;ВозвышенияАльтитуд&amp;gt;" style="text;strokeColor=none;fillColor=none;align=left;verticalAlign=top;spacingLeft=4;spacingRight=4;overflow=hidden;rotatable=0;points=[[0,0.5],[1,0.5]];portConstraint=eastwest;whiteSpace=wrap;html=1;" vertex="1" parent="Es_sbu_oqxTV1BIQotpF-142">
          <mxGeometry y="26" width="220" height="44" as="geometry" />
        </mxCell>
        <mxCell id="Es_sbu_oqxTV1BIQotpF-145" value="+ НастройкаОтсчетаГлубины: НастройкаОтсчетаГлубины" style="text;strokeColor=#b85450;fillColor=#f8cecc;align=left;verticalAlign=top;spacingLeft=4;spacingRight=4;overflow=hidden;rotatable=0;points=[[0,0.5],[1,0.5]];portConstraint=eastwest;whiteSpace=wrap;html=1;" vertex="1" parent="Es_sbu_oqxTV1BIQotpF-142">
          <mxGeometry y="70" width="220" height="40" as="geometry" />
        </mxCell>
        <mxCell id="Es_sbu_oqxTV1BIQotpF-146" style="edgeStyle=orthogonalEdgeStyle;rounded=0;orthogonalLoop=1;jettySize=auto;html=1;entryX=0.5;entryY=0;entryDx=0;entryDy=0;" edge="1" parent="1" source="Es_sbu_oqxTV1BIQotpF-138" target="Es_sbu_oqxTV1BIQotpF-142">
          <mxGeometry relative="1" as="geometry" />
        </mxCell>
        <mxCell id="Es_sbu_oqxTV1BIQotpF-147" value="&lt;span style=&quot;text-align: left;&quot;&gt;ВозвышенияАльтитуд&lt;/span&gt;" style="swimlane;fontStyle=0;childLayout=stackLayout;horizontal=1;startSize=26;fillColor=none;horizontalStack=0;resizeParent=1;resizeParentMax=0;resizeLast=0;collapsible=1;marginBottom=0;whiteSpace=wrap;html=1;" vertex="1" parent="1">
          <mxGeometry x="-1640" y="1570" width="140" height="236" as="geometry" />
        </mxCell>
        <mxCell id="Es_sbu_oqxTV1BIQotpF-148" value="+ Уровень: string&amp;nbsp;" style="text;strokeColor=none;fillColor=none;align=left;verticalAlign=top;spacingLeft=4;spacingRight=4;overflow=hidden;rotatable=0;points=[[0,0.5],[1,0.5]];portConstraint=eastwest;whiteSpace=wrap;html=1;" vertex="1" parent="Es_sbu_oqxTV1BIQotpF-147">
          <mxGeometry y="26" width="140" height="26" as="geometry" />
        </mxCell>
        <mxCell id="Es_sbu_oqxTV1BIQotpF-151" value="+ ПоУмолчанию: bool" style="text;strokeColor=none;fillColor=none;align=left;verticalAlign=top;spacingLeft=4;spacingRight=4;overflow=hidden;rotatable=0;points=[[0,0.5],[1,0.5]];portConstraint=eastwest;whiteSpace=wrap;html=1;" vertex="1" parent="Es_sbu_oqxTV1BIQotpF-147">
          <mxGeometry y="52" width="140" height="26" as="geometry" />
        </mxCell>
        <mxCell id="Es_sbu_oqxTV1BIQotpF-152" value="+ Альтитуда: double" style="text;strokeColor=none;fillColor=none;align=left;verticalAlign=top;spacingLeft=4;spacingRight=4;overflow=hidden;rotatable=0;points=[[0,0.5],[1,0.5]];portConstraint=eastwest;whiteSpace=wrap;html=1;" vertex="1" parent="Es_sbu_oqxTV1BIQotpF-147">
          <mxGeometry y="78" width="140" height="26" as="geometry" />
        </mxCell>
        <mxCell id="Es_sbu_oqxTV1BIQotpF-153" value="+ Подрядчик: string" style="text;strokeColor=none;fillColor=none;align=left;verticalAlign=top;spacingLeft=4;spacingRight=4;overflow=hidden;rotatable=0;points=[[0,0.5],[1,0.5]];portConstraint=eastwest;whiteSpace=wrap;html=1;" vertex="1" parent="Es_sbu_oqxTV1BIQotpF-147">
          <mxGeometry y="104" width="140" height="26" as="geometry" />
        </mxCell>
        <mxCell id="Es_sbu_oqxTV1BIQotpF-154" value="+ Буровая : string" style="text;strokeColor=none;fillColor=none;align=left;verticalAlign=top;spacingLeft=4;spacingRight=4;overflow=hidden;rotatable=0;points=[[0,0.5],[1,0.5]];portConstraint=eastwest;whiteSpace=wrap;html=1;" vertex="1" parent="Es_sbu_oqxTV1BIQotpF-147">
          <mxGeometry y="130" width="140" height="26" as="geometry" />
        </mxCell>
        <mxCell id="Es_sbu_oqxTV1BIQotpF-155" value="+ Название буровой: string" style="text;strokeColor=none;fillColor=none;align=left;verticalAlign=top;spacingLeft=4;spacingRight=4;overflow=hidden;rotatable=0;points=[[0,0.5],[1,0.5]];portConstraint=eastwest;whiteSpace=wrap;html=1;" vertex="1" parent="Es_sbu_oqxTV1BIQotpF-147">
          <mxGeometry y="156" width="140" height="54" as="geometry" />
        </mxCell>
        <mxCell id="Es_sbu_oqxTV1BIQotpF-156" value="+ Дата: DateTime" style="text;strokeColor=none;fillColor=none;align=left;verticalAlign=top;spacingLeft=4;spacingRight=4;overflow=hidden;rotatable=0;points=[[0,0.5],[1,0.5]];portConstraint=eastwest;whiteSpace=wrap;html=1;" vertex="1" parent="Es_sbu_oqxTV1BIQotpF-147">
          <mxGeometry y="210" width="140" height="26" as="geometry" />
        </mxCell>
        <mxCell id="Es_sbu_oqxTV1BIQotpF-157" value="" style="edgeStyle=elbowEdgeStyle;elbow=horizontal;endArrow=classic;html=1;curved=0;rounded=0;endSize=8;startSize=8;exitX=0;exitY=0.5;exitDx=0;exitDy=0;entryX=1.013;entryY=0.056;entryDx=0;entryDy=0;entryPerimeter=0;" edge="1" parent="1" source="Es_sbu_oqxTV1BIQotpF-144" target="Es_sbu_oqxTV1BIQotpF-147">
          <mxGeometry width="50" height="50" relative="1" as="geometry">
            <mxPoint x="-1500" y="1730" as="sourcePoint" />
            <mxPoint x="-1450" y="1680" as="targetPoint" />
          </mxGeometry>
        </mxCell>
        <mxCell id="Es_sbu_oqxTV1BIQotpF-158" value="&lt;span style=&quot;text-align: left;&quot;&gt;НастройкаОтсчетаГлубины&lt;/span&gt;" style="swimlane;fontStyle=0;childLayout=stackLayout;horizontal=1;startSize=26;fillColor=#f8cecc;horizontalStack=0;resizeParent=1;resizeParentMax=0;resizeLast=0;collapsible=1;marginBottom=0;whiteSpace=wrap;html=1;strokeColor=#b85450;" vertex="1" parent="1">
          <mxGeometry x="-1640" y="1840" width="160" height="78" as="geometry" />
        </mxCell>
        <mxCell id="Es_sbu_oqxTV1BIQotpF-159" value="+ Морская: type" style="text;strokeColor=#b85450;fillColor=#f8cecc;align=left;verticalAlign=top;spacingLeft=4;spacingRight=4;overflow=hidden;rotatable=0;points=[[0,0.5],[1,0.5]];portConstraint=eastwest;whiteSpace=wrap;html=1;" vertex="1" parent="Es_sbu_oqxTV1BIQotpF-158">
          <mxGeometry y="26" width="160" height="26" as="geometry" />
        </mxCell>
        <mxCell id="Es_sbu_oqxTV1BIQotpF-161" value="+ Подводная: type" style="text;strokeColor=#b85450;fillColor=#f8cecc;align=left;verticalAlign=top;spacingLeft=4;spacingRight=4;overflow=hidden;rotatable=0;points=[[0,0.5],[1,0.5]];portConstraint=eastwest;whiteSpace=wrap;html=1;" vertex="1" parent="Es_sbu_oqxTV1BIQotpF-158">
          <mxGeometry y="52" width="160" height="26" as="geometry" />
        </mxCell>
        <mxCell id="Es_sbu_oqxTV1BIQotpF-165" value="" style="edgeStyle=elbowEdgeStyle;elbow=horizontal;endArrow=classic;html=1;curved=0;rounded=0;endSize=8;startSize=8;exitX=0;exitY=0.5;exitDx=0;exitDy=0;entryX=1.017;entryY=0.188;entryDx=0;entryDy=0;entryPerimeter=0;" edge="1" parent="1" source="Es_sbu_oqxTV1BIQotpF-145" target="Es_sbu_oqxTV1BIQotpF-158">
          <mxGeometry width="50" height="50" relative="1" as="geometry">
            <mxPoint x="-1330" y="1970" as="sourcePoint" />
            <mxPoint x="-1280" y="1920" as="targetPoint" />
          </mxGeometry>
        </mxCell>
        <mxCell id="Es_sbu_oqxTV1BIQotpF-166" value="&lt;span style=&quot;text-align: left;&quot;&gt;МестоположениеСкважины&lt;/span&gt;" style="swimlane;fontStyle=0;childLayout=stackLayout;horizontal=1;startSize=26;fillColor=none;horizontalStack=0;resizeParent=1;resizeParentMax=0;resizeLast=0;collapsible=1;marginBottom=0;whiteSpace=wrap;html=1;" vertex="1" parent="1">
          <mxGeometry x="-1290" y="1930" width="210" height="174" as="geometry" />
        </mxCell>
        <mxCell id="Es_sbu_oqxTV1BIQotpF-167" value="+ МестоположениеУстья: type" style="text;strokeColor=none;fillColor=none;align=left;verticalAlign=top;spacingLeft=4;spacingRight=4;overflow=hidden;rotatable=0;points=[[0,0.5],[1,0.5]];portConstraint=eastwest;whiteSpace=wrap;html=1;" vertex="1" parent="Es_sbu_oqxTV1BIQotpF-166">
          <mxGeometry y="26" width="210" height="34" as="geometry" />
        </mxCell>
        <mxCell id="Es_sbu_oqxTV1BIQotpF-168" value="+ РадиусНеопределенности: double" style="text;strokeColor=none;fillColor=none;align=left;verticalAlign=top;spacingLeft=4;spacingRight=4;overflow=hidden;rotatable=0;points=[[0,0.5],[1,0.5]];portConstraint=eastwest;whiteSpace=wrap;html=1;" vertex="1" parent="Es_sbu_oqxTV1BIQotpF-166">
          <mxGeometry y="60" width="210" height="30" as="geometry" />
        </mxCell>
        <mxCell id="Es_sbu_oqxTV1BIQotpF-169" value="+ СближениеМеридианов: double" style="text;strokeColor=none;fillColor=none;align=left;verticalAlign=top;spacingLeft=4;spacingRight=4;overflow=hidden;rotatable=0;points=[[0,0.5],[1,0.5]];portConstraint=eastwest;whiteSpace=wrap;html=1;" vertex="1" parent="Es_sbu_oqxTV1BIQotpF-166">
          <mxGeometry y="90" width="210" height="42" as="geometry" />
        </mxCell>
        <mxCell id="Es_sbu_oqxTV1BIQotpF-171" value="+ КоэфМасштабирования: double" style="text;strokeColor=none;fillColor=none;align=left;verticalAlign=top;spacingLeft=4;spacingRight=4;overflow=hidden;rotatable=0;points=[[0,0.5],[1,0.5]];portConstraint=eastwest;whiteSpace=wrap;html=1;" vertex="1" parent="Es_sbu_oqxTV1BIQotpF-166">
          <mxGeometry y="132" width="210" height="42" as="geometry" />
        </mxCell>
        <mxCell id="Es_sbu_oqxTV1BIQotpF-170" value="" style="edgeStyle=elbowEdgeStyle;elbow=horizontal;endArrow=classic;html=1;curved=0;rounded=0;endSize=8;startSize=8;exitX=0;exitY=0.5;exitDx=0;exitDy=0;entryX=1.016;entryY=0.125;entryDx=0;entryDy=0;entryPerimeter=0;" edge="1" parent="1" source="Es_sbu_oqxTV1BIQotpF-139" target="Es_sbu_oqxTV1BIQotpF-166">
          <mxGeometry width="50" height="50" relative="1" as="geometry">
            <mxPoint x="-1040" y="1960" as="sourcePoint" />
            <mxPoint x="-970" y="1940" as="targetPoint" />
          </mxGeometry>
        </mxCell>
        <mxCell id="Es_sbu_oqxTV1BIQotpF-172" value="&lt;span style=&quot;text-align: left;&quot;&gt;МестоположениеУстья&lt;/span&gt;" style="html=1;whiteSpace=wrap;" vertex="1" parent="1">
          <mxGeometry x="-1635" y="2030" width="150" height="50" as="geometry" />
        </mxCell>
        <mxCell id="Es_sbu_oqxTV1BIQotpF-173" style="edgeStyle=orthogonalEdgeStyle;rounded=0;orthogonalLoop=1;jettySize=auto;html=1;entryX=0.5;entryY=0;entryDx=0;entryDy=0;" edge="1" parent="1" source="Es_sbu_oqxTV1BIQotpF-167" target="Es_sbu_oqxTV1BIQotpF-172">
          <mxGeometry relative="1" as="geometry" />
        </mxCell>
        <mxCell id="Es_sbu_oqxTV1BIQotpF-174" value="Слот" style="swimlane;fontStyle=0;childLayout=stackLayout;horizontal=1;startSize=26;fillColor=none;horizontalStack=0;resizeParent=1;resizeParentMax=0;resizeLast=0;collapsible=1;marginBottom=0;whiteSpace=wrap;html=1;" vertex="1" parent="1">
          <mxGeometry x="-1920" y="2120" width="170" height="52" as="geometry" />
        </mxCell>
        <mxCell id="Es_sbu_oqxTV1BIQotpF-175" value="+ Название: string (выбор)" style="text;strokeColor=none;fillColor=none;align=left;verticalAlign=top;spacingLeft=4;spacingRight=4;overflow=hidden;rotatable=0;points=[[0,0.5],[1,0.5]];portConstraint=eastwest;whiteSpace=wrap;html=1;" vertex="1" parent="Es_sbu_oqxTV1BIQotpF-174">
          <mxGeometry y="26" width="170" height="26" as="geometry" />
        </mxCell>
        <mxCell id="Es_sbu_oqxTV1BIQotpF-178" value="Extends" style="endArrow=block;endSize=16;endFill=0;html=1;rounded=0;exitX=0.564;exitY=-0.002;exitDx=0;exitDy=0;exitPerimeter=0;entryX=0;entryY=1;entryDx=0;entryDy=0;" edge="1" parent="1" source="Es_sbu_oqxTV1BIQotpF-174" target="Es_sbu_oqxTV1BIQotpF-172">
          <mxGeometry width="160" relative="1" as="geometry">
            <mxPoint x="-1760" y="2080" as="sourcePoint" />
            <mxPoint x="-1600" y="2080" as="targetPoint" />
          </mxGeometry>
        </mxCell>
        <mxCell id="Es_sbu_oqxTV1BIQotpF-179" value="ОтЦентраКуста" style="swimlane;fontStyle=1;align=center;verticalAlign=top;childLayout=stackLayout;horizontal=1;startSize=26;horizontalStack=0;resizeParent=1;resizeParentMax=0;resizeLast=0;collapsible=1;marginBottom=0;whiteSpace=wrap;html=1;" vertex="1" parent="1">
          <mxGeometry x="-1814" y="2190" width="160" height="86" as="geometry" />
        </mxCell>
        <mxCell id="Es_sbu_oqxTV1BIQotpF-180" value="+ Север: double" style="text;strokeColor=none;fillColor=none;align=left;verticalAlign=top;spacingLeft=4;spacingRight=4;overflow=hidden;rotatable=0;points=[[0,0.5],[1,0.5]];portConstraint=eastwest;whiteSpace=wrap;html=1;" vertex="1" parent="Es_sbu_oqxTV1BIQotpF-179">
          <mxGeometry y="26" width="160" height="26" as="geometry" />
        </mxCell>
        <mxCell id="Es_sbu_oqxTV1BIQotpF-181" value="" style="line;strokeWidth=1;fillColor=none;align=left;verticalAlign=middle;spacingTop=-1;spacingLeft=3;spacingRight=3;rotatable=0;labelPosition=right;points=[];portConstraint=eastwest;strokeColor=inherit;" vertex="1" parent="Es_sbu_oqxTV1BIQotpF-179">
          <mxGeometry y="52" width="160" height="8" as="geometry" />
        </mxCell>
        <mxCell id="Es_sbu_oqxTV1BIQotpF-182" value="+ Восток: double" style="text;strokeColor=none;fillColor=none;align=left;verticalAlign=top;spacingLeft=4;spacingRight=4;overflow=hidden;rotatable=0;points=[[0,0.5],[1,0.5]];portConstraint=eastwest;whiteSpace=wrap;html=1;" vertex="1" parent="Es_sbu_oqxTV1BIQotpF-179">
          <mxGeometry y="60" width="160" height="26" as="geometry" />
        </mxCell>
        <mxCell id="Es_sbu_oqxTV1BIQotpF-183" value="Extends" style="endArrow=block;endSize=16;endFill=0;html=1;rounded=0;exitX=0.5;exitY=0;exitDx=0;exitDy=0;entryX=0.25;entryY=1;entryDx=0;entryDy=0;" edge="1" parent="1" source="Es_sbu_oqxTV1BIQotpF-179" target="Es_sbu_oqxTV1BIQotpF-172">
          <mxGeometry width="160" relative="1" as="geometry">
            <mxPoint x="-1720" y="2154" as="sourcePoint" />
            <mxPoint x="-1486" y="2104" as="targetPoint" />
          </mxGeometry>
        </mxCell>
        <mxCell id="Es_sbu_oqxTV1BIQotpF-188" value="КартографичМестополож" style="swimlane;fontStyle=1;align=center;verticalAlign=top;childLayout=stackLayout;horizontal=1;startSize=26;horizontalStack=0;resizeParent=1;resizeParentMax=0;resizeLast=0;collapsible=1;marginBottom=0;whiteSpace=wrap;html=1;fillColor=#d5e8d4;strokeColor=#82b366;" vertex="1" parent="1">
          <mxGeometry x="-1590" y="2192" width="160" height="88" as="geometry" />
        </mxCell>
        <mxCell id="Es_sbu_oqxTV1BIQotpF-189" value="+ ОтходНаС: double" style="text;strokeColor=#82b366;fillColor=#d5e8d4;align=left;verticalAlign=top;spacingLeft=4;spacingRight=4;overflow=hidden;rotatable=0;points=[[0,0.5],[1,0.5]];portConstraint=eastwest;whiteSpace=wrap;html=1;" vertex="1" parent="Es_sbu_oqxTV1BIQotpF-188">
          <mxGeometry y="26" width="160" height="26" as="geometry" />
        </mxCell>
        <mxCell id="Es_sbu_oqxTV1BIQotpF-190" value="+ ОтходНаB: double" style="text;strokeColor=#82b366;fillColor=#d5e8d4;align=left;verticalAlign=top;spacingLeft=4;spacingRight=4;overflow=hidden;rotatable=0;points=[[0,0.5],[1,0.5]];portConstraint=eastwest;whiteSpace=wrap;html=1;" vertex="1" parent="Es_sbu_oqxTV1BIQotpF-188">
          <mxGeometry y="52" width="160" height="28" as="geometry" />
        </mxCell>
        <mxCell id="Es_sbu_oqxTV1BIQotpF-191" value="" style="line;strokeWidth=1;fillColor=#d5e8d4;align=left;verticalAlign=middle;spacingTop=-1;spacingLeft=3;spacingRight=3;rotatable=0;labelPosition=right;points=[];portConstraint=eastwest;strokeColor=#82b366;" vertex="1" parent="Es_sbu_oqxTV1BIQotpF-188">
          <mxGeometry y="80" width="160" height="8" as="geometry" />
        </mxCell>
        <mxCell id="Es_sbu_oqxTV1BIQotpF-192" value="Extends" style="endArrow=block;endSize=16;endFill=0;html=1;rounded=0;entryX=0.5;entryY=1;entryDx=0;entryDy=0;exitX=0.5;exitY=0;exitDx=0;exitDy=0;" edge="1" parent="1" source="Es_sbu_oqxTV1BIQotpF-188" target="Es_sbu_oqxTV1BIQotpF-172">
          <mxGeometry width="160" relative="1" as="geometry">
            <mxPoint x="-1790" y="2112" as="sourcePoint" />
            <mxPoint x="-1519" y="2104" as="targetPoint" />
          </mxGeometry>
        </mxCell>
        <mxCell id="Es_sbu_oqxTV1BIQotpF-193" value="ГеографичМестополож" style="swimlane;fontStyle=1;align=center;verticalAlign=top;childLayout=stackLayout;horizontal=1;startSize=26;horizontalStack=0;resizeParent=1;resizeParentMax=0;resizeLast=0;collapsible=1;marginBottom=0;whiteSpace=wrap;html=1;fillColor=#d5e8d4;strokeColor=#82b366;" vertex="1" parent="1">
          <mxGeometry x="-1390" y="2172" width="160" height="86" as="geometry" />
        </mxCell>
        <mxCell id="Es_sbu_oqxTV1BIQotpF-194" value="+ Широта: double" style="text;strokeColor=#82b366;fillColor=#d5e8d4;align=left;verticalAlign=top;spacingLeft=4;spacingRight=4;overflow=hidden;rotatable=0;points=[[0,0.5],[1,0.5]];portConstraint=eastwest;whiteSpace=wrap;html=1;" vertex="1" parent="Es_sbu_oqxTV1BIQotpF-193">
          <mxGeometry y="26" width="160" height="26" as="geometry" />
        </mxCell>
        <mxCell id="Es_sbu_oqxTV1BIQotpF-195" value="+ Долгота: double" style="text;strokeColor=#82b366;fillColor=#d5e8d4;align=left;verticalAlign=top;spacingLeft=4;spacingRight=4;overflow=hidden;rotatable=0;points=[[0,0.5],[1,0.5]];portConstraint=eastwest;whiteSpace=wrap;html=1;" vertex="1" parent="Es_sbu_oqxTV1BIQotpF-193">
          <mxGeometry y="52" width="160" height="26" as="geometry" />
        </mxCell>
        <mxCell id="Es_sbu_oqxTV1BIQotpF-196" value="" style="line;strokeWidth=1;fillColor=#d5e8d4;align=left;verticalAlign=middle;spacingTop=-1;spacingLeft=3;spacingRight=3;rotatable=0;labelPosition=right;points=[];portConstraint=eastwest;strokeColor=#82b366;" vertex="1" parent="Es_sbu_oqxTV1BIQotpF-193">
          <mxGeometry y="78" width="160" height="8" as="geometry" />
        </mxCell>
        <mxCell id="Es_sbu_oqxTV1BIQotpF-197" value="Extends" style="endArrow=block;endSize=16;endFill=0;html=1;rounded=0;entryX=0.697;entryY=0.985;entryDx=0;entryDy=0;exitX=0.461;exitY=-0.02;exitDx=0;exitDy=0;exitPerimeter=0;entryPerimeter=0;" edge="1" parent="1" source="Es_sbu_oqxTV1BIQotpF-193" target="Es_sbu_oqxTV1BIQotpF-172">
          <mxGeometry width="160" relative="1" as="geometry">
            <mxPoint x="-1635" y="2102" as="sourcePoint" />
            <mxPoint x="-1478" y="2106" as="targetPoint" />
          </mxGeometry>
        </mxCell>
        <mxCell id="Es_sbu_oqxTV1BIQotpF-211" value="Ствол" style="swimlane;fontStyle=1;align=center;verticalAlign=top;childLayout=stackLayout;horizontal=1;startSize=26;horizontalStack=0;resizeParent=1;resizeParentMax=0;resizeLast=0;collapsible=1;marginBottom=0;whiteSpace=wrap;html=1;" vertex="1" parent="1">
          <mxGeometry x="-610" y="1790" width="250" height="522" as="geometry" />
        </mxCell>
        <mxCell id="Es_sbu_oqxTV1BIQotpF-212" value="+ Название: DateTime" style="text;strokeColor=none;fillColor=none;align=left;verticalAlign=top;spacingLeft=4;spacingRight=4;overflow=hidden;rotatable=0;points=[[0,0.5],[1,0.5]];portConstraint=eastwest;whiteSpace=wrap;html=1;" vertex="1" parent="Es_sbu_oqxTV1BIQotpF-211">
          <mxGeometry y="26" width="250" height="26" as="geometry" />
        </mxCell>
        <mxCell id="Es_sbu_oqxTV1BIQotpF-213" value="+ ОфициальноеНазвание: string" style="text;strokeColor=none;fillColor=none;align=left;verticalAlign=top;spacingLeft=4;spacingRight=4;overflow=hidden;rotatable=0;points=[[0,0.5],[1,0.5]];portConstraint=eastwest;whiteSpace=wrap;html=1;" vertex="1" parent="Es_sbu_oqxTV1BIQotpF-211">
          <mxGeometry y="52" width="250" height="26" as="geometry" />
        </mxCell>
        <mxCell id="Es_sbu_oqxTV1BIQotpF-214" value="+ Описание: string" style="text;strokeColor=none;fillColor=none;align=left;verticalAlign=top;spacingLeft=4;spacingRight=4;overflow=hidden;rotatable=0;points=[[0,0.5],[1,0.5]];portConstraint=eastwest;whiteSpace=wrap;html=1;" vertex="1" parent="Es_sbu_oqxTV1BIQotpF-211">
          <mxGeometry y="78" width="250" height="26" as="geometry" />
        </mxCell>
        <mxCell id="Es_sbu_oqxTV1BIQotpF-215" value="+ МестоположениеЗабоя: string" style="text;strokeColor=#b85450;fillColor=#f8cecc;align=left;verticalAlign=top;spacingLeft=4;spacingRight=4;overflow=hidden;rotatable=0;points=[[0,0.5],[1,0.5]];portConstraint=eastwest;whiteSpace=wrap;html=1;" vertex="1" parent="Es_sbu_oqxTV1BIQotpF-211">
          <mxGeometry y="104" width="250" height="26" as="geometry" />
        </mxCell>
        <mxCell id="Es_sbu_oqxTV1BIQotpF-216" value="+ UWI: string" style="text;strokeColor=none;fillColor=none;align=left;verticalAlign=top;spacingLeft=4;spacingRight=4;overflow=hidden;rotatable=0;points=[[0,0.5],[1,0.5]];portConstraint=eastwest;whiteSpace=wrap;html=1;" vertex="1" parent="Es_sbu_oqxTV1BIQotpF-211">
          <mxGeometry y="130" width="250" height="26" as="geometry" />
        </mxCell>
        <mxCell id="Es_sbu_oqxTV1BIQotpF-217" value="+ APINumber: string" style="text;strokeColor=none;fillColor=none;align=left;verticalAlign=top;spacingLeft=4;spacingRight=4;overflow=hidden;rotatable=0;points=[[0,0.5],[1,0.5]];portConstraint=eastwest;whiteSpace=wrap;html=1;" vertex="1" parent="Es_sbu_oqxTV1BIQotpF-211">
          <mxGeometry y="156" width="250" height="26" as="geometry" />
        </mxCell>
        <mxCell id="Es_sbu_oqxTV1BIQotpF-218" value="+ APIIndexNumber: string" style="text;align=left;verticalAlign=top;spacingLeft=4;spacingRight=4;overflow=hidden;rotatable=0;points=[[0,0.5],[1,0.5]];portConstraint=eastwest;whiteSpace=wrap;html=1;" vertex="1" parent="Es_sbu_oqxTV1BIQotpF-211">
          <mxGeometry y="182" width="250" height="26" as="geometry" />
        </mxCell>
        <mxCell id="Es_sbu_oqxTV1BIQotpF-219" value="+ ТипСтвола: ТипСтволаEnum" style="text;strokeColor=none;fillColor=none;align=left;verticalAlign=top;spacingLeft=4;spacingRight=4;overflow=hidden;rotatable=0;points=[[0,0.5],[1,0.5]];portConstraint=eastwest;whiteSpace=wrap;html=1;" vertex="1" parent="Es_sbu_oqxTV1BIQotpF-211">
          <mxGeometry y="208" width="250" height="26" as="geometry" />
        </mxCell>
        <mxCell id="Es_sbu_oqxTV1BIQotpF-220" value="+ Заблокировано: bool" style="text;strokeColor=none;fillColor=none;align=left;verticalAlign=top;spacingLeft=4;spacingRight=4;overflow=hidden;rotatable=0;points=[[0,0.5],[1,0.5]];portConstraint=eastwest;whiteSpace=wrap;html=1;" vertex="1" parent="Es_sbu_oqxTV1BIQotpF-211">
          <mxGeometry y="234" width="250" height="26" as="geometry" />
        </mxCell>
        <mxCell id="Es_sbu_oqxTV1BIQotpF-221" value="+ ИсходныйСтвол: string (выбор)&amp;nbsp;" style="text;strokeColor=none;fillColor=none;align=left;verticalAlign=top;spacingLeft=4;spacingRight=4;overflow=hidden;rotatable=0;points=[[0,0.5],[1,0.5]];portConstraint=eastwest;whiteSpace=wrap;html=1;" vertex="1" parent="Es_sbu_oqxTV1BIQotpF-211">
          <mxGeometry y="260" width="250" height="26" as="geometry" />
        </mxCell>
        <mxCell id="Es_sbu_oqxTV1BIQotpF-235" value="+ МагнитныеДанные: МагнитныеДанные" style="text;strokeColor=#b85450;fillColor=#f8cecc;align=left;verticalAlign=top;spacingLeft=4;spacingRight=4;overflow=hidden;rotatable=0;points=[[0,0.5],[1,0.5]];portConstraint=eastwest;whiteSpace=wrap;html=1;" vertex="1" parent="Es_sbu_oqxTV1BIQotpF-211">
          <mxGeometry y="286" width="250" height="44" as="geometry" />
        </mxCell>
        <mxCell id="Es_sbu_oqxTV1BIQotpF-223" value="+ СпискоЦветовПредупрежд: СпискоЦветовПредупрежд" style="text;strokeColor=#b85450;fillColor=#f8cecc;align=left;verticalAlign=top;spacingLeft=4;spacingRight=4;overflow=hidden;rotatable=0;points=[[0,0.5],[1,0.5]];portConstraint=eastwest;whiteSpace=wrap;html=1;" vertex="1" parent="Es_sbu_oqxTV1BIQotpF-211">
          <mxGeometry y="330" width="250" height="44" as="geometry" />
        </mxCell>
        <mxCell id="Es_sbu_oqxTV1BIQotpF-237" value="+ АудитИнформации: АудитИнформации" style="text;strokeColor=#b85450;fillColor=#f8cecc;align=left;verticalAlign=top;spacingLeft=4;spacingRight=4;overflow=hidden;rotatable=0;points=[[0,0.5],[1,0.5]];portConstraint=eastwest;whiteSpace=wrap;html=1;" vertex="1" parent="Es_sbu_oqxTV1BIQotpF-211">
          <mxGeometry y="374" width="250" height="44" as="geometry" />
        </mxCell>
        <mxCell id="Es_sbu_oqxTV1BIQotpF-236" value="+ ИсторияИзменений: ИсторияИзменений" style="text;strokeColor=#b85450;fillColor=#f8cecc;align=left;verticalAlign=top;spacingLeft=4;spacingRight=4;overflow=hidden;rotatable=0;points=[[0,0.5],[1,0.5]];portConstraint=eastwest;whiteSpace=wrap;html=1;" vertex="1" parent="Es_sbu_oqxTV1BIQotpF-211">
          <mxGeometry y="418" width="250" height="44" as="geometry" />
        </mxCell>
        <mxCell id="Es_sbu_oqxTV1BIQotpF-226" value="" style="line;strokeWidth=1;fillColor=none;align=left;verticalAlign=middle;spacingTop=-1;spacingLeft=3;spacingRight=3;rotatable=0;labelPosition=right;points=[];portConstraint=eastwest;strokeColor=inherit;" vertex="1" parent="Es_sbu_oqxTV1BIQotpF-211">
          <mxGeometry y="462" width="250" height="8" as="geometry" />
        </mxCell>
        <mxCell id="Es_sbu_oqxTV1BIQotpF-227" value="+ СоздатьПлан(): План" style="text;strokeColor=#d6b656;fillColor=#fff2cc;align=left;verticalAlign=top;spacingLeft=4;spacingRight=4;overflow=hidden;rotatable=0;points=[[0,0.5],[1,0.5]];portConstraint=eastwest;whiteSpace=wrap;html=1;" vertex="1" parent="Es_sbu_oqxTV1BIQotpF-211">
          <mxGeometry y="470" width="250" height="26" as="geometry" />
        </mxCell>
        <mxCell id="Es_sbu_oqxTV1BIQotpF-228" value="+ СоздатьФакт(): Факт" style="text;strokeColor=#d6b656;fillColor=#fff2cc;align=left;verticalAlign=top;spacingLeft=4;spacingRight=4;overflow=hidden;rotatable=0;points=[[0,0.5],[1,0.5]];portConstraint=eastwest;whiteSpace=wrap;html=1;" vertex="1" parent="Es_sbu_oqxTV1BIQotpF-211">
          <mxGeometry y="496" width="250" height="26" as="geometry" />
        </mxCell>
        <mxCell id="Es_sbu_oqxTV1BIQotpF-229" value="&lt;span style=&quot;text-align: left;&quot;&gt;ТипСтволаEnum&lt;/span&gt;" style="swimlane;fontStyle=0;childLayout=stackLayout;horizontal=1;startSize=26;fillColor=none;horizontalStack=0;resizeParent=1;resizeParentMax=0;resizeLast=0;collapsible=1;marginBottom=0;whiteSpace=wrap;html=1;" vertex="1" parent="1">
          <mxGeometry x="-190" y="2000" width="140" height="52" as="geometry" />
        </mxCell>
        <mxCell id="Es_sbu_oqxTV1BIQotpF-230" value="+ field: type" style="text;strokeColor=#b85450;fillColor=#f8cecc;align=left;verticalAlign=top;spacingLeft=4;spacingRight=4;overflow=hidden;rotatable=0;points=[[0,0.5],[1,0.5]];portConstraint=eastwest;whiteSpace=wrap;html=1;" vertex="1" parent="Es_sbu_oqxTV1BIQotpF-229">
          <mxGeometry y="26" width="140" height="26" as="geometry" />
        </mxCell>
        <mxCell id="Es_sbu_oqxTV1BIQotpF-233" value="" style="edgeStyle=elbowEdgeStyle;elbow=horizontal;endArrow=classic;html=1;curved=0;rounded=0;endSize=8;startSize=8;exitX=1;exitY=0.5;exitDx=0;exitDy=0;entryX=0;entryY=0.25;entryDx=0;entryDy=0;" edge="1" parent="1" source="Es_sbu_oqxTV1BIQotpF-219" target="Es_sbu_oqxTV1BIQotpF-229">
          <mxGeometry width="50" height="50" relative="1" as="geometry">
            <mxPoint x="-220" y="1940" as="sourcePoint" />
            <mxPoint x="-170" y="1890" as="targetPoint" />
          </mxGeometry>
        </mxCell>
        <mxCell id="Es_sbu_oqxTV1BIQotpF-238" value="Факт" style="swimlane;fontStyle=1;align=center;verticalAlign=top;childLayout=stackLayout;horizontal=1;startSize=26;horizontalStack=0;resizeParent=1;resizeParentMax=0;resizeLast=0;collapsible=1;marginBottom=0;whiteSpace=wrap;html=1;" vertex="1" parent="1">
          <mxGeometry x="-900" y="2420" width="180" height="236" as="geometry" />
        </mxCell>
        <mxCell id="Es_sbu_oqxTV1BIQotpF-239" value="+ Название: string" style="text;strokeColor=none;fillColor=none;align=left;verticalAlign=top;spacingLeft=4;spacingRight=4;overflow=hidden;rotatable=0;points=[[0,0.5],[1,0.5]];portConstraint=eastwest;whiteSpace=wrap;html=1;" vertex="1" parent="Es_sbu_oqxTV1BIQotpF-238">
          <mxGeometry y="26" width="180" height="26" as="geometry" />
        </mxCell>
        <mxCell id="Es_sbu_oqxTV1BIQotpF-243" value="+ Версия: double" style="text;strokeColor=none;fillColor=none;align=left;verticalAlign=top;spacingLeft=4;spacingRight=4;overflow=hidden;rotatable=0;points=[[0,0.5],[1,0.5]];portConstraint=eastwest;whiteSpace=wrap;html=1;" vertex="1" parent="Es_sbu_oqxTV1BIQotpF-238">
          <mxGeometry y="52" width="180" height="26" as="geometry" />
        </mxCell>
        <mxCell id="Es_sbu_oqxTV1BIQotpF-244" value="+ ЭффективнДата: DateTime" style="text;strokeColor=none;fillColor=none;align=left;verticalAlign=top;spacingLeft=4;spacingRight=4;overflow=hidden;rotatable=0;points=[[0,0.5],[1,0.5]];portConstraint=eastwest;whiteSpace=wrap;html=1;" vertex="1" parent="Es_sbu_oqxTV1BIQotpF-238">
          <mxGeometry y="78" width="180" height="26" as="geometry" />
        </mxCell>
        <mxCell id="Es_sbu_oqxTV1BIQotpF-262" value="+ ИспользоватьДату: bool" style="text;strokeColor=none;fillColor=none;align=left;verticalAlign=top;spacingLeft=4;spacingRight=4;overflow=hidden;rotatable=0;points=[[0,0.5],[1,0.5]];portConstraint=eastwest;whiteSpace=wrap;html=1;" vertex="1" parent="Es_sbu_oqxTV1BIQotpF-238">
          <mxGeometry y="104" width="180" height="26" as="geometry" />
        </mxCell>
        <mxCell id="Es_sbu_oqxTV1BIQotpF-250" value="+ Заблокировано: bool" style="text;strokeColor=none;fillColor=none;align=left;verticalAlign=top;spacingLeft=4;spacingRight=4;overflow=hidden;rotatable=0;points=[[0,0.5],[1,0.5]];portConstraint=eastwest;whiteSpace=wrap;html=1;" vertex="1" parent="Es_sbu_oqxTV1BIQotpF-238">
          <mxGeometry y="130" width="180" height="26" as="geometry" />
        </mxCell>
        <mxCell id="Es_sbu_oqxTV1BIQotpF-245" value="+ СистемаОтсчетаГлубин: ВозвышениеАльтитуд (выбор)" style="text;strokeColor=none;fillColor=none;align=left;verticalAlign=top;spacingLeft=4;spacingRight=4;overflow=hidden;rotatable=0;points=[[0,0.5],[1,0.5]];portConstraint=eastwest;whiteSpace=wrap;html=1;" vertex="1" parent="Es_sbu_oqxTV1BIQotpF-238">
          <mxGeometry y="156" width="180" height="46" as="geometry" />
        </mxCell>
        <mxCell id="Es_sbu_oqxTV1BIQotpF-240" value="" style="line;strokeWidth=1;fillColor=none;align=left;verticalAlign=middle;spacingTop=-1;spacingLeft=3;spacingRight=3;rotatable=0;labelPosition=right;points=[];portConstraint=eastwest;strokeColor=inherit;" vertex="1" parent="Es_sbu_oqxTV1BIQotpF-238">
          <mxGeometry y="202" width="180" height="8" as="geometry" />
        </mxCell>
        <mxCell id="Es_sbu_oqxTV1BIQotpF-241" value="+ СоздатьЗамер(): Замер" style="text;strokeColor=none;fillColor=none;align=left;verticalAlign=top;spacingLeft=4;spacingRight=4;overflow=hidden;rotatable=0;points=[[0,0.5],[1,0.5]];portConstraint=eastwest;whiteSpace=wrap;html=1;" vertex="1" parent="Es_sbu_oqxTV1BIQotpF-238">
          <mxGeometry y="210" width="180" height="26" as="geometry" />
        </mxCell>
        <mxCell id="Es_sbu_oqxTV1BIQotpF-246" value="return" style="html=1;verticalAlign=bottom;endArrow=open;dashed=1;endSize=8;curved=0;rounded=0;entryX=1;entryY=0.031;entryDx=0;entryDy=0;entryPerimeter=0;exitX=0;exitY=0.5;exitDx=0;exitDy=0;" edge="1" parent="1" source="Es_sbu_oqxTV1BIQotpF-123" target="Es_sbu_oqxTV1BIQotpF-125">
          <mxGeometry relative="1" as="geometry">
            <mxPoint x="-410" y="1420" as="sourcePoint" />
            <mxPoint x="-490" y="1420" as="targetPoint" />
            <Array as="points">
              <mxPoint x="-570" y="1400" />
            </Array>
          </mxGeometry>
        </mxCell>
        <mxCell id="Es_sbu_oqxTV1BIQotpF-247" value="return" style="html=1;verticalAlign=bottom;endArrow=open;dashed=1;endSize=8;curved=0;rounded=0;exitX=1;exitY=0.5;exitDx=0;exitDy=0;entryX=0.003;entryY=0.027;entryDx=0;entryDy=0;entryPerimeter=0;" edge="1" parent="1" source="Es_sbu_oqxTV1BIQotpF-128" target="Es_sbu_oqxTV1BIQotpF-211">
          <mxGeometry relative="1" as="geometry">
            <mxPoint x="-680" y="2010" as="sourcePoint" />
            <mxPoint x="-760" y="2010" as="targetPoint" />
          </mxGeometry>
        </mxCell>
        <mxCell id="Es_sbu_oqxTV1BIQotpF-248" value="return" style="html=1;verticalAlign=bottom;endArrow=open;dashed=1;endSize=8;curved=0;rounded=0;exitX=0;exitY=0.5;exitDx=0;exitDy=0;entryX=0.547;entryY=-0.014;entryDx=0;entryDy=0;entryPerimeter=0;" edge="1" parent="1" source="Es_sbu_oqxTV1BIQotpF-228" target="Es_sbu_oqxTV1BIQotpF-238">
          <mxGeometry relative="1" as="geometry">
            <mxPoint x="-690" y="2320" as="sourcePoint" />
            <mxPoint x="-770" y="2320" as="targetPoint" />
          </mxGeometry>
        </mxCell>
        <mxCell id="Es_sbu_oqxTV1BIQotpF-249" style="edgeStyle=orthogonalEdgeStyle;rounded=0;orthogonalLoop=1;jettySize=auto;html=1;entryX=0;entryY=0.5;entryDx=0;entryDy=0;" edge="1" parent="1" source="Es_sbu_oqxTV1BIQotpF-144" target="Es_sbu_oqxTV1BIQotpF-245">
          <mxGeometry relative="1" as="geometry">
            <mxPoint x="-950" y="2550" as="targetPoint" />
            <Array as="points">
              <mxPoint x="-1060" y="1768" />
              <mxPoint x="-1060" y="2573" />
            </Array>
          </mxGeometry>
        </mxCell>
        <mxCell id="Es_sbu_oqxTV1BIQotpF-251" value="Замер" style="swimlane;fontStyle=1;align=center;verticalAlign=top;childLayout=stackLayout;horizontal=1;startSize=26;horizontalStack=0;resizeParent=1;resizeParentMax=0;resizeLast=0;collapsible=1;marginBottom=0;whiteSpace=wrap;html=1;" vertex="1" parent="1">
          <mxGeometry x="-1321" y="2760" width="191" height="442" as="geometry" />
        </mxCell>
        <mxCell id="Es_sbu_oqxTV1BIQotpF-252" value="+ Название: string" style="text;strokeColor=none;fillColor=none;align=left;verticalAlign=top;spacingLeft=4;spacingRight=4;overflow=hidden;rotatable=0;points=[[0,0.5],[1,0.5]];portConstraint=eastwest;whiteSpace=wrap;html=1;" vertex="1" parent="Es_sbu_oqxTV1BIQotpF-251">
          <mxGeometry y="26" width="191" height="26" as="geometry" />
        </mxCell>
        <mxCell id="Es_sbu_oqxTV1BIQotpF-256" value="+ Описание: string" style="text;strokeColor=none;fillColor=none;align=left;verticalAlign=top;spacingLeft=4;spacingRight=4;overflow=hidden;rotatable=0;points=[[0,0.5],[1,0.5]];portConstraint=eastwest;whiteSpace=wrap;html=1;" vertex="1" parent="Es_sbu_oqxTV1BIQotpF-251">
          <mxGeometry y="52" width="191" height="26" as="geometry" />
        </mxCell>
        <mxCell id="Es_sbu_oqxTV1BIQotpF-258" value="+ Компания: string" style="text;strokeColor=none;fillColor=none;align=left;verticalAlign=top;spacingLeft=4;spacingRight=4;overflow=hidden;rotatable=0;points=[[0,0.5],[1,0.5]];portConstraint=eastwest;whiteSpace=wrap;html=1;" vertex="1" parent="Es_sbu_oqxTV1BIQotpF-251">
          <mxGeometry y="78" width="191" height="26" as="geometry" />
        </mxCell>
        <mxCell id="Es_sbu_oqxTV1BIQotpF-261" value="+ Инженер: string" style="text;strokeColor=none;fillColor=none;align=left;verticalAlign=top;spacingLeft=4;spacingRight=4;overflow=hidden;rotatable=0;points=[[0,0.5],[1,0.5]];portConstraint=eastwest;whiteSpace=wrap;html=1;" vertex="1" parent="Es_sbu_oqxTV1BIQotpF-251">
          <mxGeometry y="104" width="191" height="26" as="geometry" />
        </mxCell>
        <mxCell id="Es_sbu_oqxTV1BIQotpF-260" value="+ field: type" style="text;strokeColor=none;fillColor=none;align=left;verticalAlign=top;spacingLeft=4;spacingRight=4;overflow=hidden;rotatable=0;points=[[0,0.5],[1,0.5]];portConstraint=eastwest;whiteSpace=wrap;html=1;" vertex="1" parent="Es_sbu_oqxTV1BIQotpF-251">
          <mxGeometry y="130" width="191" height="26" as="geometry" />
        </mxCell>
        <mxCell id="Es_sbu_oqxTV1BIQotpF-271" value="+ Заблокировано: bool" style="text;strokeColor=none;fillColor=none;align=left;verticalAlign=top;spacingLeft=4;spacingRight=4;overflow=hidden;rotatable=0;points=[[0,0.5],[1,0.5]];portConstraint=eastwest;whiteSpace=wrap;html=1;" vertex="1" parent="Es_sbu_oqxTV1BIQotpF-251">
          <mxGeometry y="156" width="191" height="26" as="geometry" />
        </mxCell>
        <mxCell id="Es_sbu_oqxTV1BIQotpF-267" value="+ ДатаНачала: DateTime" style="text;strokeColor=none;fillColor=none;align=left;verticalAlign=top;spacingLeft=4;spacingRight=4;overflow=hidden;rotatable=0;points=[[0,0.5],[1,0.5]];portConstraint=eastwest;whiteSpace=wrap;html=1;" vertex="1" parent="Es_sbu_oqxTV1BIQotpF-251">
          <mxGeometry y="182" width="191" height="34" as="geometry" />
        </mxCell>
        <mxCell id="Es_sbu_oqxTV1BIQotpF-268" value="+ ИспользоватьДатуНачала: bool" style="text;strokeColor=none;fillColor=none;align=left;verticalAlign=top;spacingLeft=4;spacingRight=4;overflow=hidden;rotatable=0;points=[[0,0.5],[1,0.5]];portConstraint=eastwest;whiteSpace=wrap;html=1;" vertex="1" parent="Es_sbu_oqxTV1BIQotpF-251">
          <mxGeometry y="216" width="191" height="40" as="geometry" />
        </mxCell>
        <mxCell id="Es_sbu_oqxTV1BIQotpF-269" value="+ ДатаКонца: DateTime" style="text;strokeColor=none;fillColor=none;align=left;verticalAlign=top;spacingLeft=4;spacingRight=4;overflow=hidden;rotatable=0;points=[[0,0.5],[1,0.5]];portConstraint=eastwest;whiteSpace=wrap;html=1;" vertex="1" parent="Es_sbu_oqxTV1BIQotpF-251">
          <mxGeometry y="256" width="191" height="34" as="geometry" />
        </mxCell>
        <mxCell id="Es_sbu_oqxTV1BIQotpF-270" value="+ ИспользоватьДатуКонца: bool" style="text;strokeColor=none;fillColor=none;align=left;verticalAlign=top;spacingLeft=4;spacingRight=4;overflow=hidden;rotatable=0;points=[[0,0.5],[1,0.5]];portConstraint=eastwest;whiteSpace=wrap;html=1;" vertex="1" parent="Es_sbu_oqxTV1BIQotpF-251">
          <mxGeometry y="290" width="191" height="40" as="geometry" />
        </mxCell>
        <mxCell id="Es_sbu_oqxTV1BIQotpF-259" value="+ ТипЗамера: ТипЗамераEnum" style="text;strokeColor=none;fillColor=none;align=left;verticalAlign=top;spacingLeft=4;spacingRight=4;overflow=hidden;rotatable=0;points=[[0,0.5],[1,0.5]];portConstraint=eastwest;whiteSpace=wrap;html=1;" vertex="1" parent="Es_sbu_oqxTV1BIQotpF-251">
          <mxGeometry y="330" width="191" height="26" as="geometry" />
        </mxCell>
        <mxCell id="Es_sbu_oqxTV1BIQotpF-257" value="+ Прибор: Прибор" style="text;strokeColor=none;fillColor=none;align=left;verticalAlign=top;spacingLeft=4;spacingRight=4;overflow=hidden;rotatable=0;points=[[0,0.5],[1,0.5]];portConstraint=eastwest;whiteSpace=wrap;html=1;" vertex="1" parent="Es_sbu_oqxTV1BIQotpF-251">
          <mxGeometry y="356" width="191" height="26" as="geometry" />
        </mxCell>
        <mxCell id="Es_sbu_oqxTV1BIQotpF-286" value="+ Привязка: Привязка" style="text;strokeColor=none;fillColor=none;align=left;verticalAlign=top;spacingLeft=4;spacingRight=4;overflow=hidden;rotatable=0;points=[[0,0.5],[1,0.5]];portConstraint=eastwest;whiteSpace=wrap;html=1;" vertex="1" parent="Es_sbu_oqxTV1BIQotpF-251">
          <mxGeometry y="382" width="191" height="26" as="geometry" />
        </mxCell>
        <mxCell id="Es_sbu_oqxTV1BIQotpF-253" value="" style="line;strokeWidth=1;fillColor=none;align=left;verticalAlign=middle;spacingTop=-1;spacingLeft=3;spacingRight=3;rotatable=0;labelPosition=right;points=[];portConstraint=eastwest;strokeColor=inherit;" vertex="1" parent="Es_sbu_oqxTV1BIQotpF-251">
          <mxGeometry y="408" width="191" height="8" as="geometry" />
        </mxCell>
        <mxCell id="Es_sbu_oqxTV1BIQotpF-254" value="+ method(type): type" style="text;strokeColor=#d6b656;fillColor=#fff2cc;align=left;verticalAlign=top;spacingLeft=4;spacingRight=4;overflow=hidden;rotatable=0;points=[[0,0.5],[1,0.5]];portConstraint=eastwest;whiteSpace=wrap;html=1;" vertex="1" parent="Es_sbu_oqxTV1BIQotpF-251">
          <mxGeometry y="416" width="191" height="26" as="geometry" />
        </mxCell>
        <mxCell id="Es_sbu_oqxTV1BIQotpF-255" style="edgeStyle=orthogonalEdgeStyle;rounded=0;orthogonalLoop=1;jettySize=auto;html=1;" edge="1" parent="1" source="Es_sbu_oqxTV1BIQotpF-241" target="Es_sbu_oqxTV1BIQotpF-251">
          <mxGeometry relative="1" as="geometry" />
        </mxCell>
        <mxCell id="Es_sbu_oqxTV1BIQotpF-272" value="&lt;span style=&quot;text-align: left;&quot;&gt;ТипЗамераEnum&lt;/span&gt;" style="swimlane;fontStyle=0;childLayout=stackLayout;horizontal=1;startSize=26;fillColor=none;horizontalStack=0;resizeParent=1;resizeParentMax=0;resizeLast=0;collapsible=1;marginBottom=0;whiteSpace=wrap;html=1;" vertex="1" parent="1">
          <mxGeometry x="-1040" y="3066" width="140" height="182" as="geometry" />
        </mxCell>
        <mxCell id="Es_sbu_oqxTV1BIQotpF-273" value="Нормальный" style="text;strokeColor=none;fillColor=none;align=left;verticalAlign=top;spacingLeft=4;spacingRight=4;overflow=hidden;rotatable=0;points=[[0,0.5],[1,0.5]];portConstraint=eastwest;whiteSpace=wrap;html=1;" vertex="1" parent="Es_sbu_oqxTV1BIQotpF-272">
          <mxGeometry y="26" width="140" height="26" as="geometry" />
        </mxCell>
        <mxCell id="Es_sbu_oqxTV1BIQotpF-274" value="ТолькоЗенитныйУгол" style="text;strokeColor=none;fillColor=none;align=left;verticalAlign=top;spacingLeft=4;spacingRight=4;overflow=hidden;rotatable=0;points=[[0,0.5],[1,0.5]];portConstraint=eastwest;whiteSpace=wrap;html=1;" vertex="1" parent="Es_sbu_oqxTV1BIQotpF-272">
          <mxGeometry y="52" width="140" height="26" as="geometry" />
        </mxCell>
        <mxCell id="Es_sbu_oqxTV1BIQotpF-275" value="ИнерциальныйАзимут" style="text;strokeColor=none;fillColor=none;align=left;verticalAlign=top;spacingLeft=4;spacingRight=4;overflow=hidden;rotatable=0;points=[[0,0.5],[1,0.5]];portConstraint=eastwest;whiteSpace=wrap;html=1;" vertex="1" parent="Es_sbu_oqxTV1BIQotpF-272">
          <mxGeometry y="78" width="140" height="26" as="geometry" />
        </mxCell>
        <mxCell id="Es_sbu_oqxTV1BIQotpF-276" value="НормальныйSAGD" style="text;strokeColor=none;fillColor=none;align=left;verticalAlign=top;spacingLeft=4;spacingRight=4;overflow=hidden;rotatable=0;points=[[0,0.5],[1,0.5]];portConstraint=eastwest;whiteSpace=wrap;html=1;" vertex="1" parent="Es_sbu_oqxTV1BIQotpF-272">
          <mxGeometry y="104" width="140" height="26" as="geometry" />
        </mxCell>
        <mxCell id="Es_sbu_oqxTV1BIQotpF-278" value="Инерциальный" style="text;strokeColor=none;fillColor=none;align=left;verticalAlign=top;spacingLeft=4;spacingRight=4;overflow=hidden;rotatable=0;points=[[0,0.5],[1,0.5]];portConstraint=eastwest;whiteSpace=wrap;html=1;" vertex="1" parent="Es_sbu_oqxTV1BIQotpF-272">
          <mxGeometry y="130" width="140" height="26" as="geometry" />
        </mxCell>
        <mxCell id="Es_sbu_oqxTV1BIQotpF-279" value="ИнерциальныйСплайн" style="text;strokeColor=none;fillColor=none;align=left;verticalAlign=top;spacingLeft=4;spacingRight=4;overflow=hidden;rotatable=0;points=[[0,0.5],[1,0.5]];portConstraint=eastwest;whiteSpace=wrap;html=1;" vertex="1" parent="Es_sbu_oqxTV1BIQotpF-272">
          <mxGeometry y="156" width="140" height="26" as="geometry" />
        </mxCell>
        <mxCell id="Es_sbu_oqxTV1BIQotpF-280" style="edgeStyle=orthogonalEdgeStyle;rounded=0;orthogonalLoop=1;jettySize=auto;html=1;entryX=0.25;entryY=0;entryDx=0;entryDy=0;" edge="1" parent="1" source="Es_sbu_oqxTV1BIQotpF-259" target="Es_sbu_oqxTV1BIQotpF-272">
          <mxGeometry relative="1" as="geometry" />
        </mxCell>
        <mxCell id="Es_sbu_oqxTV1BIQotpF-281" value="Прибор" style="swimlane;fontStyle=1;align=center;verticalAlign=top;childLayout=stackLayout;horizontal=1;startSize=26;horizontalStack=0;resizeParent=1;resizeParentMax=0;resizeLast=0;collapsible=1;marginBottom=0;whiteSpace=wrap;html=1;fillColor=#f8cecc;strokeColor=#b85450;" vertex="1" parent="1">
          <mxGeometry x="-2100" y="3081" width="160" height="86" as="geometry" />
        </mxCell>
        <mxCell id="Es_sbu_oqxTV1BIQotpF-282" value="+ field: type" style="text;strokeColor=none;fillColor=none;align=left;verticalAlign=top;spacingLeft=4;spacingRight=4;overflow=hidden;rotatable=0;points=[[0,0.5],[1,0.5]];portConstraint=eastwest;whiteSpace=wrap;html=1;" vertex="1" parent="Es_sbu_oqxTV1BIQotpF-281">
          <mxGeometry y="26" width="160" height="26" as="geometry" />
        </mxCell>
        <mxCell id="Es_sbu_oqxTV1BIQotpF-283" value="" style="line;strokeWidth=1;fillColor=none;align=left;verticalAlign=middle;spacingTop=-1;spacingLeft=3;spacingRight=3;rotatable=0;labelPosition=right;points=[];portConstraint=eastwest;strokeColor=inherit;" vertex="1" parent="Es_sbu_oqxTV1BIQotpF-281">
          <mxGeometry y="52" width="160" height="8" as="geometry" />
        </mxCell>
        <mxCell id="Es_sbu_oqxTV1BIQotpF-284" value="+ method(type): type" style="text;strokeColor=none;fillColor=none;align=left;verticalAlign=top;spacingLeft=4;spacingRight=4;overflow=hidden;rotatable=0;points=[[0,0.5],[1,0.5]];portConstraint=eastwest;whiteSpace=wrap;html=1;" vertex="1" parent="Es_sbu_oqxTV1BIQotpF-281">
          <mxGeometry y="60" width="160" height="26" as="geometry" />
        </mxCell>
        <mxCell id="Es_sbu_oqxTV1BIQotpF-285" style="edgeStyle=orthogonalEdgeStyle;rounded=0;orthogonalLoop=1;jettySize=auto;html=1;entryX=1;entryY=0.105;entryDx=0;entryDy=0;entryPerimeter=0;" edge="1" parent="1" source="Es_sbu_oqxTV1BIQotpF-257" target="Es_sbu_oqxTV1BIQotpF-281">
          <mxGeometry relative="1" as="geometry" />
        </mxCell>
        <mxCell id="Es_sbu_oqxTV1BIQotpF-287" value="&lt;span style=&quot;font-weight: 400; text-align: left;&quot;&gt;Привязка&lt;/span&gt;" style="swimlane;fontStyle=1;align=center;verticalAlign=top;childLayout=stackLayout;horizontal=1;startSize=26;horizontalStack=0;resizeParent=1;resizeParentMax=0;resizeLast=0;collapsible=1;marginBottom=0;whiteSpace=wrap;html=1;" vertex="1" parent="1">
          <mxGeometry x="-1660" y="3260" width="200" height="242" as="geometry" />
        </mxCell>
        <mxCell id="Es_sbu_oqxTV1BIQotpF-288" value="+ ТочкаПривязки: ТочкаПривязки" style="text;strokeColor=none;fillColor=none;align=left;verticalAlign=top;spacingLeft=4;spacingRight=4;overflow=hidden;rotatable=0;points=[[0,0.5],[1,0.5]];portConstraint=eastwest;whiteSpace=wrap;html=1;" vertex="1" parent="Es_sbu_oqxTV1BIQotpF-287">
          <mxGeometry y="26" width="200" height="26" as="geometry" />
        </mxCell>
        <mxCell id="Es_sbu_oqxTV1BIQotpF-292" value="+ ГС: double" style="text;strokeColor=none;fillColor=none;align=left;verticalAlign=top;spacingLeft=4;spacingRight=4;overflow=hidden;rotatable=0;points=[[0,0.5],[1,0.5]];portConstraint=eastwest;whiteSpace=wrap;html=1;" vertex="1" parent="Es_sbu_oqxTV1BIQotpF-287">
          <mxGeometry y="52" width="200" height="26" as="geometry" />
        </mxCell>
        <mxCell id="Es_sbu_oqxTV1BIQotpF-293" value="+ ЗУ: double" style="text;strokeColor=none;fillColor=none;align=left;verticalAlign=top;spacingLeft=4;spacingRight=4;overflow=hidden;rotatable=0;points=[[0,0.5],[1,0.5]];portConstraint=eastwest;whiteSpace=wrap;html=1;" vertex="1" parent="Es_sbu_oqxTV1BIQotpF-287">
          <mxGeometry y="78" width="200" height="26" as="geometry" />
        </mxCell>
        <mxCell id="Es_sbu_oqxTV1BIQotpF-295" value="+ Азимут: double" style="text;strokeColor=none;fillColor=none;align=left;verticalAlign=top;spacingLeft=4;spacingRight=4;overflow=hidden;rotatable=0;points=[[0,0.5],[1,0.5]];portConstraint=eastwest;whiteSpace=wrap;html=1;" vertex="1" parent="Es_sbu_oqxTV1BIQotpF-287">
          <mxGeometry y="104" width="200" height="26" as="geometry" />
        </mxCell>
        <mxCell id="Es_sbu_oqxTV1BIQotpF-296" value="+ ГВ: double" style="text;strokeColor=none;fillColor=none;align=left;verticalAlign=top;spacingLeft=4;spacingRight=4;overflow=hidden;rotatable=0;points=[[0,0.5],[1,0.5]];portConstraint=eastwest;whiteSpace=wrap;html=1;" vertex="1" parent="Es_sbu_oqxTV1BIQotpF-287">
          <mxGeometry y="130" width="200" height="26" as="geometry" />
        </mxCell>
        <mxCell id="Es_sbu_oqxTV1BIQotpF-297" value="+ СЮ: double" style="text;strokeColor=none;fillColor=none;align=left;verticalAlign=top;spacingLeft=4;spacingRight=4;overflow=hidden;rotatable=0;points=[[0,0.5],[1,0.5]];portConstraint=eastwest;whiteSpace=wrap;html=1;" vertex="1" parent="Es_sbu_oqxTV1BIQotpF-287">
          <mxGeometry y="156" width="200" height="26" as="geometry" />
        </mxCell>
        <mxCell id="Es_sbu_oqxTV1BIQotpF-298" value="+ ВЗ: double" style="text;strokeColor=none;fillColor=none;align=left;verticalAlign=top;spacingLeft=4;spacingRight=4;overflow=hidden;rotatable=0;points=[[0,0.5],[1,0.5]];portConstraint=eastwest;whiteSpace=wrap;html=1;" vertex="1" parent="Es_sbu_oqxTV1BIQotpF-287">
          <mxGeometry y="182" width="200" height="26" as="geometry" />
        </mxCell>
        <mxCell id="Es_sbu_oqxTV1BIQotpF-289" value="" style="line;strokeWidth=1;fillColor=none;align=left;verticalAlign=middle;spacingTop=-1;spacingLeft=3;spacingRight=3;rotatable=0;labelPosition=right;points=[];portConstraint=eastwest;strokeColor=inherit;" vertex="1" parent="Es_sbu_oqxTV1BIQotpF-287">
          <mxGeometry y="208" width="200" height="8" as="geometry" />
        </mxCell>
        <mxCell id="Es_sbu_oqxTV1BIQotpF-290" value="+ method(type): type" style="text;strokeColor=none;fillColor=none;align=left;verticalAlign=top;spacingLeft=4;spacingRight=4;overflow=hidden;rotatable=0;points=[[0,0.5],[1,0.5]];portConstraint=eastwest;whiteSpace=wrap;html=1;" vertex="1" parent="Es_sbu_oqxTV1BIQotpF-287">
          <mxGeometry y="216" width="200" height="26" as="geometry" />
        </mxCell>
        <mxCell id="Es_sbu_oqxTV1BIQotpF-291" style="edgeStyle=orthogonalEdgeStyle;rounded=0;orthogonalLoop=1;jettySize=auto;html=1;entryX=0.457;entryY=0.006;entryDx=0;entryDy=0;entryPerimeter=0;" edge="1" parent="1" source="Es_sbu_oqxTV1BIQotpF-286" target="Es_sbu_oqxTV1BIQotpF-287">
          <mxGeometry relative="1" as="geometry" />
        </mxCell>
        <mxCell id="Es_sbu_oqxTV1BIQotpF-304" value="СистемаЕдиниц" style="swimlane;fontStyle=0;childLayout=stackLayout;horizontal=1;startSize=26;fillColor=none;horizontalStack=0;resizeParent=1;resizeParentMax=0;resizeLast=0;collapsible=1;marginBottom=0;whiteSpace=wrap;html=1;" vertex="1" parent="1">
          <mxGeometry x="670" y="2150" width="320" height="102" as="geometry" />
        </mxCell>
        <mxCell id="Es_sbu_oqxTV1BIQotpF-305" value="+ Азимут,УголВертСеч,Курс:&amp;nbsp;&lt;span style=&quot;text-align: center;&quot;&gt;ЕдиницаИзмерения&lt;/span&gt;" style="text;strokeColor=none;fillColor=none;align=left;verticalAlign=top;spacingLeft=4;spacingRight=4;overflow=hidden;rotatable=0;points=[[0,0.5],[1,0.5]];portConstraint=eastwest;whiteSpace=wrap;html=1;" vertex="1" parent="Es_sbu_oqxTV1BIQotpF-304">
          <mxGeometry y="26" width="320" height="24" as="geometry" />
        </mxCell>
        <mxCell id="Es_sbu_oqxTV1BIQotpF-306" value="+ БольшоеРАсстояние:&amp;nbsp;&lt;span style=&quot;text-align: center;&quot;&gt;ЕдиницаИзмерения&lt;/span&gt;" style="text;strokeColor=none;fillColor=none;align=left;verticalAlign=top;spacingLeft=4;spacingRight=4;overflow=hidden;rotatable=0;points=[[0,0.5],[1,0.5]];portConstraint=eastwest;whiteSpace=wrap;html=1;" vertex="1" parent="Es_sbu_oqxTV1BIQotpF-304">
          <mxGeometry y="50" width="320" height="26" as="geometry" />
        </mxCell>
        <mxCell id="Es_sbu_oqxTV1BIQotpF-307" value="...." style="text;strokeColor=none;fillColor=none;align=left;verticalAlign=top;spacingLeft=4;spacingRight=4;overflow=hidden;rotatable=0;points=[[0,0.5],[1,0.5]];portConstraint=eastwest;whiteSpace=wrap;html=1;" vertex="1" parent="Es_sbu_oqxTV1BIQotpF-304">
          <mxGeometry y="76" width="320" height="26" as="geometry" />
        </mxCell>
        <mxCell id="Es_sbu_oqxTV1BIQotpF-308" value="&lt;span style=&quot;font-weight: 400;&quot;&gt;СервисСистемЕдиницИзмерения&lt;/span&gt;" style="swimlane;fontStyle=1;align=center;verticalAlign=top;childLayout=stackLayout;horizontal=1;startSize=26;horizontalStack=0;resizeParent=1;resizeParentMax=0;resizeLast=0;collapsible=1;marginBottom=0;whiteSpace=wrap;html=1;" vertex="1" parent="1">
          <mxGeometry x="360" y="2010" width="210" height="238" as="geometry" />
        </mxCell>
        <mxCell id="Es_sbu_oqxTV1BIQotpF-309" value="+ АктивнаяСистемаЕдиниц :&amp;nbsp;&lt;span style=&quot;text-align: center;&quot;&gt;СистемаЕдиниц (из списка)&lt;/span&gt;" style="text;strokeColor=none;fillColor=none;align=left;verticalAlign=top;spacingLeft=4;spacingRight=4;overflow=hidden;rotatable=0;points=[[0,0.5],[1,0.5]];portConstraint=eastwest;whiteSpace=wrap;html=1;" vertex="1" parent="Es_sbu_oqxTV1BIQotpF-308">
          <mxGeometry y="26" width="210" height="34" as="geometry" />
        </mxCell>
        <mxCell id="Es_sbu_oqxTV1BIQotpF-312" value="&lt;div style=&quot;&quot;&gt;&lt;span style=&quot;background-color: initial;&quot;&gt;+ СистемыЕдиниц: List&amp;lt;&lt;/span&gt;&lt;span style=&quot;background-color: initial;&quot;&gt;СистемыЕдиниц&lt;/span&gt;&lt;span style=&quot;background-color: initial;&quot;&gt;&amp;gt;&lt;/span&gt;&lt;/div&gt;" style="text;strokeColor=none;fillColor=none;align=left;verticalAlign=top;spacingLeft=4;spacingRight=4;overflow=hidden;rotatable=0;points=[[0,0.5],[1,0.5]];portConstraint=eastwest;whiteSpace=wrap;html=1;" vertex="1" parent="Es_sbu_oqxTV1BIQotpF-308">
          <mxGeometry y="60" width="210" height="40" as="geometry" />
        </mxCell>
        <mxCell id="Es_sbu_oqxTV1BIQotpF-310" value="" style="line;strokeWidth=1;fillColor=none;align=left;verticalAlign=middle;spacingTop=-1;spacingLeft=3;spacingRight=3;rotatable=0;labelPosition=right;points=[];portConstraint=eastwest;strokeColor=inherit;" vertex="1" parent="Es_sbu_oqxTV1BIQotpF-308">
          <mxGeometry y="100" width="210" height="8" as="geometry" />
        </mxCell>
        <mxCell id="Es_sbu_oqxTV1BIQotpF-311" value="+ Экспорт(&lt;span style=&quot;text-align: center;&quot;&gt;СистемаЕдиниц&lt;/span&gt;): type" style="text;strokeColor=none;fillColor=none;align=left;verticalAlign=top;spacingLeft=4;spacingRight=4;overflow=hidden;rotatable=0;points=[[0,0.5],[1,0.5]];portConstraint=eastwest;whiteSpace=wrap;html=1;" vertex="1" parent="Es_sbu_oqxTV1BIQotpF-308">
          <mxGeometry y="108" width="210" height="26" as="geometry" />
        </mxCell>
        <mxCell id="Es_sbu_oqxTV1BIQotpF-330" value="+ Import(): type" style="text;strokeColor=none;fillColor=none;align=left;verticalAlign=top;spacingLeft=4;spacingRight=4;overflow=hidden;rotatable=0;points=[[0,0.5],[1,0.5]];portConstraint=eastwest;whiteSpace=wrap;html=1;" vertex="1" parent="Es_sbu_oqxTV1BIQotpF-308">
          <mxGeometry y="134" width="210" height="26" as="geometry" />
        </mxCell>
        <mxCell id="Es_sbu_oqxTV1BIQotpF-337" value="+ Создать():&amp;nbsp;&lt;span style=&quot;text-align: center;&quot;&gt;СистемаЕдиниц&lt;/span&gt;" style="text;strokeColor=none;fillColor=none;align=left;verticalAlign=top;spacingLeft=4;spacingRight=4;overflow=hidden;rotatable=0;points=[[0,0.5],[1,0.5]];portConstraint=eastwest;whiteSpace=wrap;html=1;" vertex="1" parent="Es_sbu_oqxTV1BIQotpF-308">
          <mxGeometry y="160" width="210" height="26" as="geometry" />
        </mxCell>
        <mxCell id="Es_sbu_oqxTV1BIQotpF-338" value="+ Редактировать(): type" style="text;strokeColor=none;fillColor=none;align=left;verticalAlign=top;spacingLeft=4;spacingRight=4;overflow=hidden;rotatable=0;points=[[0,0.5],[1,0.5]];portConstraint=eastwest;whiteSpace=wrap;html=1;" vertex="1" parent="Es_sbu_oqxTV1BIQotpF-308">
          <mxGeometry y="186" width="210" height="26" as="geometry" />
        </mxCell>
        <mxCell id="Es_sbu_oqxTV1BIQotpF-339" value="+ Удалить(): type" style="text;strokeColor=none;fillColor=none;align=left;verticalAlign=top;spacingLeft=4;spacingRight=4;overflow=hidden;rotatable=0;points=[[0,0.5],[1,0.5]];portConstraint=eastwest;whiteSpace=wrap;html=1;" vertex="1" parent="Es_sbu_oqxTV1BIQotpF-308">
          <mxGeometry y="212" width="210" height="26" as="geometry" />
        </mxCell>
        <mxCell id="Es_sbu_oqxTV1BIQotpF-313" style="edgeStyle=orthogonalEdgeStyle;rounded=0;orthogonalLoop=1;jettySize=auto;html=1;entryX=0.5;entryY=0;entryDx=0;entryDy=0;" edge="1" parent="1" source="Es_sbu_oqxTV1BIQotpF-309" target="Es_sbu_oqxTV1BIQotpF-304">
          <mxGeometry relative="1" as="geometry" />
        </mxCell>
        <mxCell id="Es_sbu_oqxTV1BIQotpF-314" value="ЕдиницаИзмерения" style="swimlane;fontStyle=0;childLayout=stackLayout;horizontal=1;startSize=26;fillColor=none;horizontalStack=0;resizeParent=1;resizeParentMax=0;resizeLast=0;collapsible=1;marginBottom=0;whiteSpace=wrap;html=1;" vertex="1" parent="1">
          <mxGeometry x="930" y="2308" width="240" height="160" as="geometry" />
        </mxCell>
        <mxCell id="Es_sbu_oqxTV1BIQotpF-315" value="+ ЕдиницаИзмеренияValue : ЕдиницаИзмеренияEnum" style="text;strokeColor=none;fillColor=none;align=left;verticalAlign=top;spacingLeft=4;spacingRight=4;overflow=hidden;rotatable=0;points=[[0,0.5],[1,0.5]];portConstraint=eastwest;whiteSpace=wrap;html=1;" vertex="1" parent="Es_sbu_oqxTV1BIQotpF-314">
          <mxGeometry y="26" width="240" height="34" as="geometry" />
        </mxCell>
        <mxCell id="Es_sbu_oqxTV1BIQotpF-316" value="+ ИспольлзоватьТочность? : bool&amp;nbsp;" style="text;strokeColor=none;fillColor=none;align=left;verticalAlign=top;spacingLeft=4;spacingRight=4;overflow=hidden;rotatable=0;points=[[0,0.5],[1,0.5]];portConstraint=eastwest;whiteSpace=wrap;html=1;" vertex="1" parent="Es_sbu_oqxTV1BIQotpF-314">
          <mxGeometry y="60" width="240" height="26" as="geometry" />
        </mxCell>
        <mxCell id="Es_sbu_oqxTV1BIQotpF-317" value="+ Точность : ТочностьEnum" style="text;strokeColor=none;fillColor=none;align=left;verticalAlign=top;spacingLeft=4;spacingRight=4;overflow=hidden;rotatable=0;points=[[0,0.5],[1,0.5]];portConstraint=eastwest;whiteSpace=wrap;html=1;" vertex="1" parent="Es_sbu_oqxTV1BIQotpF-314">
          <mxGeometry y="86" width="240" height="26" as="geometry" />
        </mxCell>
        <mxCell id="Es_sbu_oqxTV1BIQotpF-328" value="МОЖЕТ ЗДЕСЬ РАСЧИТАТЬ С ТОЧНОСТЬЮ," style="text;strokeColor=#d6b656;fillColor=#fff2cc;align=left;verticalAlign=top;spacingLeft=4;spacingRight=4;overflow=hidden;rotatable=0;points=[[0,0.5],[1,0.5]];portConstraint=eastwest;whiteSpace=wrap;html=1;" vertex="1" parent="Es_sbu_oqxTV1BIQotpF-314">
          <mxGeometry y="112" width="240" height="48" as="geometry" />
        </mxCell>
        <mxCell id="Es_sbu_oqxTV1BIQotpF-318" value="&lt;span style=&quot;text-align: left;&quot;&gt;ЕдиницаИзмеренияEnum&lt;/span&gt;" style="swimlane;fontStyle=0;childLayout=stackLayout;horizontal=1;startSize=26;fillColor=none;horizontalStack=0;resizeParent=1;resizeParentMax=0;resizeLast=0;collapsible=1;marginBottom=0;whiteSpace=wrap;html=1;" vertex="1" parent="1">
          <mxGeometry x="1210" y="2440" width="240" height="142" as="geometry" />
        </mxCell>
        <mxCell id="Es_sbu_oqxTV1BIQotpF-319" value="&lt;font size=&quot;1&quot; face=&quot;Helvetica Neue, Vitesco W05 Roman, Helvetica, Arial, sans-serif&quot;&gt;&lt;span style=&quot;background-color: rgb(242, 245, 250);&quot;&gt;ДесятичныеГрадусы = &#39;&lt;/span&gt;&lt;/font&gt;&lt;span style=&quot;font-family: &amp;quot;Helvetica Neue&amp;quot;, &amp;quot;Vitesco W05 Roman&amp;quot;, Helvetica, Arial, sans-serif; font-size: 16.0083px; background-color: rgb(242, 245, 250);&quot;&gt;© (десят градусы)&lt;/span&gt;&lt;font size=&quot;1&quot; face=&quot;Helvetica Neue, Vitesco W05 Roman, Helvetica, Arial, sans-serif&quot;&gt;&lt;span style=&quot;background-color: rgb(242, 245, 250);&quot;&gt;&#39;&lt;/span&gt;&lt;/font&gt;" style="text;strokeColor=none;fillColor=none;align=left;verticalAlign=top;spacingLeft=4;spacingRight=4;overflow=hidden;rotatable=0;points=[[0,0.5],[1,0.5]];portConstraint=eastwest;whiteSpace=wrap;html=1;" vertex="1" parent="Es_sbu_oqxTV1BIQotpF-318">
          <mxGeometry y="26" width="240" height="64" as="geometry" />
        </mxCell>
        <mxCell id="Es_sbu_oqxTV1BIQotpF-320" value="..." style="text;strokeColor=none;fillColor=none;align=left;verticalAlign=top;spacingLeft=4;spacingRight=4;overflow=hidden;rotatable=0;points=[[0,0.5],[1,0.5]];portConstraint=eastwest;whiteSpace=wrap;html=1;" vertex="1" parent="Es_sbu_oqxTV1BIQotpF-318">
          <mxGeometry y="90" width="240" height="26" as="geometry" />
        </mxCell>
        <mxCell id="Es_sbu_oqxTV1BIQotpF-321" value="...." style="text;strokeColor=none;fillColor=none;align=left;verticalAlign=top;spacingLeft=4;spacingRight=4;overflow=hidden;rotatable=0;points=[[0,0.5],[1,0.5]];portConstraint=eastwest;whiteSpace=wrap;html=1;" vertex="1" parent="Es_sbu_oqxTV1BIQotpF-318">
          <mxGeometry y="116" width="240" height="26" as="geometry" />
        </mxCell>
        <mxCell id="Es_sbu_oqxTV1BIQotpF-322" style="edgeStyle=orthogonalEdgeStyle;rounded=0;orthogonalLoop=1;jettySize=auto;html=1;entryX=0.526;entryY=0.004;entryDx=0;entryDy=0;entryPerimeter=0;" edge="1" parent="1" source="Es_sbu_oqxTV1BIQotpF-315" target="Es_sbu_oqxTV1BIQotpF-318">
          <mxGeometry relative="1" as="geometry" />
        </mxCell>
        <mxCell id="Es_sbu_oqxTV1BIQotpF-323" value="&lt;span style=&quot;text-align: left;&quot;&gt;ТочностьEnum&lt;/span&gt;" style="swimlane;fontStyle=0;childLayout=stackLayout;horizontal=1;startSize=26;fillColor=none;horizontalStack=0;resizeParent=1;resizeParentMax=0;resizeLast=0;collapsible=1;marginBottom=0;whiteSpace=wrap;html=1;" vertex="1" parent="1">
          <mxGeometry x="670" y="2460" width="140" height="104" as="geometry" />
        </mxCell>
        <mxCell id="Es_sbu_oqxTV1BIQotpF-324" value="+ field: type" style="text;strokeColor=none;fillColor=none;align=left;verticalAlign=top;spacingLeft=4;spacingRight=4;overflow=hidden;rotatable=0;points=[[0,0.5],[1,0.5]];portConstraint=eastwest;whiteSpace=wrap;html=1;" vertex="1" parent="Es_sbu_oqxTV1BIQotpF-323">
          <mxGeometry y="26" width="140" height="26" as="geometry" />
        </mxCell>
        <mxCell id="Es_sbu_oqxTV1BIQotpF-325" value="+ field: type" style="text;strokeColor=none;fillColor=none;align=left;verticalAlign=top;spacingLeft=4;spacingRight=4;overflow=hidden;rotatable=0;points=[[0,0.5],[1,0.5]];portConstraint=eastwest;whiteSpace=wrap;html=1;" vertex="1" parent="Es_sbu_oqxTV1BIQotpF-323">
          <mxGeometry y="52" width="140" height="26" as="geometry" />
        </mxCell>
        <mxCell id="Es_sbu_oqxTV1BIQotpF-326" value="+ field: type" style="text;strokeColor=none;fillColor=none;align=left;verticalAlign=top;spacingLeft=4;spacingRight=4;overflow=hidden;rotatable=0;points=[[0,0.5],[1,0.5]];portConstraint=eastwest;whiteSpace=wrap;html=1;" vertex="1" parent="Es_sbu_oqxTV1BIQotpF-323">
          <mxGeometry y="78" width="140" height="26" as="geometry" />
        </mxCell>
        <mxCell id="Es_sbu_oqxTV1BIQotpF-327" style="edgeStyle=orthogonalEdgeStyle;rounded=0;orthogonalLoop=1;jettySize=auto;html=1;entryX=0.999;entryY=0.119;entryDx=0;entryDy=0;entryPerimeter=0;" edge="1" parent="1" source="Es_sbu_oqxTV1BIQotpF-317" target="Es_sbu_oqxTV1BIQotpF-323">
          <mxGeometry relative="1" as="geometry" />
        </mxCell>
        <mxCell id="Es_sbu_oqxTV1BIQotpF-329" style="edgeStyle=orthogonalEdgeStyle;rounded=0;orthogonalLoop=1;jettySize=auto;html=1;" edge="1" parent="1" source="Es_sbu_oqxTV1BIQotpF-305" target="Es_sbu_oqxTV1BIQotpF-314">
          <mxGeometry relative="1" as="geometry" />
        </mxCell>
      </root>
    </mxGraphModel>
  </diagram>
</mxfile>
